<?xml version="1.0" encoding="utf-8"?>
<!-- Generator: Adobe Illustrator 27.6.1, SVG Export Plug-In . SVG Version: 6.00 Build 0)  -->
<svg version="1.1" id="Слой_1" xmlns="http://www.w3.org/2000/svg" xmlns:xlink="http://www.w3.org/1999/xlink" x="0px" y="0px"
	 viewBox="0 0 1440 609" style="enable-background:new 0 0 1440 609;" xml:space="preserve">
<style type="text/css">
	.st0{fill:#0C0C1C;}
	.st1{clip-path:url(#SVGID_00000152954800717229768410000014090658244674051970_);}
	.st2{fill:url(#SVGID_00000141443907915463521870000010156172872956116610_);}
	.st3{fill:#612FFB;}
	.st4{fill:#0B0C15;}
	.st5{opacity:0.58;clip-path:url(#SVGID_00000003785831515776522340000016245193311363654565_);}
	.st6{fill:url(#SVGID_00000075858562655851540610000000586580118372376473_);}
	.st7{fill:url(#SVGID_00000033347710137166742560000000743323481490475928_);}
	.st8{fill:url(#SVGID_00000050662524191727748370000011963872387744740530_);}
	.st9{fill:#151625;}
	.st10{clip-path:url(#SVGID_00000149347432903533190420000008710573298236896696_);}
	.st11{fill:#04192E;}
	.st12{fill:#16131C;}
	.st13{fill:#8E69C9;}
	.st14{fill:none;stroke:#FFFFFF;stroke-miterlimit:10;}
	.st15{fill:#FFFFFF;}
	.st16{fill:#7746FC;}
	.st17{fill:#15113A;}
	.st18{fill:#3A0E82;}
	.st19{fill:#D2D2FF;}
	.st20{fill:none;stroke:#7746FC;stroke-miterlimit:10;}
	.st21{opacity:0.5;fill:#695FFF;}
	.st22{fill:#695FFF;}
	.st23{opacity:0.5;fill:#FFFFFF;}
	.st24{fill:#182758;}
	.st25{fill:#363C96;}
	.st26{opacity:0.35;fill:#FFFFFF;}
	.st27{opacity:0.6;fill:#FFFFFF;}
	.st28{opacity:0.35;fill:#695FFF;}
	.st29{opacity:0.6;fill:#695FFF;}
	.st30{fill-rule:evenodd;clip-rule:evenodd;fill:#182758;}
	.st31{fill-rule:evenodd;clip-rule:evenodd;fill:#695FFF;}
	.st32{opacity:0.3;fill-rule:evenodd;clip-rule:evenodd;fill:#FFFFFF;}
	.st33{fill-rule:evenodd;clip-rule:evenodd;fill:#FFFFFF;}
	.st34{opacity:0.3;fill-rule:evenodd;clip-rule:evenodd;fill:#695FFF;}
	.st35{fill:#E0E0E0;}
	.st36{fill:#4759FF;}
	.st37{fill:#1A2A84;}
	.st38{fill:#160E23;}
	.st39{fill:#EEE8E7;}
	.st40{fill:#22262D;}
	.st41{fill:#624096;}
	.st42{fill:#8F68C9;}
	.st43{fill:#6639E4;}
	.st44{fill:#8463EA;}
	.st45{fill:#825FFF;}
	.st46{fill:#917BFF;}
	.st47{fill:#7461FF;}
	.st48{fill:#601FFF;}
	.st49{fill:#6900FF;}
	.st50{fill:#9663EE;}
	.st51{fill:#7600FF;}
	.st52{fill:#4D3BFF;}
	.st53{fill:#8A8AFF;}
	.st54{fill:#7132F2;}
	.st55{fill:#5C04CE;}
	.st56{fill:#0F0537;}
	.st57{fill:#12112A;}
	.st58{fill:#131229;}
	.st59{fill:#131328;}
	.st60{fill:#141327;}
	.st61{fill:#141426;}
	.st62{fill:#151525;}
	.st63{fill:#151624;}
	.st64{fill:#161723;}
	.st65{fill:#161822;}
	.st66{fill:#171821;}
	.st67{fill:#171920;}
	.st68{fill:#181A1F;}
	.st69{fill:#341084;}
	.st70{fill:#282454;}
	.st71{fill:#6639E3;}
	.st72{fill:#6539E2;}
	.st73{fill:#6539E1;}
	.st74{fill:#6438E0;}
	.st75{fill:#6438DF;}
	.st76{fill:#6338DE;}
	.st77{fill:#6338DD;}
	.st78{fill:#6338DC;}
	.st79{fill:#6238DB;}
	.st80{fill:#6238DA;}
	.st81{fill:#6137D9;}
	.st82{fill:#6137D8;}
	.st83{fill:#6037D7;}
	.st84{fill:#6037D6;}
	.st85{fill:#6037D5;}
	.st86{fill:#5F37D4;}
	.st87{fill:#5F37D3;}
	.st88{fill:#5E36D2;}
	.st89{fill:#5E36D1;}
	.st90{fill:#5D36D0;}
	.st91{fill:#5D36CF;}
	.st92{fill:#5D36CE;}
	.st93{fill:#5C36CD;}
	.st94{fill:#5C35CC;}
	.st95{fill:#5B35CB;}
	.st96{fill:#5B35CA;}
	.st97{fill:#5A35C9;}
	.st98{fill:#5A35C8;}
	.st99{fill:#5A35C7;}
	.st100{fill:#5935C6;}
	.st101{fill:#5934C5;}
	.st102{fill:#5834C4;}
	.st103{fill:#5834C3;}
	.st104{fill:#5734C2;}
	.st105{fill:#5734C1;}
	.st106{fill:#5634C0;}
	.st107{fill:#5634BF;}
	.st108{fill:#5633BE;}
	.st109{fill:#5533BD;}
	.st110{fill:#5533BC;}
	.st111{fill:#5433BB;}
	.st112{fill:#5433BA;}
	.st113{fill:#5333B9;}
	.st114{fill:#5333B8;}
	.st115{fill:#5332B7;}
	.st116{fill:#5232B6;}
	.st117{fill:#5232B5;}
	.st118{fill:#5132B4;}
	.st119{fill:#5132B3;}
	.st120{fill:#5032B2;}
	.st121{fill:#5032B1;}
	.st122{fill:#5031B0;}
	.st123{fill:#4F31AF;}
	.st124{fill:#4F31AE;}
	.st125{fill:#4E31AD;}
	.st126{fill:#4E31AC;}
	.st127{fill:#4D31AB;}
	.st128{fill:#4D31AA;}
	.st129{fill:#4D30A9;}
	.st130{fill:#4C30A8;}
	.st131{fill:#4C30A7;}
	.st132{fill:#4B30A6;}
	.st133{fill:#4B30A5;}
	.st134{fill:#4A30A4;}
	.st135{fill:#4A30A3;}
	.st136{fill:#4A2FA2;}
	.st137{fill:#492FA1;}
	.st138{fill:#492FA0;}
	.st139{fill:#482F9F;}
	.st140{fill:#482F9E;}
	.st141{fill:#472F9D;}
	.st142{fill:#472E9C;}
	.st143{fill:#472E9B;}
	.st144{fill:#462E9A;}
	.st145{fill:#462E99;}
	.st146{fill:#452E98;}
	.st147{fill:#452E97;}
	.st148{fill:#442E96;}
	.st149{fill:#442D95;}
	.st150{fill:#442D94;}
	.st151{fill:#432D93;}
	.st152{fill:#432D92;}
	.st153{fill:#422D91;}
	.st154{fill:#422D90;}
	.st155{fill:#412D8F;}
	.st156{fill:#412C8E;}
	.st157{fill:#412C8D;}
	.st158{fill:#402C8C;}
	.st159{fill:#402C8B;}
	.st160{fill:#3F2C8A;}
	.st161{fill:#3F2C89;}
	.st162{fill:#3E2C88;}
	.st163{fill:#3E2B87;}
	.st164{fill:#3E2B86;}
	.st165{fill:#3D2B85;}
	.st166{fill:#3D2B84;}
	.st167{fill:#3C2B83;}
	.st168{fill:#3C2B82;}
	.st169{fill:#3B2B81;}
	.st170{fill:#3B2A80;}
	.st171{fill:#3B2A7F;}
	.st172{fill:#3A2A7E;}
	.st173{fill:#3A2A7D;}
	.st174{fill:#392A7C;}
	.st175{fill:#392A7B;}
	.st176{fill:#382A7A;}
	.st177{fill:#382979;}
	.st178{fill:#382978;}
	.st179{fill:#372977;}
	.st180{fill:#372976;}
	.st181{fill:#362975;}
	.st182{fill:#362974;}
	.st183{fill:#352973;}
	.st184{fill:#352872;}
	.st185{fill:#342871;}
	.st186{fill:#342870;}
	.st187{fill:#34286F;}
	.st188{fill:#33286E;}
	.st189{fill:#33286D;}
	.st190{fill:#32286C;}
	.st191{fill:#32276B;}
	.st192{fill:#31276A;}
	.st193{fill:#312769;}
	.st194{fill:#312768;}
	.st195{fill:#302767;}
	.st196{fill:#302766;}
	.st197{fill:#2F2665;}
	.st198{fill:#2F2664;}
	.st199{fill:#2E2663;}
	.st200{fill:#2E2662;}
	.st201{fill:#2E2661;}
	.st202{fill:#2D2660;}
	.st203{fill:#2D265F;}
	.st204{fill:#2C255E;}
	.st205{fill:#2C255D;}
	.st206{fill:#2B255C;}
	.st207{fill:#2B255B;}
	.st208{fill:#2B255A;}
	.st209{fill:#2A2559;}
	.st210{fill:#2A2558;}
	.st211{fill:#292457;}
	.st212{fill:#292456;}
	.st213{fill:#282455;}
	.st214{fill:#7448FF;}
	.st215{fill:#5122D3;}
	.st216{fill:#5A29E2;}
	.st217{fill:#7C52FF;}
	.st218{fill:#8076FF;}
	.st219{fill:#7F75FE;}
	.st220{fill:#7E74FC;}
	.st221{fill:#7D73FB;}
	.st222{fill:#7D72FA;}
	.st223{fill:#7C70F8;}
	.st224{fill:#7B6FF7;}
	.st225{fill:#7A6EF6;}
	.st226{fill:#796DF4;}
	.st227{fill:#786CF3;}
	.st228{fill:#786BF1;}
	.st229{fill:#776AF0;}
	.st230{fill:#7669EF;}
	.st231{fill:#7567ED;}
	.st232{fill:#7466EC;}
	.st233{fill:#7365EB;}
	.st234{fill:#7364E9;}
	.st235{fill:#7263E8;}
	.st236{fill:#7162E7;}
	.st237{fill:#7061E5;}
	.st238{fill:#6F60E4;}
	.st239{fill:#6E5EE3;}
	.st240{fill:#6E5DE1;}
	.st241{fill:#6D5CE0;}
	.st242{fill:#6C5BDF;}
	.st243{fill:#6B5ADD;}
	.st244{fill:#6A59DC;}
	.st245{fill:#6958DB;}
	.st246{fill:#6957D9;}
	.st247{fill:#6855D8;}
	.st248{fill:#6754D6;}
	.st249{fill:#6653D5;}
	.st250{fill:#6552D4;}
	.st251{fill:#6451D2;}
	.st252{fill:#6450D1;}
	.st253{fill:#634FD0;}
	.st254{fill:#624ECE;}
	.st255{fill:#614DCD;}
	.st256{fill:#604BCC;}
	.st257{fill:#5F4ACA;}
	.st258{fill:#5F49C9;}
	.st259{fill:#5E48C8;}
	.st260{fill:#5D47C6;}
	.st261{fill:#5C46C5;}
	.st262{fill:#5B45C4;}
	.st263{fill:#5A44C2;}
	.st264{fill:#5A42C1;}
	.st265{fill:#5941BF;}
	.st266{fill:#5840BE;}
	.st267{fill:#573FBD;}
	.st268{fill:#563EBB;}
	.st269{fill:#553DBA;}
	.st270{fill:#553CB9;}
	.st271{fill:#543BB7;}
	.st272{fill:#5339B6;}
	.st273{fill:#5238B5;}
	.st274{fill:#5137B3;}
	.st275{fill:#5036B2;}
	.st276{fill:#5035B1;}
	.st277{fill:#4F34AF;}
	.st278{fill:#4E33AE;}
	.st279{fill:#4D32AD;}
	.st280{fill:#4C31AB;}
	.st281{fill:#4B2FAA;}
	.st282{fill:#4B2EA8;}
	.st283{fill:#4A2DA7;}
	.st284{fill:#492CA6;}
	.st285{fill:#482BA4;}
	.st286{fill:#472AA3;}
	.st287{fill:#4629A2;}
	.st288{fill:#4628A0;}
	.st289{fill:#45269F;}
	.st290{fill:#44259E;}
	.st291{fill:#43249C;}
	.st292{fill:#42239B;}
	.st293{fill:#41229A;}
	.st294{fill:#412198;}
	.st295{fill:#402097;}
	.st296{fill:#3F1F96;}
	.st297{fill:#3E1D94;}
	.st298{fill:#3D1C93;}
	.st299{fill:#3C1B92;}
	.st300{fill:#3C1A90;}
	.st301{fill:#3B198F;}
	.st302{fill:#3A188D;}
	.st303{fill:#39178C;}
	.st304{fill:#38168B;}
	.st305{fill:#371489;}
	.st306{fill:#371388;}
	.st307{fill:#361287;}
	.st308{fill:#351185;}
	.st309{fill:#6331FF;}
	.st310{fill:#7360FE;}
	.st311{fill:#735FFC;}
	.st312{fill:#725EFB;}
	.st313{fill:#715DFA;}
	.st314{fill:#705DF8;}
	.st315{fill:#705CF7;}
	.st316{fill:#6F5BF6;}
	.st317{fill:#6E5AF4;}
	.st318{fill:#6E59F3;}
	.st319{fill:#6D58F1;}
	.st320{fill:#6C57F0;}
	.st321{fill:#6C56EF;}
	.st322{fill:#6B55ED;}
	.st323{fill:#6A55EC;}
	.st324{fill:#6954EB;}
	.st325{fill:#6953E9;}
	.st326{fill:#6852E8;}
	.st327{fill:#6751E7;}
	.st328{fill:#6750E5;}
	.st329{fill:#664FE4;}
	.st330{fill:#654EE3;}
	.st331{fill:#654DE1;}
	.st332{fill:#644DE0;}
	.st333{fill:#634CDF;}
	.st334{fill:#624BDD;}
	.st335{fill:#624ADC;}
	.st336{fill:#6149DB;}
	.st337{fill:#6048D9;}
	.st338{fill:#6047D8;}
	.st339{fill:#5F46D6;}
	.st340{fill:#5E45D5;}
	.st341{fill:#5D45D4;}
	.st342{fill:#5D44D2;}
	.st343{fill:#5C43D1;}
	.st344{fill:#5B42D0;}
	.st345{fill:#5B41CE;}
	.st346{fill:#5A40CD;}
	.st347{fill:#593FCC;}
	.st348{fill:#593ECA;}
	.st349{fill:#583DC9;}
	.st350{fill:#573DC8;}
	.st351{fill:#563CC6;}
	.st352{fill:#563BC5;}
	.st353{fill:#553AC4;}
	.st354{fill:#5439C2;}
	.st355{fill:#5438C1;}
	.st356{fill:#5337BF;}
	.st357{fill:#5236BE;}
	.st358{fill:#5235BD;}
	.st359{fill:#5134BB;}
	.st360{fill:#5034BA;}
	.st361{fill:#4F33B9;}
	.st362{fill:#4F32B7;}
	.st363{fill:#4E31B6;}
	.st364{fill:#4D30B5;}
	.st365{fill:#4D2FB3;}
	.st366{fill:#4C2EB2;}
	.st367{fill:#4B2DB1;}
	.st368{fill:#4B2CAF;}
	.st369{fill:#4A2CAE;}
	.st370{fill:#492BAD;}
	.st371{fill:#482AAB;}
	.st372{fill:#4829AA;}
	.st373{fill:#4728A8;}
	.st374{fill:#4627A7;}
	.st375{fill:#4626A6;}
	.st376{fill:#4525A4;}
	.st377{fill:#4424A3;}
	.st378{fill:#4324A2;}
	.st379{fill:#4323A0;}
	.st380{fill:#42229F;}
	.st381{fill:#41219E;}
	.st382{fill:#41209C;}
	.st383{fill:#401F9B;}
	.st384{fill:#3F1E9A;}
	.st385{fill:#3F1D98;}
	.st386{fill:#3E1C97;}
	.st387{fill:#3D1C96;}
	.st388{fill:#3C1B94;}
	.st389{fill:#3C1A93;}
	.st390{fill:#3B1992;}
	.st391{fill:#3A1890;}
	.st392{fill:#3A178F;}
	.st393{fill:#39168D;}
	.st394{fill:#38158C;}
	.st395{fill:#38148B;}
	.st396{fill:#361388;}
	.st397{fill:#351287;}
	.st398{fill:#7B88FF;}
	.st399{fill:#6757FF;}
	.st400{fill:#6445FF;}
	.st401{fill:#201E23;}
	.st402{fill:#EEEEFF;}
	.st403{fill:#6130FB;}
	.st404{fill:#151554;}
	.st405{fill:#DCDCFF;}
	.st406{fill:none;stroke:#6331FF;stroke-miterlimit:10;}
	.st407{fill:#7B5CFF;}
	.st408{fill:#7B71FF;}
	.st409{fill:#265A60;}
	.st410{fill:#11117F;}
	.st411{fill:url(#SVGID_00000056408029053872472230000000215629765111022232_);}
	.st412{fill:url(#SVGID_00000093859773274027532420000013216897175449104514_);}
	.st413{fill:url(#SVGID_00000098917281010508103280000005825283209628378513_);}
	.st414{fill:#B0AEFF;}
	.st415{fill:#716EFF;}
	.st416{fill:#D9D9FF;}
	.st417{fill:#7D36EF;}
	.st418{fill:#A28FFF;}
	.st419{fill:#7E35EF;}
	.st420{opacity:0.6;fill:#6130FB;}
	.st421{opacity:0.4;fill:#6130FB;}
	.st422{fill:#B0B8FF;}
	.st423{clip-path:url(#SVGID_00000157277179649851245420000003726682385887001240_);}
	.st424{clip-path:url(#SVGID_00000017481176142855295800000015372332327777900200_);}
	.st425{clip-path:url(#SVGID_00000036929638108200658520000012508805878189576597_);}
	.st426{fill:url(#SVGID_00000006703993705722821870000009698501600093789355_);}
	.st427{fill:url(#SVGID_00000116228620287431854670000015517727962858820744_);}
	.st428{fill:url(#SVGID_00000074400923319849207720000014512831730680423860_);}
	.st429{fill:url(#SVGID_00000059269640525695635940000004486553200270633391_);}
	.st430{fill:url(#SVGID_00000158720031565607778760000003107262406040955567_);}
	.st431{fill:url(#SVGID_00000116947847094257040500000013146446804371752612_);}
	.st432{clip-path:url(#SVGID_00000129207760800863348680000009354226735133909135_);}
	.st433{clip-path:url(#SVGID_00000036962547024189742420000005832929237342337967_);}
	.st434{clip-path:url(#SVGID_00000043437300684134431330000000046382529034224523_);}
	.st435{fill:#8645E7;}
	.st436{fill:none;stroke:#FFFFFF;stroke-width:3.3544;stroke-miterlimit:10;}
	.st437{fill:#22143D;}
	.st438{fill:url(#SVGID_00000157986364503553906200000004249121008158619567_);}
	.st439{clip-path:url(#SVGID_00000069400458392279374110000014690389788749835195_);}
	
		.st440{clip-path:url(#SVGID_00000069400458392279374110000014690389788749835195_);fill:url(#SVGID_00000110461022171646543490000001034255940621803687_);}
	.st441{clip-path:url(#SVGID_00000150817247279029921430000009403173155896143287_);}
	
		.st442{clip-path:url(#SVGID_00000150817247279029921430000009403173155896143287_);fill:url(#SVGID_00000040556453831483687770000015152244086165735816_);}
	.st443{clip-path:url(#SVGID_00000183230973724680958480000014950275190620399260_);}
	
		.st444{clip-path:url(#SVGID_00000183230973724680958480000014950275190620399260_);fill:url(#SVGID_00000102528415648794971060000009159431828572188058_);}
	.st445{clip-path:url(#SVGID_00000088850135074932289160000016673160968300313476_);}
	
		.st446{clip-path:url(#SVGID_00000088850135074932289160000016673160968300313476_);fill:url(#SVGID_00000042712732550170350870000017667159047678459291_);}
	.st447{fill:none;stroke:#612FFB;stroke-miterlimit:10;}
	.st448{fill:none;stroke:#612FFB;stroke-width:0.9973;stroke-miterlimit:10;}
	.st449{clip-path:url(#SVGID_00000071548988735377384540000015446259463440820643_);}
	.st450{clip-path:url(#SVGID_00000067211339524145058540000000896100885211122340_);}
	.st451{fill:url(#SVGID_00000038380205118426809840000012138587798462280586_);}
	.st452{fill:none;stroke:#612FFB;stroke-width:0.5;stroke-miterlimit:10;}
	.st453{fill:none;stroke:#FFFFFF;stroke-width:0.5396;stroke-miterlimit:10;}
	.st454{clip-path:url(#SVGID_00000032631679032150306110000011338168064318605759_);}
	
		.st455{clip-path:url(#SVGID_00000032631679032150306110000011338168064318605759_);fill:url(#SVGID_00000076589399202039554040000016468063019011813267_);}
	.st456{clip-path:url(#SVGID_00000072989029114545590290000000277000965719434421_);}
	
		.st457{clip-path:url(#SVGID_00000072989029114545590290000000277000965719434421_);fill:url(#SVGID_00000141453144296530861760000014516527979742338948_);}
	.st458{clip-path:url(#SVGID_00000059998424425052630560000016128452759284335797_);}
	
		.st459{clip-path:url(#SVGID_00000059998424425052630560000016128452759284335797_);fill:url(#SVGID_00000114773481090688254480000005455154500542991549_);}
	.st460{clip-path:url(#SVGID_00000063595728567708161260000011821532462177959552_);}
	
		.st461{clip-path:url(#SVGID_00000063595728567708161260000011821532462177959552_);fill:url(#SVGID_00000103951167753728939560000005463195009560919442_);}
	.st462{opacity:0.58;clip-path:url(#SVGID_00000119827752783439331710000004890988132589910441_);}
	.st463{fill:url(#SVGID_00000043428234351774384480000015463264182335776930_);}
	.st464{fill:url(#SVGID_00000176039687346496352710000015080330088664269202_);}
	.st465{fill:url(#SVGID_00000065043230266601449030000009838601294128888961_);}
	
		.st466{clip-path:url(#SVGID_00000119827752783439331710000004890988132589910441_);fill:url(#SVGID_00000120559041487588573930000012673651772414981813_);}
	.st467{clip-path:url(#SVGID_00000118358498033304378100000015014786479074590907_);}
	.st468{clip-path:url(#SVGID_00000049906662167556250690000006288158801216470939_);}
	
		.st469{clip-path:url(#SVGID_00000049906662167556250690000006288158801216470939_);fill:url(#SVGID_00000047021830339799623670000007399578705680536254_);}
	.st470{clip-path:url(#SVGID_00000161598495437452765560000000784274414742428049_);}
	
		.st471{clip-path:url(#SVGID_00000161598495437452765560000000784274414742428049_);fill:url(#SVGID_00000173881456477050353610000000743547474330638726_);}
	.st472{clip-path:url(#SVGID_00000181773655269988245270000013276138628006657419_);}
	
		.st473{clip-path:url(#SVGID_00000181773655269988245270000013276138628006657419_);fill:url(#SVGID_00000167378199259664414750000002887339291823075250_);}
	.st474{clip-path:url(#SVGID_00000079476863125008515620000007617234632319714234_);}
	
		.st475{clip-path:url(#SVGID_00000079476863125008515620000007617234632319714234_);fill:url(#SVGID_00000148624911467158435550000009072850731196916630_);}
	.st476{opacity:0.58;clip-path:url(#SVGID_00000031189836397959223660000001957744469185398451_);}
	.st477{fill:url(#SVGID_00000081638078293985945610000017769280229065806509_);}
	.st478{fill:url(#SVGID_00000107578789937203919820000006850174236812595087_);}
	.st479{fill:url(#SVGID_00000169551421691036901820000011940370770264923277_);}
	
		.st480{clip-path:url(#SVGID_00000031189836397959223660000001957744469185398451_);fill:url(#SVGID_00000060747744068308227550000015160918284256325013_);}
	.st481{clip-path:url(#SVGID_00000173151727259151317450000005306371162434479258_);}
</style>
<g>
	<g>
		<g>
			<path class="st407" d="M598.74,381.69c-10.57,0-20.1-1.83-28.59-5.47c-8.49-3.65-15.48-8.87-20.97-15.65
				c-5.49-6.79-9.05-14.85-10.69-24.2l22.3-3.38c2.25,9,6.96,16.01,14.12,21.02c7.16,5.01,15.52,7.52,25.06,7.52
				c5.93,0,11.39-0.94,16.37-2.81c4.98-1.88,8.98-4.57,12.02-8.08c3.03-3.51,4.55-7.72,4.55-12.63c0-2.66-0.46-5.01-1.38-7.06
				s-2.18-3.84-3.79-5.37c-1.6-1.53-3.55-2.86-5.83-3.99c-2.29-1.13-4.79-2.1-7.52-2.92l-37.75-11.15
				c-3.68-1.09-7.43-2.51-11.25-4.25s-7.32-4.02-10.49-6.85c-3.17-2.83-5.75-6.34-7.72-10.54c-1.98-4.19-2.97-9.29-2.97-15.3
				c0-9.07,2.34-16.76,7.01-23.07c4.67-6.31,11-11.08,18.98-14.32c7.98-3.24,16.91-4.86,26.8-4.86c9.96,0.14,18.88,1.91,26.75,5.32
				c7.88,3.41,14.43,8.3,19.64,14.68c5.22,6.38,8.81,14.1,10.79,23.17l-22.92,3.89c-1.02-5.52-3.21-10.28-6.55-14.27
				c-3.34-3.99-7.43-7.06-12.28-9.21c-4.84-2.15-10.09-3.26-15.75-3.33c-5.46-0.14-10.45,0.68-14.99,2.46
				c-4.54,1.77-8.15,4.26-10.84,7.47c-2.7,3.21-4.04,6.89-4.04,11.05c0,4.09,1.19,7.4,3.58,9.92c2.39,2.52,5.34,4.52,8.85,5.99
				c3.51,1.47,7.01,2.68,10.49,3.63l27.21,7.67c3.41,0.96,7.28,2.23,11.61,3.84c4.33,1.6,8.52,3.84,12.58,6.7
				c4.06,2.86,7.42,6.67,10.08,11.41c2.66,4.74,3.99,10.69,3.99,17.85c0,7.43-1.5,13.97-4.5,19.59c-3,5.63-7.11,10.33-12.33,14.12
				c-5.22,3.79-11.24,6.63-18.06,8.54C613.5,380.73,606.31,381.69,598.74,381.69z"/>
			<path class="st407" d="M662.68,285.31v-17.19h75.5v17.19H662.68z M738.18,378.62c-6.96,1.36-13.78,1.94-20.46,1.74
				c-6.68-0.2-12.65-1.5-17.9-3.89c-5.25-2.39-9.21-6.14-11.87-11.25c-2.39-4.57-3.67-9.22-3.84-13.97
				c-0.17-4.74-0.26-10.11-0.26-16.11v-97.7h21.48v96.68c0,4.44,0.05,8.29,0.15,11.56c0.1,3.27,0.8,6.04,2.1,8.29
				c2.46,4.23,6.36,6.63,11.71,7.21c5.35,0.58,11.65,0.36,18.88-0.67V378.62z"/>
			<path class="st407" d="M790.56,381.69c-8.18,0-15.04-1.52-20.56-4.55c-5.52-3.03-9.7-7.06-12.53-12.07
				c-2.83-5.01-4.25-10.52-4.25-16.52c0-5.59,0.99-10.5,2.97-14.73c1.98-4.23,4.91-7.83,8.8-10.79c3.89-2.97,8.66-5.37,14.32-7.21
				c4.91-1.43,10.47-2.69,16.68-3.79c6.21-1.09,12.74-2.11,19.59-3.07c6.85-0.95,13.66-1.91,20.41-2.86l-7.78,4.3
				c0.14-8.66-1.69-15.09-5.47-19.29c-3.79-4.19-10.28-6.29-19.49-6.29c-5.8,0-11.12,1.35-15.96,4.04
				c-4.84,2.7-8.22,7.15-10.13,13.35l-19.95-6.14c2.73-9.48,7.93-17.02,15.6-22.61c7.67-5.59,17.89-8.39,30.64-8.39
				c9.89,0,18.5,1.69,25.83,5.06c7.33,3.38,12.7,8.71,16.11,16.01c1.77,3.62,2.86,7.43,3.27,11.46s0.61,8.36,0.61,12.99v68.03
				h-18.93v-25.27l3.68,3.27c-4.57,8.46-10.38,14.75-17.44,18.88C809.53,379.62,800.85,381.69,790.56,381.69z M794.34,364.19
				c6.07,0,11.29-1.07,15.65-3.22c4.36-2.15,7.88-4.89,10.54-8.24c2.66-3.34,4.4-6.82,5.22-10.44c1.16-3.27,1.82-6.96,2-11.05
				c0.17-4.09,0.26-7.37,0.26-9.82l6.96,2.56c-6.75,1.02-12.89,1.94-18.41,2.76c-5.52,0.82-10.52,1.62-14.99,2.4
				c-4.47,0.78-8.44,1.72-11.92,2.81c-2.93,1.02-5.54,2.25-7.83,3.68c-2.29,1.43-4.09,3.17-5.42,5.22c-1.33,2.05-2,4.54-2,7.47
				c0,2.86,0.72,5.51,2.15,7.93c1.43,2.42,3.61,4.35,6.55,5.78C786.02,363.48,789.77,364.19,794.34,364.19z"/>
			<path class="st407" d="M873.73,378.62V231.3h21.48v67.83h-2.46v79.49H873.73z M925.7,381.69c-10.57,0-19.44-2.58-26.6-7.72
				c-7.16-5.15-12.58-12.12-16.27-20.92c-3.68-8.8-5.52-18.72-5.52-29.77c0-11.05,1.82-20.97,5.47-29.77
				c3.65-8.8,9.04-15.74,16.16-20.82c7.13-5.08,15.91-7.62,26.34-7.62c10.37,0,19.32,2.54,26.86,7.62
				c7.54,5.08,13.35,12,17.44,20.77c4.09,8.76,6.14,18.71,6.14,29.82c0,11.05-2.03,20.99-6.09,29.82
				c-4.06,8.83-9.82,15.81-17.29,20.92C944.88,379.13,936,381.69,925.7,381.69z M922.73,362.35c6.82,0,12.46-1.74,16.93-5.22
				c4.47-3.48,7.81-8.17,10.03-14.07c2.21-5.9,3.32-12.5,3.32-19.8c0-7.23-1.11-13.78-3.32-19.64c-2.22-5.87-5.61-10.54-10.18-14.02
				c-4.57-3.48-10.4-5.22-17.49-5.22c-6.68,0-12.19,1.64-16.52,4.91c-4.33,3.27-7.54,7.84-9.62,13.71
				c-2.08,5.87-3.12,12.62-3.12,20.26c0,7.64,1.02,14.39,3.07,20.26s5.28,10.47,9.72,13.81
				C909.98,360.68,915.7,362.35,922.73,362.35z"/>
			<path class="st407" d="M998.23,250.02v-20.77h21.38v20.77H998.23z M998.23,378.62V268.13h21.38v110.49H998.23z"/>
			<path class="st407" d="M1050.3,378.62V228.23h21.38v150.39H1050.3z"/>
			<path class="st407" d="M1102.37,250.02v-20.77h21.38v20.77H1102.37z M1102.37,378.62V268.13h21.38v110.49H1102.37z"/>
			<path class="st407" d="M1140.12,285.31v-17.19h75.5v17.19H1140.12z M1215.63,378.62c-6.96,1.36-13.78,1.94-20.46,1.74
				c-6.68-0.2-12.65-1.5-17.9-3.89c-5.25-2.39-9.21-6.14-11.87-11.25c-2.39-4.57-3.67-9.22-3.84-13.97
				c-0.17-4.74-0.26-10.11-0.26-16.11v-97.7h21.48v96.68c0,4.44,0.05,8.29,0.15,11.56c0.1,3.27,0.8,6.04,2.1,8.29
				c2.46,4.23,6.36,6.63,11.71,7.21c5.35,0.58,11.65,0.36,18.88-0.67V378.62z"/>
			<path class="st407" d="M1248.67,427.72l21.38-58.21l0.31,17.19l-48.19-118.57h22.3l36.01,91.56h-6.55l34.37-91.56H1330
				l-60.97,159.6H1248.67z"/>
		</g>
	</g>
	<g>
		<g>
			<g>
				<polygon class="st3" points="452.73,392.52 278.44,480.53 278.44,304.5 452.73,216.48 				"/>
				<polygon class="st218" points="278.44,304.5 108,216.48 278.44,128.47 452.73,216.48 				"/>
			</g>
			<g>
				<polygon class="st404" points="108,392.52 278.44,480.53 278.44,304.5 108,216.48 				"/>
			</g>
		</g>
	</g>
</g>
</svg>
