<svg width="1920" height="1080" viewBox="0 0 1920 1080" fill="none" xmlns="http://www.w3.org/2000/svg">
	<g clip-path="url(#clip0_2381_4)">
		<rect width="1920" height="1080" fill="#0C0C1C"/>
		<path d="M210.101 162.527C207.452 162.527 205.062 162.067 202.934 161.152C200.806 160.235 199.053 158.924 197.677 157.221C196.301 155.515 195.408 153.49 194.997 151.141L200.588 150.292C201.152 152.553 202.332 154.314 204.127 155.573C205.922 156.831 208.018 157.462 210.41 157.462C211.896 157.462 213.265 157.226 214.514 156.756C215.762 156.284 216.765 155.608 217.527 154.726C218.287 153.844 218.668 152.786 218.668 151.553C218.668 150.885 218.552 150.294 218.322 149.779C218.091 149.264 217.775 148.814 217.372 148.43C216.97 148.046 216.482 147.712 215.91 147.428C215.336 147.144 214.709 146.9 214.025 146.694L204.561 143.893C203.639 143.619 202.698 143.262 201.741 142.825C200.783 142.388 199.906 141.815 199.111 141.104C198.316 140.393 197.669 139.511 197.176 138.456C196.679 137.404 196.431 136.122 196.431 134.612C196.431 132.334 197.018 130.402 198.188 128.816C199.359 127.231 200.946 126.033 202.947 125.219C204.947 124.405 207.186 123.998 209.665 123.998C212.162 124.033 214.398 124.478 216.371 125.334C218.347 126.191 219.989 127.42 221.295 129.022C222.604 130.625 223.504 132.565 224 134.843L218.254 135.821C217.998 134.434 217.449 133.238 216.612 132.236C215.775 131.233 214.749 130.462 213.533 129.922C212.32 129.382 211.004 129.103 209.585 129.085C208.216 129.05 206.965 129.256 205.827 129.703C204.689 130.148 203.784 130.774 203.11 131.58C202.433 132.386 202.097 133.311 202.097 134.356C202.097 135.384 202.395 136.215 202.994 136.848C203.593 137.481 204.333 137.984 205.213 138.353C206.093 138.722 206.97 139.026 207.843 139.265L214.664 141.192C215.519 141.433 216.489 141.752 217.575 142.157C218.66 142.559 219.711 143.122 220.728 143.84C221.746 144.559 222.589 145.516 223.255 146.707C223.922 147.897 224.256 149.392 224.256 151.191C224.256 153.058 223.88 154.701 223.128 156.113C222.375 157.527 221.345 158.708 220.036 159.66C218.728 160.612 217.219 161.326 215.509 161.806C213.802 162.285 211.999 162.527 210.101 162.527Z" fill="#7B5CFF"/>
		<path d="M226.131 138.313V133.994H245.058V138.313H226.131ZM245.058 161.755C243.313 162.097 241.604 162.243 239.929 162.192C238.254 162.142 236.758 161.816 235.442 161.215C234.126 160.615 233.133 159.673 232.466 158.389C231.867 157.241 231.546 156.072 231.503 154.879C231.461 153.688 231.438 152.339 231.438 150.832V126.286H236.823V150.575C236.823 151.691 236.836 152.658 236.861 153.48C236.886 154.301 237.061 154.997 237.387 155.562C238.004 156.625 238.981 157.228 240.323 157.374C241.664 157.519 243.243 157.464 245.056 157.205V161.755H245.058Z" fill="#7B5CFF"/>
		<path d="M258.19 162.527C256.139 162.527 254.42 162.145 253.036 161.383C251.652 160.622 250.604 159.61 249.895 158.351C249.185 157.092 248.829 155.708 248.829 154.201C248.829 152.796 249.077 151.563 249.574 150.5C250.07 149.437 250.805 148.533 251.78 147.789C252.755 147.043 253.951 146.44 255.37 145.978C256.601 145.619 257.994 145.302 259.551 145.026C261.108 144.752 262.745 144.496 264.462 144.254C266.18 144.016 267.887 143.775 269.579 143.536L267.629 144.616C267.664 142.441 267.205 140.825 266.257 139.77C265.307 138.717 263.68 138.19 261.371 138.19C259.917 138.19 258.584 138.529 257.37 139.205C256.157 139.883 255.31 141.001 254.831 142.559L249.829 141.016C250.514 138.634 251.817 136.74 253.74 135.336C255.663 133.931 258.225 133.228 261.421 133.228C263.901 133.228 266.059 133.652 267.897 134.499C269.735 135.348 271.081 136.687 271.936 138.521C272.379 139.431 272.653 140.388 272.755 141.4C272.858 142.413 272.908 143.501 272.908 144.664V161.755H268.163V155.407L269.085 156.228C267.94 158.354 266.483 159.934 264.713 160.971C262.946 162.006 260.77 162.527 258.19 162.527ZM259.138 158.13C260.659 158.13 261.968 157.861 263.061 157.321C264.154 156.781 265.037 156.092 265.703 155.251C266.37 154.412 266.806 153.537 267.012 152.628C267.303 151.806 267.468 150.879 267.513 149.852C267.556 148.824 267.579 148 267.579 147.385L269.323 148.028C267.631 148.284 266.092 148.515 264.708 148.721C263.324 148.927 262.071 149.128 260.95 149.324C259.83 149.52 258.834 149.756 257.962 150.03C257.227 150.287 256.573 150.596 255.999 150.955C255.425 151.314 254.974 151.751 254.64 152.266C254.307 152.781 254.139 153.407 254.139 154.143C254.139 154.861 254.319 155.527 254.678 156.135C255.036 156.743 255.583 157.228 256.32 157.587C257.052 157.952 257.992 158.13 259.138 158.13Z" fill="#7B5CFF"/>
		<path d="M279.04 161.755V124.744H284.425V141.785H283.808V161.755H279.04ZM292.069 162.526C289.419 162.526 287.195 161.878 285.4 160.587C283.605 159.293 282.246 157.542 281.321 155.331C280.399 153.12 279.938 150.628 279.938 147.852C279.938 145.076 280.394 142.584 281.309 140.373C282.224 138.162 283.575 136.419 285.36 135.142C287.148 133.866 289.349 133.228 291.963 133.228C294.563 133.228 296.807 133.866 298.697 135.142C300.587 136.419 302.044 138.157 303.069 140.36C304.094 142.561 304.608 145.061 304.608 147.852C304.608 150.628 304.099 153.125 303.082 155.344C302.064 157.562 300.62 159.316 298.747 160.6C296.877 161.883 294.651 162.526 292.069 162.526ZM291.324 157.668C293.034 157.668 294.448 157.231 295.568 156.356C296.689 155.482 297.526 154.304 298.083 152.821C298.637 151.339 298.915 149.681 298.915 147.847C298.915 146.031 298.637 144.385 298.083 142.913C297.526 141.438 296.676 140.265 295.531 139.391C294.385 138.516 292.924 138.079 291.146 138.079C289.471 138.079 288.09 138.491 287.005 139.313C285.919 140.134 285.114 141.282 284.593 142.757C284.071 144.232 283.811 145.928 283.811 147.847C283.811 149.766 284.066 151.462 284.58 152.937C285.094 154.412 285.904 155.567 287.017 156.406C288.128 157.248 289.562 157.668 291.324 157.668Z" fill="#7B5CFF"/>
		<path d="M310.251 129.447V124.229H315.611V129.447H310.251ZM310.251 161.755V133.997H315.611V161.755H310.251Z" fill="#7B5CFF"/>
		<path d="M323.305 161.755V123.973H328.665V161.755H323.305Z" fill="#7B5CFF"/>
		<path d="M336.358 129.447V124.229H341.718V129.447H336.358ZM336.358 161.755V133.997H341.718V161.755H336.358Z" fill="#7B5CFF"/>
		<path d="M345.822 138.313V133.994H364.75V138.313H345.822ZM364.752 161.755C363.007 162.097 361.298 162.243 359.623 162.192C357.948 162.142 356.452 161.816 355.136 161.215C353.819 160.615 352.827 159.673 352.16 158.389C351.561 157.241 351.24 156.072 351.197 154.879C351.155 153.688 351.132 152.339 351.132 150.832V126.286H356.517V150.575C356.517 151.691 356.529 152.658 356.555 153.48C356.58 154.301 356.755 154.997 357.081 155.562C357.698 156.625 358.675 157.228 360.017 157.374C361.358 157.519 362.937 157.464 364.75 157.205V161.755H364.752Z" fill="#7B5CFF"/>
		<path d="M373.035 174.091L378.395 159.467L378.473 163.785L366.392 133.997H371.982L381.01 156.999H379.368L387.984 133.997H393.424L378.139 174.093H373.035V174.091Z" fill="#7B5CFF"/>
		<path d="M173.497 165.664L129.804 190.124V141.2L173.497 116.736V165.664Z" fill="#612FFB"/>
		<path d="M129.804 141.2L87.0752 116.737L129.804 92.2758L173.497 116.737L129.804 141.2Z" fill="#8076FF"/>
		<path d="M87.0752 165.664L129.804 190.124V141.2L87.0752 116.736V165.664Z" fill="#151554"/>
		<g filter="url(#filter0_f_2381_4)">
			<path d="M1372.75 452.027V1632.9M1372.75 452.027L361 -136.901M1372.75 452.027L2399.59 -136.901" stroke="#7B5CFF" stroke-width="40"/>
		</g>
		<g filter="url(#filter1_f_2381_4)">
			<path d="M1372.75 452.027V1632.9M1372.75 452.027L361 -136.901M1372.75 452.027L2399.59 -136.901" stroke="#7B5CFF" stroke-width="40"/>
		</g>
		<g filter="url(#filter2_df_2381_4)">
			<path d="M1372.75 452.027V1632.9M1372.75 452.027L361 -136.901M1372.75 452.027L2399.59 -136.901" stroke="#7B5CFF" stroke-width="7"/>
		</g>
		<g filter="url(#filter3_df_2381_4)">
			<path d="M1372.75 452.027V1632.9M1372.75 452.027L361 -136.901M1372.75 452.027L2399.59 -136.901" stroke="#7B5CFF" stroke-width="3"/>
		</g>
		<g filter="url(#filter4_df_2381_4)">
			<path d="M1372.75 452.027V1632.9M1372.75 452.027L361 -136.901M1372.75 452.027L2399.59 -136.901" stroke="#7B5CFF" stroke-width="2"/>
		</g>
		<g filter="url(#filter5_ddddd_2381_4)">
			<path d="M94.8 805L128.54 704.2H145.9L179.64 805H166.69L135.12 711.48H139.04L107.75 805H94.8ZM111.04 781.41V769.72H163.4V781.41H111.04ZM188.108 805V704.2H200.568V805H188.108ZM214.571 766.01V755.72H256.571V766.01H214.571ZM298.84 807.1C291.793 807.1 285.75 805.35 280.71 801.85C275.67 798.303 271.773 793.52 269.02 787.5C266.313 781.48 264.96 774.69 264.96 767.13C264.96 759.57 266.313 752.78 269.02 746.76C271.773 740.74 275.67 736.003 280.71 732.55C285.75 729.05 291.77 727.3 298.77 727.3C305.91 727.3 311.907 729.027 316.76 732.48C321.613 735.933 325.277 740.67 327.75 746.69C330.27 752.71 331.53 759.523 331.53 767.13C331.53 774.643 330.27 781.433 327.75 787.5C325.277 793.52 321.613 798.303 316.76 801.85C311.907 805.35 305.933 807.1 298.84 807.1ZM300.38 795.69C305.467 795.69 309.643 794.477 312.91 792.05C316.177 789.577 318.58 786.193 320.12 781.9C321.707 777.56 322.5 772.637 322.5 767.13C322.5 761.53 321.707 756.607 320.12 752.36C318.58 748.067 316.2 744.73 312.98 742.35C309.76 739.923 305.677 738.71 300.73 738.71C295.597 738.71 291.35 739.97 287.99 742.49C284.677 745.01 282.203 748.417 280.57 752.71C278.983 757.003 278.19 761.81 278.19 767.13C278.19 772.497 279.007 777.35 280.64 781.69C282.273 785.983 284.723 789.39 287.99 791.91C291.303 794.43 295.433 795.69 300.38 795.69ZM322.5 805V749.35H321.1V704.2H333.63V805H322.5ZM347.642 805V729.4H358.772V747.67L356.952 745.29C357.839 742.957 358.982 740.81 360.382 738.85C361.829 736.89 363.439 735.28 365.212 734.02C367.172 732.433 369.389 731.22 371.862 730.38C374.336 729.54 376.856 729.05 379.422 728.91C381.989 728.723 384.392 728.887 386.632 729.4V741.09C384.019 740.39 381.149 740.203 378.022 740.53C374.896 740.857 372.002 742 369.342 743.96C366.916 745.687 365.026 747.787 363.672 750.26C362.366 752.733 361.456 755.417 360.942 758.31C360.429 761.157 360.172 764.073 360.172 767.06V805H347.642ZM395.669 716.03V703.15H408.129V716.03H395.669ZM395.669 805V729.4H408.129V805H395.669ZM443.972 805L416.532 729.4H429.132L450.342 789.11L471.482 729.4H484.152L456.712 805H443.972ZM521.239 807.1C513.819 807.1 507.332 805.467 501.779 802.2C496.272 798.887 491.979 794.29 488.899 788.41C485.819 782.483 484.279 775.577 484.279 767.69C484.279 759.43 485.796 752.29 488.829 746.27C491.862 740.203 496.086 735.537 501.499 732.27C506.959 728.957 513.352 727.3 520.679 727.3C528.286 727.3 534.749 729.05 540.069 732.55C545.436 736.05 549.449 741.043 552.109 747.53C554.816 754.017 555.982 761.74 555.609 770.7H543.009V766.22C542.869 756.933 540.979 750.003 537.339 745.43C533.699 740.81 528.286 738.5 521.099 738.5C513.399 738.5 507.542 740.973 503.529 745.92C499.516 750.867 497.509 757.96 497.509 767.2C497.509 776.113 499.516 783.02 503.529 787.92C507.542 792.82 513.259 795.27 520.679 795.27C525.672 795.27 530.012 794.127 533.699 791.84C537.386 789.553 540.279 786.263 542.379 781.97L554.349 786.1C551.409 792.773 546.976 797.953 541.049 801.64C535.169 805.28 528.566 807.1 521.239 807.1ZM493.309 770.7V760.69H549.169V770.7H493.309ZM617.373 805V767.13C617.373 763.537 617.046 760.083 616.393 756.77C615.786 753.457 614.69 750.493 613.103 747.88C611.563 745.22 609.463 743.12 606.803 741.58C604.19 740.04 600.876 739.27 596.863 739.27C593.736 739.27 590.89 739.807 588.323 740.88C585.803 741.907 583.633 743.493 581.813 745.64C579.993 747.787 578.57 750.493 577.543 753.76C576.563 756.98 576.073 760.783 576.073 765.17L567.883 762.65C567.883 755.323 569.19 749.047 571.803 743.82C574.463 738.547 578.173 734.51 582.933 731.71C587.74 728.863 593.386 727.44 599.873 727.44C604.773 727.44 608.95 728.21 612.403 729.75C615.856 731.29 618.726 733.343 621.013 735.91C623.3 738.43 625.096 741.277 626.403 744.45C627.71 747.577 628.62 750.773 629.133 754.04C629.693 757.26 629.973 760.317 629.973 763.21V805H617.373ZM563.473 805V729.4H574.673V749.63H576.073V805H563.473ZM706.439 807.1C696.406 807.1 687.889 804.883 680.889 800.45C673.889 796.017 668.546 789.857 664.859 781.97C661.219 774.083 659.399 764.96 659.399 754.6C659.399 744.24 661.219 735.117 664.859 727.23C668.546 719.343 673.889 713.183 680.889 708.75C687.889 704.317 696.406 702.1 706.439 702.1C716.519 702.1 725.059 704.317 732.059 708.75C739.059 713.183 744.379 719.343 748.019 727.23C751.659 735.117 753.479 744.24 753.479 754.6C753.479 764.96 751.659 774.083 748.019 781.97C744.379 789.857 739.059 796.017 732.059 800.45C725.059 804.883 716.519 807.1 706.439 807.1ZM706.439 795.2C713.953 795.247 720.206 793.567 725.199 790.16C730.239 786.707 733.996 781.923 736.469 775.81C738.989 769.697 740.249 762.627 740.249 754.6C740.249 746.527 738.989 739.457 736.469 733.39C733.996 727.323 730.239 722.587 725.199 719.18C720.206 715.773 713.953 714.047 706.439 714C698.926 713.953 692.673 715.633 687.679 719.04C682.733 722.447 678.999 727.207 676.479 733.32C673.959 739.433 672.676 746.527 672.629 754.6C672.583 762.627 673.819 769.673 676.339 775.74C678.859 781.807 682.616 786.567 687.609 790.02C692.649 793.427 698.926 795.153 706.439 795.2ZM815.768 805V767.13C815.768 763.537 815.442 760.083 814.788 756.77C814.182 753.457 813.085 750.493 811.498 747.88C809.958 745.22 807.858 743.12 805.198 741.58C802.585 740.04 799.272 739.27 795.258 739.27C792.132 739.27 789.285 739.807 786.718 740.88C784.198 741.907 782.028 743.493 780.208 745.64C778.388 747.787 776.965 750.493 775.938 753.76C774.958 756.98 774.468 760.783 774.468 765.17L766.278 762.65C766.278 755.323 767.585 749.047 770.198 743.82C772.858 738.547 776.568 734.51 781.328 731.71C786.135 728.863 791.782 727.44 798.268 727.44C803.168 727.44 807.345 728.21 810.798 729.75C814.252 731.29 817.122 733.343 819.408 735.91C821.695 738.43 823.492 741.277 824.798 744.45C826.105 747.577 827.015 750.773 827.528 754.04C828.088 757.26 828.368 760.317 828.368 763.21V805H815.768ZM761.868 805V729.4H773.068V749.63H774.468V805H761.868ZM839.567 766.01V755.72H881.567V766.01H839.567ZM935.596 807.1C925.563 807.1 917.046 804.883 910.046 800.45C903.046 796.017 897.703 789.857 894.016 781.97C890.376 774.083 888.556 764.96 888.556 754.6C888.556 744.24 890.376 735.117 894.016 727.23C897.703 719.343 903.046 713.183 910.046 708.75C917.046 704.317 925.563 702.1 935.596 702.1C947.263 702.1 956.853 705.063 964.366 710.99C971.926 716.917 977.13 724.897 979.976 734.93L967.306 738.29C965.253 730.777 961.59 724.85 956.316 720.51C951.043 716.17 944.136 714 935.596 714C928.083 714 921.83 715.703 916.836 719.11C911.843 722.517 908.086 727.277 905.566 733.39C903.046 739.457 901.763 746.527 901.716 754.6C901.67 762.627 902.906 769.697 905.426 775.81C907.946 781.877 911.726 786.637 916.766 790.09C921.806 793.497 928.083 795.2 935.596 795.2C944.136 795.2 951.043 793.03 956.316 788.69C961.59 784.303 965.253 778.377 967.306 770.91L979.976 774.27C977.13 784.257 971.926 792.237 964.366 798.21C956.853 804.137 947.263 807.1 935.596 807.1ZM1043.56 805V767.13C1043.56 763.537 1043.23 760.083 1042.58 756.77C1041.97 753.457 1040.87 750.493 1039.29 747.88C1037.75 745.22 1035.65 743.12 1032.99 741.58C1030.37 740.04 1027.06 739.27 1023.05 739.27C1019.92 739.27 1017.07 739.807 1014.51 740.88C1011.99 741.907 1009.82 743.493 1008 745.64C1006.18 747.787 1004.75 750.493 1003.73 753.76C1002.75 756.98 1002.26 760.783 1002.26 765.17L994.068 762.65C994.068 755.323 995.375 749.047 997.988 743.82C1000.65 738.547 1004.36 734.51 1009.12 731.71C1013.92 728.863 1019.57 727.44 1026.06 727.44C1030.96 727.44 1035.13 728.21 1038.59 729.75C1042.04 731.29 1044.91 733.343 1047.2 735.91C1049.48 738.43 1051.28 741.277 1052.59 744.45C1053.89 747.577 1054.8 750.773 1055.32 754.04C1055.88 757.26 1056.16 760.317 1056.16 763.21V805H1043.56ZM989.658 805V704.2H1000.86V759.85H1002.26V805H989.658ZM1090.25 807.1C1084.6 807.1 1079.86 806.073 1076.04 804.02C1072.26 801.92 1069.39 799.167 1067.43 795.76C1065.51 792.353 1064.56 788.62 1064.56 784.56C1064.56 780.593 1065.3 777.163 1066.8 774.27C1068.34 771.33 1070.48 768.903 1073.24 766.99C1075.99 765.03 1079.28 763.49 1083.11 762.37C1086.7 761.39 1090.71 760.55 1095.15 759.85C1099.63 759.103 1104.15 758.427 1108.73 757.82C1113.3 757.213 1117.57 756.63 1121.54 756.07L1117.06 758.66C1117.2 751.94 1115.84 746.97 1113 743.75C1110.2 740.53 1105.34 738.92 1098.44 738.92C1093.86 738.92 1089.85 739.97 1086.4 742.07C1082.99 744.123 1080.59 747.483 1079.19 752.15L1067.36 748.58C1069.18 741.953 1072.7 736.75 1077.93 732.97C1083.15 729.19 1090.04 727.3 1098.58 727.3C1105.44 727.3 1111.32 728.537 1116.22 731.01C1121.16 733.437 1124.71 737.123 1126.86 742.07C1127.93 744.403 1128.61 746.947 1128.89 749.7C1129.17 752.407 1129.31 755.253 1129.31 758.24V805H1118.25V786.87L1120.84 788.55C1117.99 794.663 1114 799.283 1108.87 802.41C1103.78 805.537 1097.57 807.1 1090.25 807.1ZM1092.14 796.67C1096.62 796.67 1100.49 795.877 1103.76 794.29C1107.07 792.657 1109.73 790.533 1111.74 787.92C1113.74 785.26 1115.05 782.367 1115.66 779.24C1116.36 776.907 1116.73 774.317 1116.78 771.47C1116.87 768.577 1116.92 766.36 1116.92 764.82L1121.26 766.71C1117.2 767.27 1113.21 767.807 1109.29 768.32C1105.37 768.833 1101.66 769.393 1098.16 770C1094.66 770.56 1091.51 771.237 1088.71 772.03C1086.65 772.683 1084.72 773.523 1082.9 774.55C1081.12 775.577 1079.68 776.907 1078.56 778.54C1077.48 780.127 1076.95 782.11 1076.95 784.49C1076.95 786.543 1077.46 788.503 1078.49 790.37C1079.56 792.237 1081.19 793.753 1083.39 794.92C1085.63 796.087 1088.54 796.67 1092.14 796.67ZM1143.31 716.03V703.15H1155.77V716.03H1143.31ZM1143.31 805V729.4H1155.77V805H1143.31ZM1225 805V767.13C1225 763.537 1224.67 760.083 1224.02 756.77C1223.41 753.457 1222.32 750.493 1220.73 747.88C1219.19 745.22 1217.09 743.12 1214.43 741.58C1211.82 740.04 1208.5 739.27 1204.49 739.27C1201.36 739.27 1198.52 739.807 1195.95 740.88C1193.43 741.907 1191.26 743.493 1189.44 745.64C1187.62 747.787 1186.2 750.493 1185.17 753.76C1184.19 756.98 1183.7 760.783 1183.7 765.17L1175.51 762.65C1175.51 755.323 1176.82 749.047 1179.43 743.82C1182.09 738.547 1185.8 734.51 1190.56 731.71C1195.37 728.863 1201.01 727.44 1207.5 727.44C1212.4 727.44 1216.58 728.21 1220.03 729.75C1223.48 731.29 1226.35 733.343 1228.64 735.91C1230.93 738.43 1232.72 741.277 1234.03 744.45C1235.34 747.577 1236.25 750.773 1236.76 754.04C1237.32 757.26 1237.6 760.317 1237.6 763.21V805H1225ZM1171.1 805V729.4H1182.3V749.63H1183.7V805H1171.1ZM94.8 973L128.54 872.2H145.9L179.64 973H166.69L135.12 879.48H139.04L107.75 973H94.8ZM111.04 949.41V937.72H163.4V949.41H111.04ZM215.268 975.03C206.261 975.03 198.864 973.07 193.078 969.15C187.338 965.183 183.814 959.653 182.508 952.56L195.248 950.53C196.274 954.637 198.631 957.903 202.318 960.33C206.004 962.71 210.578 963.9 216.038 963.9C221.218 963.9 225.278 962.827 228.218 960.68C231.158 958.533 232.628 955.617 232.628 951.93C232.628 949.783 232.138 948.057 231.158 946.75C230.178 945.397 228.148 944.137 225.068 942.97C222.034 941.803 217.438 940.403 211.278 938.77C204.604 936.997 199.354 935.153 195.528 933.24C191.701 931.327 188.971 929.11 187.338 926.59C185.704 924.07 184.888 921.013 184.888 917.42C184.888 912.987 186.101 909.113 188.528 905.8C190.954 902.44 194.338 899.85 198.678 898.03C203.064 896.21 208.151 895.3 213.938 895.3C219.678 895.3 224.811 896.21 229.338 898.03C233.864 899.85 237.504 902.44 240.258 905.8C243.058 909.113 244.714 912.987 245.228 917.42L232.488 919.73C231.881 915.67 229.921 912.473 226.608 910.14C223.341 907.807 219.118 906.57 213.938 906.43C209.038 906.243 205.048 907.107 201.968 909.02C198.934 910.933 197.418 913.523 197.418 916.79C197.418 918.61 197.978 920.173 199.098 921.48C200.264 922.787 202.388 924.023 205.468 925.19C208.594 926.357 213.121 927.687 219.048 929.18C225.721 930.86 230.971 932.703 234.798 934.71C238.671 936.67 241.424 939.003 243.058 941.71C244.691 944.37 245.508 947.66 245.508 951.58C245.508 958.86 242.824 964.6 237.458 968.8C232.091 972.953 224.694 975.03 215.268 975.03ZM283.906 975.03C274.899 975.03 267.503 973.07 261.716 969.15C255.976 965.183 252.453 959.653 251.146 952.56L263.886 950.53C264.913 954.637 267.269 957.903 270.956 960.33C274.643 962.71 279.216 963.9 284.676 963.9C289.856 963.9 293.916 962.827 296.856 960.68C299.796 958.533 301.266 955.617 301.266 951.93C301.266 949.783 300.776 948.057 299.796 946.75C298.816 945.397 296.786 944.137 293.706 942.97C290.673 941.803 286.076 940.403 279.916 938.77C273.243 936.997 267.993 935.153 264.166 933.24C260.339 931.327 257.609 929.11 255.976 926.59C254.343 924.07 253.526 921.013 253.526 917.42C253.526 912.987 254.739 909.113 257.166 905.8C259.593 902.44 262.976 899.85 267.316 898.03C271.703 896.21 276.789 895.3 282.576 895.3C288.316 895.3 293.449 896.21 297.976 898.03C302.503 899.85 306.143 902.44 308.896 905.8C311.696 909.113 313.353 912.987 313.866 917.42L301.126 919.73C300.519 915.67 298.559 912.473 295.246 910.14C291.979 907.807 287.756 906.57 282.576 906.43C277.676 906.243 273.686 907.107 270.606 909.02C267.573 910.933 266.056 913.523 266.056 916.79C266.056 918.61 266.616 920.173 267.736 921.48C268.903 922.787 271.026 924.023 274.106 925.19C277.233 926.357 281.759 927.687 287.686 929.18C294.359 930.86 299.609 932.703 303.436 934.71C307.309 936.67 310.063 939.003 311.696 941.71C313.329 944.37 314.146 947.66 314.146 951.58C314.146 958.86 311.463 964.6 306.096 968.8C300.729 972.953 293.333 975.03 283.906 975.03ZM356.744 975.1C349.324 975.1 342.838 973.467 337.284 970.2C331.778 966.887 327.484 962.29 324.404 956.41C321.324 950.483 319.784 943.577 319.784 935.69C319.784 927.43 321.301 920.29 324.334 914.27C327.368 908.203 331.591 903.537 337.004 900.27C342.464 896.957 348.858 895.3 356.184 895.3C363.791 895.3 370.254 897.05 375.574 900.55C380.941 904.05 384.954 909.043 387.614 915.53C390.321 922.017 391.488 929.74 391.114 938.7H378.514V934.22C378.374 924.933 376.484 918.003 372.844 913.43C369.204 908.81 363.791 906.5 356.604 906.5C348.904 906.5 343.048 908.973 339.034 913.92C335.021 918.867 333.014 925.96 333.014 935.2C333.014 944.113 335.021 951.02 339.034 955.92C343.048 960.82 348.764 963.27 356.184 963.27C361.178 963.27 365.518 962.127 369.204 959.84C372.891 957.553 375.784 954.263 377.884 949.97L389.854 954.1C386.914 960.773 382.481 965.953 376.554 969.64C370.674 973.28 364.071 975.1 356.744 975.1ZM328.814 938.7V928.69H384.674V938.7H328.814ZM443.309 973C438.829 973.887 434.396 974.237 430.009 974.05C425.669 973.91 421.796 973.047 418.389 971.46C414.983 969.827 412.393 967.307 410.619 963.9C409.126 960.913 408.309 957.903 408.169 954.87C408.076 951.79 408.029 948.313 408.029 944.44V876.4H420.489V943.88C420.489 946.96 420.513 949.597 420.559 951.79C420.653 953.983 421.143 955.873 422.029 957.46C423.709 960.447 426.369 962.197 430.009 962.71C433.696 963.223 438.129 963.083 443.309 962.29V973ZM392.699 907.69V897.4H443.309V907.69H392.699ZM475.485 973V872.2H486.825L524.905 952.49L562.775 872.2H574.255V972.93H562.425V899.57L528.195 973H521.545L487.315 899.57V973H475.485ZM609.774 975.1C604.127 975.1 599.39 974.073 595.564 972.02C591.784 969.92 588.914 967.167 586.954 963.76C585.04 960.353 584.084 956.62 584.084 952.56C584.084 948.593 584.83 945.163 586.324 942.27C587.864 939.33 590.01 936.903 592.764 934.99C595.517 933.03 598.807 931.49 602.634 930.37C606.227 929.39 610.24 928.55 614.674 927.85C619.154 927.103 623.68 926.427 628.254 925.82C632.827 925.213 637.097 924.63 641.064 924.07L636.584 926.66C636.724 919.94 635.37 914.97 632.524 911.75C629.724 908.53 624.87 906.92 617.964 906.92C613.39 906.92 609.377 907.97 605.924 910.07C602.517 912.123 600.114 915.483 598.714 920.15L586.884 916.58C588.704 909.953 592.227 904.75 597.454 900.97C602.68 897.19 609.564 895.3 618.104 895.3C624.964 895.3 630.844 896.537 635.744 899.01C640.69 901.437 644.237 905.123 646.384 910.07C647.457 912.403 648.134 914.947 648.414 917.7C648.694 920.407 648.834 923.253 648.834 926.24V973H637.774V954.87L640.364 956.55C637.517 962.663 633.527 967.283 628.394 970.41C623.307 973.537 617.1 975.1 609.774 975.1ZM611.664 964.67C616.144 964.67 620.017 963.877 623.284 962.29C626.597 960.657 629.257 958.533 631.264 955.92C633.27 953.26 634.577 950.367 635.184 947.24C635.884 944.907 636.257 942.317 636.304 939.47C636.397 936.577 636.444 934.36 636.444 932.82L640.784 934.71C636.724 935.27 632.734 935.807 628.814 936.32C624.894 936.833 621.184 937.393 617.684 938C614.184 938.56 611.034 939.237 608.234 940.03C606.18 940.683 604.244 941.523 602.424 942.55C600.65 943.577 599.204 944.907 598.084 946.54C597.01 948.127 596.474 950.11 596.474 952.49C596.474 954.543 596.987 956.503 598.014 958.37C599.087 960.237 600.72 961.753 602.914 962.92C605.154 964.087 608.07 964.67 611.664 964.67ZM715.264 973V935.13C715.264 931.537 714.937 928.083 714.284 924.77C713.677 921.457 712.58 918.493 710.994 915.88C709.454 913.22 707.354 911.12 704.694 909.58C702.08 908.04 698.767 907.27 694.754 907.27C691.627 907.27 688.78 907.807 686.214 908.88C683.694 909.907 681.524 911.493 679.704 913.64C677.884 915.787 676.46 918.493 675.434 921.76C674.454 924.98 673.964 928.783 673.964 933.17L665.774 930.65C665.774 923.323 667.08 917.047 669.694 911.82C672.354 906.547 676.064 902.51 680.824 899.71C685.63 896.863 691.277 895.44 697.764 895.44C702.664 895.44 706.84 896.21 710.294 897.75C713.747 899.29 716.617 901.343 718.904 903.91C721.19 906.43 722.987 909.277 724.294 912.45C725.6 915.577 726.51 918.773 727.024 922.04C727.584 925.26 727.864 928.317 727.864 931.21V973H715.264ZM661.364 973V897.4H672.564V917.63H673.964V973H661.364ZM761.952 975.1C756.306 975.1 751.569 974.073 747.742 972.02C743.962 969.92 741.092 967.167 739.132 963.76C737.219 960.353 736.262 956.62 736.262 952.56C736.262 948.593 737.009 945.163 738.502 942.27C740.042 939.33 742.189 936.903 744.942 934.99C747.696 933.03 750.986 931.49 754.812 930.37C758.406 929.39 762.419 928.55 766.852 927.85C771.332 927.103 775.859 926.427 780.432 925.82C785.006 925.213 789.276 924.63 793.242 924.07L788.762 926.66C788.902 919.94 787.549 914.97 784.702 911.75C781.902 908.53 777.049 906.92 770.142 906.92C765.569 906.92 761.556 907.97 758.102 910.07C754.696 912.123 752.292 915.483 750.892 920.15L739.062 916.58C740.882 909.953 744.406 904.75 749.632 900.97C754.859 897.19 761.742 895.3 770.282 895.3C777.142 895.3 783.022 896.537 787.922 899.01C792.869 901.437 796.416 905.123 798.562 910.07C799.636 912.403 800.312 914.947 800.592 917.7C800.872 920.407 801.012 923.253 801.012 926.24V973H789.952V954.87L792.542 956.55C789.696 962.663 785.706 967.283 780.572 970.41C775.486 973.537 769.279 975.1 761.952 975.1ZM763.842 964.67C768.322 964.67 772.196 963.877 775.462 962.29C778.776 960.657 781.436 958.533 783.442 955.92C785.449 953.26 786.756 950.367 787.362 947.24C788.062 944.907 788.436 942.317 788.482 939.47C788.576 936.577 788.622 934.36 788.622 932.82L792.962 934.71C788.902 935.27 784.912 935.807 780.992 936.32C777.072 936.833 773.362 937.393 769.862 938C766.362 938.56 763.212 939.237 760.412 940.03C758.359 940.683 756.422 941.523 754.602 942.55C752.829 943.577 751.382 944.907 750.262 946.54C749.189 948.127 748.652 950.11 748.652 952.49C748.652 954.543 749.166 956.503 750.192 958.37C751.266 960.237 752.899 961.753 755.092 962.92C757.332 964.087 760.249 964.67 763.842 964.67ZM844.203 1008.7C840.236 1008.7 836.363 1008.09 832.583 1006.88C828.803 1005.67 825.326 1003.82 822.153 1001.35C819.026 998.923 816.413 995.843 814.313 992.11L825.723 986.09C827.589 989.777 830.226 992.46 833.633 994.14C837.086 995.82 840.633 996.66 844.273 996.66C849.079 996.66 853.069 995.773 856.243 994C859.416 992.273 861.749 989.683 863.243 986.23C864.783 982.777 865.529 978.483 865.483 973.35V952.7H866.953V897.4H878.013V973.49C878.013 975.543 877.943 977.527 877.803 979.44C877.709 981.353 877.476 983.243 877.103 985.11C876.123 990.477 874.186 994.887 871.293 998.34C868.399 1001.84 864.666 1004.43 860.093 1006.11C855.519 1007.84 850.223 1008.7 844.203 1008.7ZM843.293 975.1C836.246 975.1 830.203 973.35 825.163 969.85C820.123 966.303 816.226 961.52 813.473 955.5C810.766 949.48 809.413 942.69 809.413 935.13C809.413 927.57 810.766 920.78 813.473 914.76C816.226 908.74 820.123 904.003 825.163 900.55C830.203 897.05 836.223 895.3 843.223 895.3C850.363 895.3 856.359 897.027 861.213 900.48C866.066 903.933 869.729 908.67 872.203 914.69C874.723 920.71 875.983 927.523 875.983 935.13C875.983 942.643 874.723 949.433 872.203 955.5C869.729 961.52 866.066 966.303 861.213 969.85C856.359 973.35 850.386 975.1 843.293 975.1ZM844.833 963.69C849.919 963.69 854.096 962.477 857.363 960.05C860.629 957.577 863.033 954.193 864.573 949.9C866.159 945.56 866.953 940.637 866.953 935.13C866.953 929.53 866.159 924.607 864.573 920.36C863.033 916.067 860.653 912.73 857.433 910.35C854.213 907.923 850.129 906.71 845.183 906.71C840.049 906.71 835.803 907.97 832.443 910.49C829.129 913.01 826.656 916.417 825.023 920.71C823.436 925.003 822.643 929.81 822.643 935.13C822.643 940.497 823.459 945.35 825.093 949.69C826.726 953.983 829.176 957.39 832.443 959.91C835.756 962.43 839.886 963.69 844.833 963.69ZM924.718 975.1C917.298 975.1 910.811 973.467 905.258 970.2C899.751 966.887 895.458 962.29 892.378 956.41C889.298 950.483 887.758 943.577 887.758 935.69C887.758 927.43 889.275 920.29 892.308 914.27C895.341 908.203 899.565 903.537 904.978 900.27C910.438 896.957 916.831 895.3 924.158 895.3C931.765 895.3 938.228 897.05 943.548 900.55C948.915 904.05 952.928 909.043 955.588 915.53C958.295 922.017 959.461 929.74 959.088 938.7H946.488V934.22C946.348 924.933 944.458 918.003 940.818 913.43C937.178 908.81 931.765 906.5 924.578 906.5C916.878 906.5 911.021 908.973 907.008 913.92C902.995 918.867 900.988 925.96 900.988 935.2C900.988 944.113 902.995 951.02 907.008 955.92C911.021 960.82 916.738 963.27 924.158 963.27C929.151 963.27 933.491 962.127 937.178 959.84C940.865 957.553 943.758 954.263 945.858 949.97L957.828 954.1C954.888 960.773 950.455 965.953 944.528 969.64C938.648 973.28 932.045 975.1 924.718 975.1ZM896.788 938.7V928.69H952.648V938.7H896.788ZM969.073 973V897.4H980.203V915.67L978.383 913.29C979.269 910.957 980.413 908.81 981.813 906.85C983.259 904.89 984.869 903.28 986.643 902.02C988.603 900.433 990.819 899.22 993.293 898.38C995.766 897.54 998.286 897.05 1000.85 896.91C1003.42 896.723 1005.82 896.887 1008.06 897.4V909.09C1005.45 908.39 1002.58 908.203 999.453 908.53C996.326 908.857 993.433 910 990.773 911.96C988.346 913.687 986.456 915.787 985.103 918.26C983.796 920.733 982.886 923.417 982.373 926.31C981.859 929.157 981.603 932.073 981.603 935.06V973H969.073Z" fill="white"/>
		</g>
	</g>
	<defs>
		<filter id="filter0_f_2381_4" x="-149.062" y="-654.25" width="3058.61" height="2787.15" filterUnits="userSpaceOnUse" color-interpolation-filters="sRGB">
			<feFlood flood-opacity="0" result="BackgroundImageFix"/>
			<feBlend mode="normal" in="SourceGraphic" in2="BackgroundImageFix" result="shape"/>
			<feGaussianBlur stdDeviation="250" result="effect1_foregroundBlur_2381_4"/>
		</filter>
		<filter id="filter1_f_2381_4" x="-149.062" y="-654.25" width="3058.61" height="2787.15" filterUnits="userSpaceOnUse" color-interpolation-filters="sRGB">
			<feFlood flood-opacity="0" result="BackgroundImageFix"/>
			<feBlend mode="normal" in="SourceGraphic" in2="BackgroundImageFix" result="shape"/>
			<feGaussianBlur stdDeviation="250" result="effect1_foregroundBlur_2381_4"/>
		</filter>
		<filter id="filter2_df_2381_4" x="334.239" y="-164.937" width="2092.1" height="1822.84" filterUnits="userSpaceOnUse" color-interpolation-filters="sRGB">
			<feFlood flood-opacity="0" result="BackgroundImageFix"/>
			<feColorMatrix in="SourceAlpha" type="matrix" values="0 0 0 0 0 0 0 0 0 0 0 0 0 0 0 0 0 0 127 0" result="hardAlpha"/>
			<feOffset/>
			<feGaussianBlur stdDeviation="5"/>
			<feComposite in2="hardAlpha" operator="out"/>
			<feColorMatrix type="matrix" values="0 0 0 0 0.380392 0 0 0 0 0.184314 0 0 0 0 0.984314 0 0 0 1 0"/>
			<feBlend mode="normal" in2="BackgroundImageFix" result="effect1_dropShadow_2381_4"/>
			<feBlend mode="normal" in="SourceGraphic" in2="effect1_dropShadow_2381_4" result="shape"/>
			<feGaussianBlur stdDeviation="12.5" result="effect2_foregroundBlur_2381_4"/>
		</filter>
		<filter id="filter3_df_2381_4" x="310.245" y="-188.202" width="2140.1" height="1871.1" filterUnits="userSpaceOnUse" color-interpolation-filters="sRGB">
			<feFlood flood-opacity="0" result="BackgroundImageFix"/>
			<feColorMatrix in="SourceAlpha" type="matrix" values="0 0 0 0 0 0 0 0 0 0 0 0 0 0 0 0 0 0 127 0" result="hardAlpha"/>
			<feOffset/>
			<feGaussianBlur stdDeviation="25"/>
			<feComposite in2="hardAlpha" operator="out"/>
			<feColorMatrix type="matrix" values="0 0 0 0 0.380392 0 0 0 0 0.184314 0 0 0 0 0.984314 0 0 0 1 0"/>
			<feBlend mode="normal" in2="BackgroundImageFix" result="effect1_dropShadow_2381_4"/>
			<feBlend mode="normal" in="SourceGraphic" in2="effect1_dropShadow_2381_4" result="shape"/>
			<feGaussianBlur stdDeviation="5" result="effect2_foregroundBlur_2381_4"/>
		</filter>
		<filter id="filter4_df_2381_4" x="310.497" y="-187.768" width="2139.59" height="1870.67" filterUnits="userSpaceOnUse" color-interpolation-filters="sRGB">
			<feFlood flood-opacity="0" result="BackgroundImageFix"/>
			<feColorMatrix in="SourceAlpha" type="matrix" values="0 0 0 0 0 0 0 0 0 0 0 0 0 0 0 0 0 0 127 0" result="hardAlpha"/>
			<feOffset/>
			<feGaussianBlur stdDeviation="25"/>
			<feComposite in2="hardAlpha" operator="out"/>
			<feColorMatrix type="matrix" values="0 0 0 0 0.380392 0 0 0 0 0.184314 0 0 0 0 0.984314 0 0 0 1 0"/>
			<feBlend mode="normal" in2="BackgroundImageFix" result="effect1_dropShadow_2381_4"/>
			<feBlend mode="normal" in="SourceGraphic" in2="effect1_dropShadow_2381_4" result="shape"/>
			<feGaussianBlur stdDeviation="0.5" result="effect2_foregroundBlur_2381_4"/>
		</filter>
		<filter id="filter5_ddddd_2381_4" x="-120.2" y="665.1" width="1572.8" height="1327.6" filterUnits="userSpaceOnUse" color-interpolation-filters="sRGB">
			<feFlood flood-opacity="0" result="BackgroundImageFix"/>
			<feColorMatrix in="SourceAlpha" type="matrix" values="0 0 0 0 0 0 0 0 0 0 0 0 0 0 0 0 0 0 127 0" result="hardAlpha"/>
			<feOffset dy="31"/>
			<feGaussianBlur stdDeviation="34"/>
			<feColorMatrix type="matrix" values="0 0 0 0 0 0 0 0 0 0 0 0 0 0 0 0 0 0 0.45 0"/>
			<feBlend mode="normal" in2="BackgroundImageFix" result="effect1_dropShadow_2381_4"/>
			<feColorMatrix in="SourceAlpha" type="matrix" values="0 0 0 0 0 0 0 0 0 0 0 0 0 0 0 0 0 0 127 0" result="hardAlpha"/>
			<feOffset dy="123"/>
			<feGaussianBlur stdDeviation="61.5"/>
			<feColorMatrix type="matrix" values="0 0 0 0 0 0 0 0 0 0 0 0 0 0 0 0 0 0 0.39 0"/>
			<feBlend mode="normal" in2="effect1_dropShadow_2381_4" result="effect2_dropShadow_2381_4"/>
			<feColorMatrix in="SourceAlpha" type="matrix" values="0 0 0 0 0 0 0 0 0 0 0 0 0 0 0 0 0 0 127 0" result="hardAlpha"/>
			<feOffset dy="277"/>
			<feGaussianBlur stdDeviation="83"/>
			<feColorMatrix type="matrix" values="0 0 0 0 0 0 0 0 0 0 0 0 0 0 0 0 0 0 0.23 0"/>
			<feBlend mode="normal" in2="effect2_dropShadow_2381_4" result="effect3_dropShadow_2381_4"/>
			<feColorMatrix in="SourceAlpha" type="matrix" values="0 0 0 0 0 0 0 0 0 0 0 0 0 0 0 0 0 0 127 0" result="hardAlpha"/>
			<feOffset dy="492"/>
			<feGaussianBlur stdDeviation="98.5"/>
			<feColorMatrix type="matrix" values="0 0 0 0 0 0 0 0 0 0 0 0 0 0 0 0 0 0 0.07 0"/>
			<feBlend mode="normal" in2="effect3_dropShadow_2381_4" result="effect4_dropShadow_2381_4"/>
			<feColorMatrix in="SourceAlpha" type="matrix" values="0 0 0 0 0 0 0 0 0 0 0 0 0 0 0 0 0 0 127 0" result="hardAlpha"/>
			<feOffset dy="769"/>
			<feGaussianBlur stdDeviation="107.5"/>
			<feColorMatrix type="matrix" values="0 0 0 0 0 0 0 0 0 0 0 0 0 0 0 0 0 0 0.01 0"/>
			<feBlend mode="normal" in2="effect4_dropShadow_2381_4" result="effect5_dropShadow_2381_4"/>
			<feBlend mode="normal" in="SourceGraphic" in2="effect5_dropShadow_2381_4" result="shape"/>
		</filter>
		<clipPath id="clip0_2381_4">
			<rect width="1920" height="1080" fill="white"/>
		</clipPath>
	</defs>
</svg>
