<svg width="37" height="38" viewBox="0 0 37 38" fill="none" xmlns="http://www.w3.org/2000/svg">
  <g clip-path="url(#clip0_6206_7534)">
    <path
      d="M18.5 37.1123C28.7173 37.1123 37 28.8296 37 18.6123C37 8.39504 28.7173 0.112305 18.5 0.112305C8.28273 0.112305 0 8.39504 0 18.6123C0 28.8296 8.28273 37.1123 18.5 37.1123Z"
      fill="#1A1A1A" />
    <path opacity="0.5"
      d="M24.0403 18.6114L32.1899 26.761C30.832 29.035 28.9236 30.9435 26.6496 32.3021L18.4999 24.1525L10.3496 32.3021C8.0763 30.9442 6.1671 29.035 4.8092 26.7617L12.9588 18.6114L4.8092 10.4618C6.16784 8.18775 8.0763 6.27929 10.3503 4.92139L18.4999 13.071L26.6488 4.92139C28.9228 6.27929 30.832 8.18849 32.1899 10.4625L24.0403 18.6114Z"
      fill="url(#paint0_radial_6206_7534)" />
    <path
      d="M28.4797 18.6121C28.4797 19.0279 28.4545 19.4386 28.4042 19.8412C22.9585 21.0074 18.4327 23.664 14.7497 27.8621C14.2539 27.6623 13.7781 27.4225 13.3259 27.1472C15.2536 24.8392 17.5254 22.9411 20.0555 21.3367C16.9593 22.2876 14.0349 23.5501 11.5707 25.7938C11.1999 25.4371 10.858 25.0515 10.5458 24.6401C13.4939 22.022 16.9941 20.5568 20.6645 19.3987H8.55073C8.53075 19.1389 8.52039 18.8762 8.52039 18.6113C8.52039 18.3464 8.53149 18.0763 8.55147 17.8129H20.7185C17.04 16.6651 13.5169 15.2088 10.5509 12.5766C10.8691 12.1585 11.2184 11.7663 11.5966 11.4052C14.0978 13.6874 17.0837 14.9498 20.219 15.9384C17.6276 14.3519 15.3062 12.4523 13.3193 10.0799C13.7736 9.80311 14.2524 9.56261 14.7504 9.36133C18.4334 13.5593 22.9593 16.2159 28.4049 17.3822C28.4545 17.7847 28.4804 18.1947 28.4804 18.6113L28.4797 18.6121Z"
      fill="white" />
    <path
      d="M13.0698 29.5826L10.3503 32.3021C8.07704 30.9442 6.16784 29.0343 4.8092 26.7625L7.5287 24.043C8.71862 26.442 10.6707 28.3942 13.0698 29.5826Z"
      fill="#FF0000" />
    <path
      d="M10.3519 4.92213L13.0707 7.64163C10.6716 8.83007 8.71948 10.7829 7.52956 13.1813L4.81006 10.4625C6.16944 8.18775 8.0779 6.28003 10.3519 4.92139V4.92213Z"
      fill="#FF0000" />
    <path
      d="M23.9309 7.64186L26.6497 4.92236C28.9229 6.281 30.8329 8.1902 32.1908 10.4642L29.4713 13.183C28.2828 10.7839 26.33 8.83178 23.9316 7.64186H23.9309Z"
      fill="#FF0000" />
    <path
      d="M29.4705 24.0425L32.19 26.762C30.8321 29.0353 28.9237 30.9445 26.6504 32.3031L23.9309 29.5836C26.33 28.3937 28.2821 26.4416 29.4705 24.0425Z"
      fill="#FF0000" />
  </g>
  <circle cx="18.5" cy="18.5" r="17.5" stroke="#1BE3C2" stroke-width="2" />
  <defs>
    <radialGradient id="paint0_radial_6206_7534" cx="0" cy="0" r="1" gradientUnits="userSpaceOnUse"
      gradientTransform="translate(18.4999 18.6121) scale(13.69)">
      <stop stop-color="#1A1A1A" />
      <stop offset="0.81" stop-color="#FF0000" />
    </radialGradient>
    <clipPath id="clip0_6206_7534">
      <rect width="37" height="37" fill="white" transform="translate(0 0.112305)" />
    </clipPath>
  </defs>
</svg>