<svg width="37" height="38" viewBox="0 0 37 38" fill="none" xmlns="http://www.w3.org/2000/svg">
<path d="M18.5 37.1614C28.7521 37.1614 37 28.9136 37 18.6614C37 8.40929 28.7521 0.161438 18.5 0.161438C8.24786 0.161438 0 8.40929 0 18.6614C0 28.9136 8.24786 37.1614 18.5 37.1614Z" fill="#2775CA"/>
<path d="M23.3291 21.1864C23.3291 18.4886 21.7104 17.5636 18.4729 17.1782C16.1604 16.8698 15.6979 16.2532 15.6979 15.1739C15.6979 14.0946 16.4688 13.4011 18.0104 13.4011C19.3979 13.4011 20.1688 13.8636 20.5541 15.0198C20.6313 15.2511 20.8625 15.4052 21.0938 15.4052H22.327C22.6354 15.4052 22.8666 15.1739 22.8666 14.8657V14.7886C22.5582 13.0927 21.1707 11.7823 19.3979 11.6282V9.77823C19.3979 9.46983 19.1666 9.23858 18.7813 9.16144H17.625C17.3166 9.16144 17.0854 9.39269 17.0082 9.77823V11.5511C14.6957 11.8595 13.2312 13.4011 13.2312 15.3282C13.2312 17.872 14.7729 18.8739 18.0104 19.2595C20.1687 19.6448 20.8625 20.1073 20.8625 21.3407C20.8625 22.5741 19.7832 23.422 18.3188 23.422C16.3145 23.422 15.6207 22.5739 15.3895 21.4177C15.3125 21.1095 15.0813 20.9552 14.85 20.9552H13.5395C13.2313 20.9552 13 21.1864 13 21.4948V21.572C13.3082 23.4989 14.5416 24.8864 17.0854 25.272V27.122C17.0854 27.4302 17.3166 27.6614 17.702 27.7386H18.8582C19.1666 27.7386 19.3979 27.5073 19.475 27.122V25.272C21.7875 24.8864 23.3291 23.2677 23.3291 21.1864Z" fill="white"/>
<path d="M14.9814 29.2884C8.96889 27.1302 5.88549 20.4239 8.12103 14.4884C9.27728 11.2509 11.821 8.78429 14.9814 7.62804C15.2898 7.47394 15.4439 7.24269 15.4439 6.85715V5.77804C15.4439 5.46965 15.2898 5.2384 14.9814 5.16144C14.9042 5.16144 14.7501 5.16144 14.673 5.2384C7.35014 7.5509 3.34174 15.3364 5.65424 22.6593C7.04174 26.9759 10.3564 30.2905 14.673 31.678C14.9814 31.8321 15.2898 31.678 15.3667 31.3696C15.4439 31.2927 15.4439 31.2155 15.4439 31.0614V29.9821C15.4439 29.7509 15.2126 29.4427 14.9814 29.2884ZM23.1523 5.2384C22.8439 5.08429 22.5355 5.2384 22.4585 5.54679C22.3814 5.62394 22.3814 5.7009 22.3814 5.85519V6.93429C22.3814 7.24269 22.6126 7.5509 22.8439 7.70519C28.8564 9.8634 31.9398 16.5696 29.7042 22.5052C28.548 25.7427 26.0042 28.2093 22.8439 29.3655C22.5355 29.5196 22.3814 29.7509 22.3814 30.1364V31.2155C22.3814 31.5239 22.5355 31.7552 22.8439 31.8321C22.921 31.8321 23.0751 31.8321 23.1523 31.7552C30.4751 29.4427 34.4835 21.6571 32.171 14.3343C30.7835 9.94054 27.3917 6.6259 23.1523 5.2384Z" fill="white"/>
<circle cx="29" cy="29" r="7.5" fill="black" stroke="#363232"/>
<path d="M29.6486 28.063V24.027H27.3425C26.5779 24.027 25.8446 24.3307 25.3039 24.8714C24.7632 25.4121 24.4595 26.1454 24.4595 26.91C24.4595 27.6746 24.7632 28.4079 25.3039 28.9486C25.8446 29.4893 26.5779 29.793 27.3425 29.793H27.919V28.063H29.6486Z" fill="white"/>
<path d="M30.2252 28.0631H29.6486V29.7931H27.9191V33.8292H30.2252C30.6038 33.8292 30.9787 33.7546 31.3284 33.6097C31.6782 33.4648 31.996 33.2525 32.2638 32.9847C32.5315 32.717 32.7438 32.3992 32.8887 32.0494C33.0336 31.6996 33.1082 31.3247 33.1082 30.9461C33.1082 30.5675 33.0336 30.1926 32.8887 29.8428C32.7438 29.4931 32.5315 29.1752 32.2638 28.9075C31.996 28.6398 31.6782 28.4275 31.3284 28.2826C30.9787 28.1377 30.6038 28.0631 30.2252 28.0631Z" fill="white"/>
<circle cx="18.5" cy="18.5" r="17.5" stroke="#1BE3C2" stroke-width="2"/>
<circle cx="29" cy="29" r="7.5" fill="black" stroke="#363232"/>
<path d="M29.6486 28.063V24.027H27.3425C26.5779 24.027 25.8446 24.3307 25.3039 24.8714C24.7632 25.4121 24.4595 26.1454 24.4595 26.91C24.4595 27.6746 24.7632 28.4079 25.3039 28.9486C25.8446 29.4893 26.5779 29.793 27.3425 29.793H27.919V28.063H29.6486Z" fill="white"/>
<path d="M30.2252 28.0631H29.6486V29.7931H27.9191V33.8292H30.2252C30.6038 33.8292 30.9787 33.7546 31.3284 33.6097C31.6782 33.4648 31.996 33.2525 32.2638 32.9847C32.5315 32.717 32.7438 32.3992 32.8887 32.0494C33.0336 31.6996 33.1082 31.3247 33.1082 30.9461C33.1082 30.5675 33.0336 30.1926 32.8887 29.8428C32.7438 29.4931 32.5315 29.1752 32.2638 28.9075C31.996 28.6398 31.6782 28.4275 31.3284 28.2826C30.9787 28.1377 30.6038 28.0631 30.2252 28.0631Z" fill="white"/>
</svg>
