<svg width="37" height="38" viewBox="0 0 37 38" fill="none" xmlns="http://www.w3.org/2000/svg">
  <g clip-path="url(#clip0_6201_7515)">
    <mask id="mask0_6201_7515" style="mask-type:luminance" maskUnits="userSpaceOnUse" x="0" y="0" width="37"
      height="38">
      <path d="M37 0.112305H0V37.1123H37V0.112305Z" fill="white" />
    </mask>
    <g mask="url(#mask0_6201_7515)">
      <path
        d="M18.5 37.1123C28.7173 37.1123 37 28.8296 37 18.6123C37 8.39503 28.7173 0.112305 18.5 0.112305C8.28273 0.112305 0 8.39503 0 18.6123C0 28.8296 8.28273 37.1123 18.5 37.1123Z"
        fill="#1A82FF" />
      <path
        d="M18.548 34.8839C15.0948 34.8839 11.6553 33.7592 8.86495 31.7169L9.72267 30.5489C12.2663 32.4104 15.4008 33.4358 18.548 33.4358C20.0137 33.4358 21.4676 33.218 22.8697 32.7889L23.2954 34.1736C21.7556 34.6451 20.1587 34.8839 18.5491 34.8839H18.548ZM24.977 33.5562L24.403 32.2265C24.4878 32.1905 24.5714 32.1535 24.6551 32.1155C28.8644 30.2127 31.8962 26.5362 32.9732 22.0299L34.3837 22.3661C33.2029 27.311 29.8747 31.3448 25.2523 33.4347C25.1602 33.4759 25.0681 33.5171 24.977 33.5562ZM7.47875 30.5806C5.86384 29.0996 4.5825 27.3311 3.6718 25.3238C2.70815 23.2001 2.21997 20.9486 2.21997 18.6315C2.21997 18.0596 2.25068 17.4803 2.3121 16.9106L3.75439 17.0639C3.69933 17.5829 3.67074 18.1103 3.67074 18.6315C3.67074 20.7414 4.11551 22.7921 4.99338 24.7265C5.8236 26.5553 6.98952 28.1662 8.46041 29.514L7.47875 30.5806ZM34.7035 20.605L33.2644 20.4254C33.3406 19.8165 33.3798 19.1981 33.3798 18.585C33.3798 16.475 32.935 14.4244 32.0572 12.4899C31.2661 10.7478 30.168 9.20027 28.7913 7.88951L29.7921 6.84198C31.3042 8.28069 32.5104 9.98045 33.3788 11.8927C34.3424 14.0163 34.8306 16.2678 34.8306 18.585C34.8306 19.2573 34.7882 19.937 34.7045 20.605H34.7035ZM4.01596 15.455L2.59908 15.1453C3.13173 12.7193 4.22775 10.4117 5.77066 8.47198C7.38871 6.43712 9.41562 4.85997 11.7972 3.78282C11.9804 3.69932 12.1668 3.62003 12.351 3.54498L12.9006 4.88428C12.7322 4.95299 12.5628 5.02593 12.3955 5.10204C10.2267 6.083 8.37991 7.51959 6.90692 9.37262C5.50168 11.14 4.50203 13.2436 4.01596 15.456V15.455ZM27.5471 6.83141C24.9611 4.8642 21.7482 3.78071 18.5014 3.78071C17.129 3.78071 15.763 3.97204 14.4435 4.34941L14.0443 2.95725C15.494 2.54288 16.9935 2.33252 18.5014 2.33252C22.0638 2.33252 25.588 3.52172 28.426 5.67921L27.5471 6.83035V6.83141Z"
        fill="white" />
      <path
        d="M16.4974 11.2143C16.6055 11.3425 16.7146 11.4685 16.8247 11.5934C17.3573 11.4706 17.9111 11.4029 18.4809 11.4029C21.8346 11.4029 24.661 13.6542 25.5346 16.7283C25.7019 16.7643 25.8682 16.8003 26.0366 16.831C27.3655 17.0757 28.2021 17.2208 28.7242 17.3086C28.0285 12.2733 23.7079 8.39648 18.4809 8.39648C17.1975 8.39648 15.968 8.63048 14.8339 9.05829C15.3178 9.7149 16.0188 10.615 16.4964 11.2143H16.4974Z"
        fill="white" />
      <path
        d="M25.8449 19.6015C27.4143 19.3135 28.3091 19.1589 28.8163 19.0773C28.8195 18.965 28.8227 18.8518 28.8227 18.7385C28.8227 18.6252 28.8206 18.5108 28.8163 18.3975C28.3091 18.3149 27.4143 18.1613 25.8449 17.8733C25.8174 17.868 25.7888 17.8627 25.7612 17.8574C25.7962 18.1465 25.8163 18.4398 25.8163 18.7385C25.8163 19.0371 25.7962 19.3293 25.7623 19.6185C25.7898 19.6132 25.8185 19.6078 25.846 19.6026L25.8449 19.6015Z"
        fill="white" />
      <path
        d="M15.6768 25.5897C15.6927 25.5706 15.7086 25.5526 15.7244 25.5346C13.04 24.4449 11.1466 21.8135 11.1466 18.7383C11.1466 15.663 13.04 13.0304 15.7244 11.9408C15.7086 11.9217 15.6916 11.9027 15.6757 11.8847C15.6757 11.8847 14.5247 10.4381 13.8406 9.49463C10.4593 11.1953 8.13916 14.6962 8.13916 18.7393C8.13916 22.7824 10.4593 26.2823 13.8406 27.9829C14.5247 27.0383 15.6768 25.5918 15.6768 25.5918V25.5897Z"
        fill="white" />
      <path
        d="M26.0366 20.6436C25.8693 20.6743 25.702 20.7092 25.5358 20.7463C24.6621 23.8205 21.8358 26.0729 18.4821 26.0729C17.9112 26.0729 17.3574 26.0051 16.8248 25.8823C16.7147 26.0062 16.6055 26.1322 16.4986 26.2603C16.021 26.8608 15.32 27.7608 14.835 28.4174C15.9691 28.8453 17.1986 29.0793 18.4821 29.0793C23.709 29.0793 28.0296 25.2013 28.7254 20.166C28.2032 20.2529 27.3667 20.399 26.0377 20.6436H26.0366Z"
        fill="white" />
      <path
        d="M13.3979 24.0893C14.8583 22.6396 17.1911 21.4027 20.0101 20.5545C20.0112 20.5545 20.0122 20.5534 20.0143 20.5524H20.0132C20.0132 20.5524 20.0122 20.5545 20.0112 20.5545C18.5403 21.3836 17.1731 22.4151 15.9797 23.6064C15.5339 24.0512 15.1071 24.5224 14.7079 25.0095L14.6538 25.0762C14.98 25.2743 15.3221 25.4458 15.6779 25.592C16.022 25.179 16.3884 24.7765 16.7686 24.3974H16.7697C19.2678 21.9036 22.4055 20.2484 25.847 19.6024C25.8798 19.3187 25.8989 19.0306 25.8989 18.7384C25.8989 18.4461 25.8798 18.157 25.847 17.8732C22.4055 17.2272 19.2667 15.572 16.7686 13.0793C16.3906 12.7002 16.0241 12.2988 15.6779 11.8848C15.321 12.0309 14.9779 12.2035 14.6528 12.4015L14.7068 12.4672C15.1071 12.9565 15.5349 13.4277 15.9786 13.8703C17.1741 15.0627 18.5413 16.0942 20.0143 16.9244C17.1932 16.074 14.8603 14.8382 13.4001 13.3864L13.3863 13.3726C13.1162 13.63 12.8652 13.9074 12.6355 14.2028C13.5377 15.0913 14.711 15.9003 16.1247 16.6046H16.1237C17.3701 17.2251 18.7975 17.7578 20.3373 18.1792H11.1074C11.0936 18.3635 11.0841 18.5499 11.0841 18.7373C11.0841 18.9247 11.0936 19.1111 11.1074 19.2954H20.3394C18.7997 19.7158 17.3701 20.2484 16.1258 20.8701C14.7121 21.5743 13.5398 22.3833 12.6365 23.2717C12.8652 23.5672 13.1162 23.8447 13.3874 24.102L13.4011 24.0882L13.3979 24.0893Z"
        fill="white" />
      <path opacity="0.2"
        d="M30.0638 30.0988C36.407 23.7122 36.3731 13.3927 29.9865 7.04955C23.6 0.706384 13.2804 0.74027 6.93726 7.12685L30.0638 30.0988Z"
        fill="white" />
      <path
        d="M22.8555 12.8518C24.1315 13.8028 25.0877 15.1583 25.5346 16.7297C25.7019 16.7657 25.8682 16.8017 26.0365 16.8324C27.3656 17.077 28.2021 17.2222 28.7242 17.31C28.3334 14.4805 26.7969 12.0174 24.5995 10.4014L22.8555 12.8529V12.8518Z"
        fill="url(#paint0_linear_6201_7515)" />
      <path
        d="M22.8566 24.6228C24.1326 23.6718 25.0889 22.3164 25.5357 20.7449C25.703 20.7089 25.8693 20.6729 26.0377 20.6422C27.3667 20.3975 28.2033 20.2525 28.7253 20.1646C28.3346 22.9941 26.798 25.4573 24.6007 27.0732L22.8566 24.6218V24.6228Z"
        fill="url(#paint1_linear_6201_7515)" />
    </g>
  </g>
  <circle cx="18.5" cy="18.5" r="17.5" stroke="#1BE3C2" stroke-width="2" />
  <defs>
    <linearGradient id="paint0_linear_6201_7515" x1="27.0912" y1="21.2176" x2="25.3864" y2="13.0985"
      gradientUnits="userSpaceOnUse">
      <stop stop-color="#1A82FF" stop-opacity="0.5" />
      <stop offset="1" stop-color="white" />
    </linearGradient>
    <linearGradient id="paint1_linear_6201_7515" x1="27.0913" y1="16.257" x2="25.3864" y2="24.376"
      gradientUnits="userSpaceOnUse">
      <stop stop-color="#1A82FF" stop-opacity="0.5" />
      <stop offset="1" stop-color="white" />
    </linearGradient>
    <clipPath id="clip0_6201_7515">
      <rect width="37" height="37" fill="white" transform="translate(0 0.112305)" />
    </clipPath>
  </defs>
</svg>