<svg width="37" height="37" viewBox="0 0 37 37" fill="none" xmlns="http://www.w3.org/2000/svg">
<g clip-path="url(#clip0_6159_7783)">
<g filter="url(#filter0_d_6159_7783)">
<path d="M18.5136 34.4251C27.3015 34.4251 34.4256 27.301 34.4256 18.5131C34.4256 9.72512 27.3015 2.60107 18.5136 2.60107C9.72561 2.60107 2.60156 9.72512 2.60156 18.5131C2.60156 27.301 9.72561 34.4251 18.5136 34.4251Z" fill="#FFFCF5" stroke="url(#paint0_linear_6159_7783)" stroke-width="2.22"/>
</g>
<path d="M17.8498 11.4142C17.1473 11.4054 16.4887 11.5196 15.874 11.7567C15.2681 11.985 14.772 12.3011 14.3856 12.705C13.9992 13.109 13.806 13.5788 13.806 14.1145C13.806 14.7731 13.986 15.2736 14.3461 15.6161C14.7061 15.9585 15.1891 16.2132 15.795 16.38C16.4096 16.5381 17.0946 16.683 17.8498 16.8147C19.0616 17.0079 20.1813 17.3284 21.2087 17.7763C22.2448 18.2241 23.0747 18.8213 23.6982 19.5677C24.3304 20.3053 24.6466 21.2142 24.6466 22.2943C24.6466 23.2866 24.3831 24.1691 23.8562 24.9418C23.3294 25.7058 22.6225 26.3249 21.7356 26.7991C20.8575 27.2645 19.887 27.5586 18.8245 27.6816V30.3555H16.8883V27.6816C16.0013 27.5938 15.1583 27.3831 14.3592 27.0494C13.5689 26.7156 12.8796 26.2722 12.2912 25.719C11.7029 25.1658 11.277 24.5248 11.0135 23.7959L13.5821 22.8343C13.7314 23.2558 14.0168 23.6334 14.4383 23.9671C14.8685 24.292 15.3779 24.5467 15.9662 24.7311C16.5634 24.9155 17.1912 25.0077 17.8498 25.0077C18.5524 25.0077 19.211 24.8936 19.8256 24.6652C20.4491 24.4369 20.9497 24.1207 21.3272 23.7168C21.7137 23.3129 21.9068 22.8388 21.9068 22.2943C21.9068 21.7323 21.7048 21.2713 21.3009 20.9112C20.9057 20.5511 20.3965 20.2658 19.7729 20.055C19.1583 19.8443 18.5171 19.6862 17.8498 19.5808C16.559 19.3701 15.3998 19.0627 14.3724 18.6588C13.3538 18.2549 12.5459 17.6885 11.9488 16.9596C11.3604 16.2307 11.0662 15.2823 11.0662 14.1145C11.0662 13.1222 11.3297 12.2396 11.8566 11.4669C12.3834 10.6941 13.0859 10.075 13.9641 9.60963C14.851 9.13544 15.8258 8.84126 16.8883 8.7271V6.01367H18.8245V8.7271C19.6852 8.81491 20.5106 9.02566 21.3009 9.35936C22.0999 9.69306 22.7981 10.1365 23.3952 10.6897C23.9924 11.2342 24.4271 11.884 24.6993 12.6392L22.1044 13.5744C21.955 13.1441 21.6697 12.7709 21.2482 12.4548C20.8267 12.1299 20.3174 11.8752 19.7202 11.6908C19.1319 11.5064 18.5084 11.4142 17.8498 11.4142Z" fill="#090915"/>
</g>
<circle cx="18.5" cy="18.5" r="17.5" stroke="#1BE3C2" stroke-width="2"/>
<defs>
<filter id="filter0_d_6159_7783" x="0.751577" y="0.751211" width="35.5239" height="35.5239" filterUnits="userSpaceOnUse" color-interpolation-filters="sRGB">
<feFlood flood-opacity="0" result="BackgroundImageFix"/>
<feColorMatrix in="SourceAlpha" type="matrix" values="0 0 0 0 0 0 0 0 0 0 0 0 0 0 0 0 0 0 127 0" result="hardAlpha"/>
<feOffset/>
<feGaussianBlur stdDeviation="0.37"/>
<feComposite in2="hardAlpha" operator="out"/>
<feColorMatrix type="matrix" values="0 0 0 0 0.675749 0 0 0 0 0.384462 0 0 0 0 0.895833 0 0 0 1 0"/>
<feBlend mode="normal" in2="BackgroundImageFix" result="effect1_dropShadow_6159_7783"/>
<feBlend mode="normal" in="SourceGraphic" in2="effect1_dropShadow_6159_7783" result="shape"/>
</filter>
<linearGradient id="paint0_linear_6159_7783" x1="2.09041" y1="71.2643" x2="36.7892" y2="70.8793" gradientUnits="userSpaceOnUse">
<stop stop-color="#7A8FD9"/>
<stop offset="1" stop-color="#AC62E4"/>
</linearGradient>
<clipPath id="clip0_6159_7783">
<rect width="36" height="36" fill="white" transform="translate(0.51355 0.513672)"/>
</clipPath>
</defs>
</svg>
