<svg width="37" height="37" viewBox="0 0 37 37" xmlns="http://www.w3.org/2000/svg"><g xmlns="http://www.w3.org/2000/svg" width="37" height="37" fill="none" viewBox="0 0 37 37" transform="translate(0, 0) scale(1.5416666666666667, 1.5416666666666667)"><g clip-path="url(#a)"><circle cx="12" cy="12" r="12" fill="#06F"></circle><path fill="#fff" d="M6.545 11.357h4.632v1.236H6.545zM6.545 8.679h4.632v1.236H6.545zM12.44 11.357h4.63v1.236h-4.63zM12.44 8.679h4.63v1.236h-4.63zM12.44 6h4.63v1.236h-4.63zM6.545 16.714h4.632v1.237H6.545zM12.44 16.714h4.63v1.237h-4.63zM6.545 14.036h4.632v1.236H6.545zM12.44 14.036h4.63v1.236h-4.63z"></path><circle cx="8.5" cy="16.9" r="6" fill="#00D743"></circle><path fill="#fff" d="M8.562 20.968a3.7 3.7 0 0 1-1.497-.286 2.43 2.43 0 0 1-1.034-.837q-.375-.55-.385-1.331h1.573q.012.341.176.616.165.275.452.44.296.154.704.154.352 0 .605-.11a.97.97 0 0 0 .407-.33.86.86 0 0 0 .143-.495.9.9 0 0 0-.165-.55 1.24 1.24 0 0 0-.44-.375 3.6 3.6 0 0 0-.65-.275q-.362-.132-.77-.275-.912-.297-1.397-.792-.473-.495-.473-1.31 0-.693.33-1.188.34-.495.935-.76A3.3 3.3 0 0 1 8.43 13q.781 0 1.364.275.595.264.936.77.352.506.363 1.19H9.508a.93.93 0 0 0-.154-.474.94.94 0 0 0-.374-.363 1.1 1.1 0 0 0-.572-.143 1.25 1.25 0 0 0-.528.088.9.9 0 0 0-.375.297.8.8 0 0 0-.132.473q0 .275.132.462.143.187.386.33.242.132.572.254.33.11.715.23.573.199 1.057.474.484.264.77.693t.286 1.134q0 .604-.319 1.122-.319.517-.924.837-.595.319-1.486.319"></path></g><defs><clipPath id="a"><path fill="#fff" d="M0 0h24v24H0z"></path></clipPath></defs></g><circle cx="18.5" cy="18.5" r="17.5" stroke="#1BE3C2" stroke-width="2" fill="none"></circle></svg>