<?xml version="1.0" encoding="UTF-8"?>
<svg version="1.1" xmlns="http://www.w3.org/2000/svg" width="286" height="286">
<path d="M0 0 C3.37097204 2.89582368 6.56859232 5.95191274 9.71875 9.08496094 C11.1590369 10.50690323 12.63514212 11.89228324 14.11230469 13.27587891 C32.70525522 31.00949139 44.76429677 54.88067903 51.21386719 79.56103516 C51.66439453 81.24132812 51.66439453 81.24132812 52.12402344 82.95556641 C60.77898053 122.04376798 51.07563689 161.39708482 30.20483398 194.76123047 C26.02542296 201.16581647 21.07068564 206.65578966 15.68994141 212.06591797 C14.26799911 213.50620487 12.88261911 214.98231008 11.49902344 216.45947266 C-6.23458905 235.05242319 -30.10577669 247.11146474 -54.78613281 253.56103516 C-55.90632812 253.86138672 -57.02652344 254.16173828 -58.18066406 254.47119141 C-97.26886563 263.1261485 -136.62218247 253.42280486 -169.98632812 232.55200195 C-176.39091413 228.37259093 -181.88088731 223.41785361 -187.29101562 218.03710938 C-188.73130253 216.61516708 -190.20740774 215.22978708 -191.68457031 213.84619141 C-210.27752085 196.11257892 -222.3365624 172.24139128 -228.78613281 147.56103516 C-229.08648437 146.44083984 -229.38683594 145.32064453 -229.69628906 144.16650391 C-238.35124616 105.07830234 -228.64790251 65.7249855 -207.77709961 32.36083984 C-203.59768859 25.95625384 -198.64295126 20.46628066 -193.26220703 15.05615234 C-191.84026474 13.61586544 -190.45488473 12.13976023 -189.07128906 10.66259766 C-171.33767658 -7.93035288 -147.46648894 -19.98939443 -122.78613281 -26.43896484 C-121.6659375 -26.73931641 -120.54574219 -27.03966797 -119.39160156 -27.34912109 C-78.82654654 -36.33108487 -32.47613304 -26.16379554 0 0 Z " fill="#060622" transform="translate(231.7861328125,29.43896484375)"/>
<path d="M0 0 C3.63688383 1.6821454 7.16188236 3.53451251 10.6875 5.4375 C11.71206299 5.98172607 12.73662598 6.52595215 13.79223633 7.08666992 C15.8840498 8.19809298 17.97415106 9.31274477 20.0625 10.43066406 C23.35891653 12.19174829 26.66827128 13.92681375 29.98046875 15.65795898 C36.38198677 19.00671769 42.75854045 22.40152625 49.125 25.81640625 C49.74796463 26.15052017 50.37092926 26.48463409 51.01277161 26.82887268 C54.11209093 28.49167212 57.21042582 30.15627308 60.30737305 31.82348633 C61.44730713 32.43603271 62.58724121 33.0485791 63.76171875 33.6796875 C65.277052 34.49542236 65.277052 34.49542236 66.82299805 35.32763672 C70.5200622 37.27375901 74.26308413 39.13154206 78 41 C78 70.04 78 99.08 78 129 C53.18077004 142.53776179 53.18077004 142.53776179 42.5 148 C29.70134965 154.59103764 16.96702479 161.31959997 4.45800781 168.44873047 C3.64944336 168.90779785 2.84087891 169.36686523 2.0078125 169.83984375 C1.28480957 170.25484131 0.56180664 170.66983887 -0.18310547 171.09741211 C-2 172 -2 172 -4 172 C-4 143.29 -4 114.58 -4 85 C-5.65 84.34 -7.3 83.68 -9 83 C-11.39991895 81.78626805 -13.77951238 80.55338035 -16.15234375 79.2890625 C-16.84050674 78.92481171 -17.52866974 78.56056091 -18.23768616 78.18527222 C-20.47242019 77.0012488 -22.70505501 75.81333297 -24.9375 74.625 C-26.48369708 73.80398584 -28.0299212 72.9830226 -29.57617188 72.16210938 C-47.4940379 62.63951501 -65.28118001 52.88753906 -83 43 C-81.6611193 38.9833579 -79.24284117 38.2267526 -75.67578125 36.41015625 C-75.02662247 36.0696524 -74.37746368 35.72914856 -73.70863342 35.37832642 C-71.58097893 34.26440672 -69.44675841 33.16370515 -67.3125 32.0625 C-65.83940612 31.29322217 -64.3669153 30.52278846 -62.89501953 29.7512207 C-60.6790721 28.58965603 -58.46286002 27.42865224 -56.24481201 26.27110291 C-50.25161263 23.14260574 -44.3026182 19.93861009 -38.375 16.6875 C-37.51946533 16.2219873 -36.66393066 15.75647461 -35.7824707 15.27685547 C-31.15232259 12.75275878 -26.55416539 10.18077781 -21.9765625 7.5625 C-20.97705566 6.99829346 -19.97754883 6.43408691 -18.94775391 5.8527832 C-17.03336583 4.77128237 -15.12625859 3.67675297 -13.22802734 2.56713867 C-5.14873025 -1.96960413 -5.14873025 -1.96960413 0 0 Z " fill="#602FFA" transform="translate(146,58)"/>
<path d="M0 0 C3.63688383 1.6821454 7.16188236 3.53451251 10.6875 5.4375 C11.71206299 5.98172607 12.73662598 6.52595215 13.79223633 7.08666992 C15.8840498 8.19809298 17.97415106 9.31274477 20.0625 10.43066406 C23.35898095 12.19178271 26.66837272 13.92692863 29.98071289 15.65795898 C38.93309834 20.34164422 47.84134265 25.10885174 56.75 29.875 C57.35822601 30.20005524 57.96645203 30.52511047 58.59310913 30.86001587 C64.77389619 34.16439716 70.94184629 37.47493395 77 41 C77 41.66 77 42.32 77 43 C75.94594971 43.54188965 75.94594971 43.54188965 74.87060547 44.09472656 C62.89152215 50.26051713 50.92484229 56.43321851 39.125 62.9375 C30.93261538 67.44119116 22.69007856 71.84240984 14.40008545 76.1633606 C13.10259502 76.8404323 11.80622581 77.51965746 10.51104736 78.20114136 C8.69680775 79.15479976 6.87839247 80.09997102 5.05859375 81.04296875 C4.00986084 81.58977295 2.96112793 82.13657715 1.88061523 82.69995117 C-4.43616629 85.55077426 -4.43616629 85.55077426 -8.17456055 84.23413086 C-8.90457275 83.81526611 -9.63458496 83.39640137 -10.38671875 82.96484375 C-11.22912109 82.49240234 -12.07152344 82.01996094 -12.93945312 81.53320312 C-13.84630859 81.00662109 -14.75316406 80.48003906 -15.6875 79.9375 C-17.66992848 78.82047012 -19.65302977 77.70463364 -21.63671875 76.58984375 C-22.67618652 76.00058105 -23.7156543 75.41131836 -24.78662109 74.80419922 C-30.14988678 71.7929142 -35.57696286 68.90179349 -41 66 C-49.4083145 61.48115658 -57.80609631 56.9435753 -66.1875 52.375 C-67.52264648 51.64796875 -67.52264648 51.64796875 -68.88476562 50.90625 C-73.62014681 48.32132334 -78.32598493 45.69435781 -83 43 C-81.6611193 38.9833579 -79.24284117 38.2267526 -75.67578125 36.41015625 C-75.02662247 36.0696524 -74.37746368 35.72914856 -73.70863342 35.37832642 C-71.58097893 34.26440672 -69.44675841 33.16370515 -67.3125 32.0625 C-65.83940612 31.29322217 -64.3669153 30.52278846 -62.89501953 29.7512207 C-60.6790721 28.58965603 -58.46286002 27.42865224 -56.24481201 26.27110291 C-50.25161263 23.14260574 -44.3026182 19.93861009 -38.375 16.6875 C-37.51946533 16.2219873 -36.66393066 15.75647461 -35.7824707 15.27685547 C-31.15232259 12.75275878 -26.55416539 10.18077781 -21.9765625 7.5625 C-20.97705566 6.99829346 -19.97754883 6.43408691 -18.94775391 5.8527832 C-17.03336583 4.77128237 -15.12625859 3.67675297 -13.22802734 2.56713867 C-5.14873025 -1.96960413 -5.14873025 -1.96960413 0 0 Z " fill="#7F75FD" transform="translate(146,58)"/>
<path d="M0 0 C0.33 0.66 0.66 1.32 1 2 C2.64885721 2.70957178 4.31915752 3.36992796 6 4 C7.59267369 4.7780619 9.17445612 5.57871501 10.74609375 6.3984375 C11.65399658 6.8713623 12.56189941 7.34428711 13.49731445 7.83154297 C14.9527063 8.5955542 14.9527063 8.5955542 16.4375 9.375 C17.45739014 9.90883301 18.47728027 10.44266602 19.52807617 10.99267578 C27.21808457 15.03181223 34.85830482 19.15701035 42.47363281 23.33496094 C47.65551031 26.17783525 52.84732828 29.00093923 58.0546875 31.796875 C58.64926254 32.11621002 59.24383759 32.43554504 59.85643005 32.76455688 C62.77338379 34.33062356 65.69141755 35.89462338 68.6105957 37.45654297 C69.66077881 38.02002441 70.71096191 38.58350586 71.79296875 39.1640625 C72.7264917 39.66373535 73.66001465 40.1634082 74.62182617 40.67822266 C77 42 77 42 80 44 C80.28621686 46.81117911 80.37819403 49.40115429 80.34057617 52.21337891 C80.34123329 53.48665794 80.34123329 53.48665794 80.34190369 54.78565979 C80.33980882 57.59952568 80.31644515 60.41280033 80.29296875 63.2265625 C80.28737527 65.17426223 80.283104 67.12196618 80.28010559 69.06967163 C80.26863727 74.20230715 80.23915304 79.334689 80.20599365 84.46722412 C80.17533553 89.70207284 80.16160937 94.93696244 80.14648438 100.171875 C80.11428521 110.44802827 80.06306492 120.72399306 80 131 C77.49512922 129.75257601 74.99082398 128.50403746 72.48681641 127.25488281 C71.44002464 126.7337944 71.44002464 126.7337944 70.37208557 126.20217896 C62.97331347 122.50907551 55.66974262 118.64352456 48.375 114.75 C46.97966054 114.00674407 45.5843154 113.26349878 44.18896484 112.52026367 C35.98540746 108.14656551 27.79329565 103.75175992 19.625 99.3125 C18.78372559 98.85649414 17.94245117 98.40048828 17.07568359 97.93066406 C15.54024002 97.09190586 14.01606519 96.23192479 12.50820923 95.3445282 C10.04597176 93.93357271 10.04597176 93.93357271 7.39135742 93.12965393 C4.12209016 91.8163265 2.31763259 90.68411403 0 88 C-1.91602355 81.69871555 -1.1571778 74.66116979 -0.9765625 68.1640625 C-0.95790145 66.19969281 -0.94367145 64.23527645 -0.9336853 62.27084351 C-0.8955783 57.11076402 -0.7974214 51.95351848 -0.68664551 46.79455566 C-0.58417965 41.52618755 -0.538641 36.25735948 -0.48828125 30.98828125 C-0.38116756 20.6576118 -0.21059406 10.32904191 0 0 Z " fill="#151554" transform="translate(62,99)"/>
</svg>
