<svg xmlns="http://www.w3.org/2000/svg" width="48" height="48" fill="none"><path fill="#A897FF" d="M0 24C0 10.745 10.745 0 24 0s24 10.745 24 24-10.745 24-24 24S0 37.255 0 24Z"/><path fill="#7300FF" d="m16.744 27.804-1.442 2.49a6.274 6.274 0 0 1-.494-2.29c-.008-.078-.008-.16-.008-.243h.146l1.798.043Zm3.153.071-2.829 4.875a7.613 7.613 0 0 1-.403-.394 6.936 6.936 0 0 1-.695-.854l2.13-3.666 1.797.039Zm1.876 2.266-2.386 4.12a8.796 8.796 0 0 1-1.38-.768l2.687-4.63c.178.432.47.81.87 1.133.067.05.138.102.209.145Zm-.146 5.769v-.941a11.913 11.913 0 0 1-1.118-.283l2.362-4.073c.431.114.91.17 1.443.17.098 0 .193-.004.288-.008l-2.975 5.134Zm3.121 2.49 1.62-2.798V38.4h-1.62Z"/><path fill="#7300FF" d="M31.46 24.452 23.374 38.4h-1.746v-.134l4.528-7.814h.004c.142-.055.272-.126.399-.205.569-.358.853-.88.853-1.573 0-.114-.012-.22-.036-.323l1.92-3.313a.586.586 0 0 0-.509-.881h-.004a.588.588 0 0 0-.514.295L26.562 27.4a5.045 5.045 0 0 0-1.11-.393 14.95 14.95 0 0 0-.423-.115l1.074-1.853a.586.586 0 0 0-.51-.881h-.007a.588.588 0 0 0-.514.295L23.828 26.6c-.47-.106-1.008-.22-1.62-.346l.703-1.216a.586.586 0 0 0-.51-.881h-.008a.588.588 0 0 0-.513.295l-.877 1.515a17.577 17.577 0 0 1-1.553-.464l.268-.465a.586.586 0 0 0-.51-.881h-.007a.588.588 0 0 0-.514.295l-.347.602a5.48 5.48 0 0 1-2.15-1.857c-.592-.881-.885-2.046-.885-3.494 0-1.636.577-3.065 1.739-4.28 1.157-1.22 2.686-2.015 4.583-2.393V9.6h4.741v3.462c1.916.397 3.453 1.216 4.615 2.455 1.177 1.235 1.77 2.683 1.77 4.344h-5.658c-.063-.78-.371-1.397-.917-1.858-.549-.483-1.296-.723-2.244-.723-.822 0-1.497.165-2.023.503-.505.335-.758.826-.758 1.48 0 .44.146.786.442 1.038.316.228.798.44 1.454.63.652.165 1.715.397 3.193.692 1.493.291 2.738.65 3.73 1.07.813.347 1.497.834 2.034 1.468-.008-.004-.016-.004-.024-.004h-.008a.588.588 0 0 0-.513.295Zm-.118 8.078 1.719-2.967c-.277 1.094-.85 2.085-1.719 2.966Zm1.858-5.571-4.2 7.25a9.767 9.767 0 0 1-2.26.752l5.753-9.922a.989.989 0 0 0 .059-.134c.34.574.557 1.255.648 2.053Z"/></svg>