<svg width="72" height="72" viewBox="0 0 72 72" fill="none" xmlns="http://www.w3.org/2000/svg">
<g clip-path="url(#clip0_153_2781)">
<path d="M72 36C72 16.1177 55.8823 0 36 0C16.1177 0 0 16.1177 0 36C0 55.8823 16.1177 72 36 72C55.8823 72 72 55.8823 72 36Z" fill="#FF472B"/>
<path d="M57.5226 39.2607L51.1522 32.8903C50.6425 32.3807 50.4443 31.6445 50.6331 30.9461L52.7377 23.1034C53.1058 21.7161 52.7094 20.2344 51.6995 19.2151L45.0743 12.5899C44.055 11.5706 42.5733 11.1742 41.186 11.5517L32.4939 13.8828C31.1915 14.232 30.1533 15.2041 29.7192 16.4782L26.6897 25.4157C26.4915 26.0102 26.0196 26.4727 25.4251 26.6803L16.4876 29.7098C15.2135 30.1439 14.2414 31.1821 13.8922 32.4845L11.5611 41.1766C11.1931 42.5639 11.5894 44.0456 12.5993 45.0649L19.2245 51.6901C20.2438 52.7094 21.7255 53.1058 23.1128 52.7283L30.9555 50.6237C31.6539 50.4349 32.3901 50.6331 32.8997 51.1427L39.2701 57.5132C40.2894 58.5324 41.7711 58.9288 43.1585 58.5513L53.068 55.8993C54.4553 55.5313 55.5407 54.4459 55.9182 53.0492L58.5702 43.1396C58.9382 41.7523 58.5419 40.2706 57.532 39.2513L57.5226 39.2607ZM50.0291 33.2017L47.0751 44.2344C46.707 45.6217 45.6217 46.707 44.2249 47.0845L33.1923 50.0385C32.4939 50.2273 31.7577 50.0291 31.2481 49.5195L24.1227 42.394C23.1034 41.3748 22.707 39.893 23.0845 38.4963L26.0574 27.4919C26.2461 26.803 26.7841 26.2556 27.473 26.0763L38.4774 23.1034C39.8647 22.7259 41.3559 23.1223 42.3751 24.1416L49.5006 31.267C50.0102 31.7766 50.2084 32.5128 50.0196 33.2112L50.0291 33.2017Z" fill="#B8D5E0"/>
</g>
<defs>
<clipPath id="clip0_153_2781">
<rect width="72" height="72" fill="white"/>
</clipPath>
</defs>
</svg>
