<svg width="4096" height="4096" viewBox="0 0 4096 4096" fill="none" xmlns="http://www.w3.org/2000/svg">
<path d="M4096 2048C4096 3179.08 3179.08 4096 2048 4096C916.921 4096 0 3179.08 0 2048C0 916.921 916.921 0 2048 0C3179.08 0 4096 916.921 4096 2048Z" fill="#062210"/>
<path d="M3176.46 1746.43L2605.43 2048.21V1444.62L3176.46 1142.81V1746.43Z" fill="#2FFB8E"/>
<path d="M2605.41 1444.59L2047 1142.78L2605.41 841L3176.44 1142.78L2605.41 1444.59Z" fill="#76FFA6"/>
<path d="M2047 1746.43L2605.41 2048.2V1444.61L2047 1142.8V1746.43Z" fill="#15543F"/>
<path d="M2047.46 1746.43L1476.43 2048.21V1444.62L2047.46 1142.81V1746.43Z" fill="#2FFB8E"/>
<path d="M1476.41 1444.59L918 1142.78L1476.41 841L2047.44 1142.78L1476.41 1444.59Z" fill="#76FFA6"/>
<path d="M918 1746.43L1476.41 2048.2V1444.61L918 1142.8V1746.43Z" fill="#15543F"/>
<path d="M3177.46 2953.43L2606.43 3255.21V2651.62L3177.46 2349.81V2953.43Z" fill="#2FFB8E"/>
<path d="M2606.41 2651.59L2048 2349.78L2606.41 2048L3177.44 2349.78L2606.41 2651.59Z" fill="#76FFA6"/>
<path d="M2048 2953.43L2606.41 3255.2V2651.61L2048 2349.8V2953.43Z" fill="#15543F"/>
<path d="M2049.46 2953.43L1478.43 3255.21V2651.62L2049.46 2349.81V2953.43Z" fill="#2FFB8E"/>
<path d="M1478.41 2651.59L920 2349.78L1478.41 2048L2049.44 2349.78L1478.41 2651.59Z" fill="#76FFA6"/>
<path d="M920 2953.43L1478.41 3255.2V2651.61L920 2349.8V2953.43Z" fill="#15543F"/>
</svg>
