<svg width="400" height="400" xmlns="http://www.w3.org/2000/svg" xmlns:xlink="http://www.w3.org/1999/xlink" viewBox="0 2 34 34">
    <circle cx="17" cy="19" r="17" fill="black"/>
    <path d="M 28.156 18.617 C 27.868 18.555 27.567 18.496 27.255 18.439 C 27.166 17.721 27.01 17.024 26.794 16.357 C 30.851 17.01 33.474 18.048 33.474 19.217 C 33.474 19.23 33.474 19.243 33.473 19.256 C 33.376 21.214 25.92 22.795 16.737 22.795 C 7.493 22.795 0 21.193 0 19.217 C 0 19.205 0 19.193 0.001 19.181 C 0.055 18.013 2.727 16.979 6.822 16.334 C 6.605 17.001 6.448 17.696 6.357 18.414 C 5.995 18.478 5.649 18.546 5.317 18.617 C 4.884 18.71 4.487 18.805 4.127 18.903 L 4.127 18.903 C 3.743 19.007 3.401 19.112 3.1 19.217 C 3.682 19.42 4.421 19.625 5.317 19.817 C 5.621 19.881 5.938 19.944 6.268 20.004 L 6.268 20.004 C 9.038 20.507 12.693 20.821 16.737 20.821 C 20.847 20.821 24.556 20.496 27.342 19.98 L 27.342 19.979 C 27.623 19.927 27.895 19.873 28.156 19.817 C 29.053 19.625 29.793 19.42 30.374 19.217 C 29.793 19.013 29.053 18.809 28.156 18.617 Z" fill="rgb(255,255,255)"/>
    <path d="M 29.348 13.046 C 29.348 13.037 29.348 13.027 29.348 13.018 C 29.348 11.963 26.547 11.049 22.461 10.604 C 23.433 11.248 24.297 12.054 25.018 12.985 C 25.071 12.996 25.123 13.007 25.175 13.018 C 25.137 13.026 25.099 13.034 25.061 13.042 L 25.061 13.042 C 22.979 13.47 20.074 13.748 16.815 13.748 C 13.547 13.748 10.636 13.469 8.553 13.039 L 8.553 13.039 C 8.52 13.032 8.487 13.025 8.455 13.018 C 8.5 13.008 8.545 12.999 8.591 12.99 C 9.312 12.058 10.175 11.251 11.148 10.606 C 7.073 11.052 4.281 11.965 4.281 13.018 L 4.281 13.018 C 4.281 14.336 10.349 15.383 14.439 15.673 C 15.354 15.738 16.787 15.742 16.787 15.742 C 17.293 15.764 18.214 15.739 19.126 15.676 C 23.238 15.392 29.288 14.356 29.348 13.046 Z" fill="rgb(255,255,255)"/>
    <path d="M 4.281 26.693 C 4.281 26.003 5.477 25.375 7.446 24.897 C 7.76 25.527 8.131 26.121 8.552 26.672 C 8.52 26.679 8.487 26.686 8.455 26.693 C 8.499 26.702 8.544 26.712 8.59 26.721 C 8.593 26.725 8.596 26.728 8.599 26.732 L 8.644 26.732 C 10.72 27.151 13.594 27.422 16.815 27.422 C 20.035 27.422 22.91 27.151 24.986 26.732 L 25.013 26.732 C 25.015 26.73 25.017 26.727 25.019 26.725 C 25.071 26.715 25.124 26.704 25.175 26.693 C 25.138 26.685 25.1 26.677 25.062 26.669 C 25.483 26.118 25.854 25.523 26.168 24.893 C 28.146 25.371 29.348 26.002 29.348 26.693 C 29.348 26.706 29.348 26.719 29.347 26.732 C 29.25 28.207 23.677 29.396 16.815 29.396 C 9.953 29.396 4.379 28.207 4.282 26.732 C 4.282 26.719 4.281 26.706 4.281 26.693 Z" fill="rgb(255,255,255)"/>
    <path d="M 48.433 25.98 L 44.283 13.811 L 41.808 13.811 L 37.658 25.98 L 39.663 25.98 L 40.727 22.685 L 45.277 22.685 L 46.375 25.98 Z M 44.789 20.994 L 41.197 20.994 L 42.958 15.624 L 43.045 15.624 Z" fill="rgb(255,255,255)"/>
    <path d="M 49.592 13.811 L 49.592 20.994 C 49.592 24.55 50.812 26.189 54.142 26.189 C 57.472 26.189 58.692 24.55 58.692 20.994 L 58.692 13.811 L 56.757 13.811 L 56.757 21.308 C 56.757 23.365 56.042 24.428 54.142 24.428 C 52.242 24.428 51.527 23.365 51.527 21.308 L 51.527 13.811 Z" fill="rgb(255,255,255)"/>
    <path d="M 63.236 21.064 L 65.659 21.064 L 68.1 25.98 L 70.297 25.98 L 67.664 20.854 C 69.216 20.401 70.035 19.198 70.035 17.472 C 70.035 15.223 68.693 13.811 66.513 13.811 L 61.266 13.811 L 61.266 25.98 L 63.236 25.98 Z M 63.236 19.407 L 63.236 15.537 L 66.374 15.537 C 67.368 15.537 67.961 16.077 67.961 17.054 L 67.961 17.891 C 67.961 18.867 67.368 19.407 66.374 19.407 Z" fill="rgb(255,255,255)"/>
    <path d="M 81.999 25.98 L 77.85 13.811 L 75.374 13.811 L 71.225 25.98 L 73.23 25.98 L 74.293 22.685 L 78.843 22.685 L 79.942 25.98 Z M 78.355 20.994 L 74.764 20.994 L 76.525 15.624 L 76.612 15.624 Z" fill="rgb(255,255,255)"/>
</svg>
