<svg xmlns="http://www.w3.org/2000/svg" viewBox="0 0 270 270" style="height: 400px; width: 400px;"><g fill="none" fill-rule="evenodd"><path fill="#8DABF9" d="M163 40v.172c23.533 2.027 42 21.77 42 45.828 0 14.349-6.57 27.164-16.866 35.6C207.13 132.063 220 152.279 220 175.5c0 32.415-25.078 58.973-56.891 61.33L163 237H59.5a9.5 9.5 0 0 1 0-19l108.418.001C187.97 213.681 203 195.845 203 174.5c0-22.76-17.088-41.53-39.134-44.18l-44.366-.263a9.557 9.557 0 0 1-9.5-9.557 9.5 9.5 0 0 1 9.5-9.5h48.801l.21-.058C179.767 107.688 188 97.305 188 85c0-14.912-12.088-27-27-27H84a9 9 0 0 1 0-18z"></path><path fill="#5D75AE" d="M57.5 145h103a9.5 9.5 0 0 1 0 19h-103a9.5 9.5 0 0 1 0-19"></path><path fill="#8DABF9" d="M90.5 181h75a9.5 9.5 0 0 1 0 19h-75a9.5 9.5 0 0 1 0-19"></path><path fill="#5D75AE" d="M85.5 75h65a9.5 9.5 0 0 1 0 19h-65a9.5 9.5 0 0 1 0-19"></path><path fill="#8DABF9" d="M43.5 111h43a9.5 9.5 0 0 1 0 19h-43a9.5 9.5 0 0 1 0-19"></path><path fill="#0A112D" fill-rule="nonzero" d="M361.089 139c9.417-2.913 9.193-14.773 9.193-14.773V82.289c-.225-10.98-10.969-21.72-21.955-21.72H304V217.43h44.327c10.986 0 21.73-10.74 21.955-21.72v-41.938s.224-11.86-9.193-14.773m-6.95-18.583c0 7.171-4.036 11.188-8.296 11.188H319.92V76.703h23.924c4.26 0 10.296 4.241 10.296 10.067zm0 70.813c0 6.05-6.036 10.291-10.296 10.291H319.92v-55.126h25.924c4.26 0 8.296 4.017 8.296 10.964zm96.355-130.661V214.07c.278 1.12 1.111 3.361 5.834 3.361h14.166V66.843c0-2.689-2.222-6.274-8.055-6.274zm99.235 0V217.43h46.345c10.986 0 21.73-10.74 21.954-21.72V82.29c-.224-10.98-10.968-21.72-21.954-21.72zm52.38 130.66c0 6.051-6.035 10.292-10.519 10.292h-25.718V76.703h25.718c4.484 0 10.52 4.241 10.52 10.067zM705.983 59c-11.21 0-22.178 10.964-22.178 21.944V197.28c.224 10.756 11.192 21.72 22.178 21.72h25.512c10.762-.448 21.282-10.964 21.506-21.72V80.944c0-10.756-10.744-21.496-21.506-21.944zm4.484 145.882c-4.708-.224-10.52-6.033-10.52-10.74V83.858c0-4.706 5.812-10.515 10.52-10.74h15.647c4.709 0 10.52 5.81 10.52 10.74v110.286c0 4.93-5.811 10.74-10.52 10.74z"></path></g></svg>