<svg xmlns="http://www.w3.org/2000/svg" viewBox="30 39 200 200" style="height: 400px; width: 400px;"><g fill="none" fill-rule="evenodd"><path fill="#8DABF9" d="M163 40v.172c23.533 2.027 42 21.77 42 45.828 0 14.349-6.57 27.164-16.866 35.6C207.13 132.063 220 152.279 220 175.5c0 32.415-25.078 58.973-56.891 61.33L163 237H59.5a9.5 9.5 0 0 1 0-19l108.418.001C187.97 213.681 203 195.845 203 174.5c0-22.76-17.088-41.53-39.134-44.18l-44.366-.263a9.557 9.557 0 0 1-9.5-9.557 9.5 9.5 0 0 1 9.5-9.5h48.801l.21-.058C179.767 107.688 188 97.305 188 85c0-14.912-12.088-27-27-27H84a9 9 0 0 1 0-18z"></path><path fill="#5D75AE" d="M57.5 145h103a9.5 9.5 0 0 1 0 19h-103a9.5 9.5 0 0 1 0-19"></path><path fill="#8DABF9" d="M90.5 181h75a9.5 9.5 0 0 1 0 19h-75a9.5 9.5 0 0 1 0-19"></path><path fill="#5D75AE" d="M85.5 75h65a9.5 9.5 0 0 1 0 19h-65a9.5 9.5 0 0 1 0-19"></path><path fill="#8DABF9" d="M43.5 111h43a9.5 9.5 0 0 1 0 19h-43a9.5 9.5 0 0 1 0-19"></path></g></svg>