<svg width="400" height="400" style="background-color: white" viewBox="-2 1 34 28" fill="none" xmlns="http://www.w3.org/2000/svg"><path d="M28.0993 0.501865C28.0946 0.797259 28.0876 1.09265 28.0688 1.38805C27.9004 4.10073 26.8895 6.75223 25.2078 8.88706C24.5629 9.72971 23.7743 10.4441 23.0329 11.1984C18.562 15.6717 14.0887 20.1415 9.61776 24.6159C8.3279 25.8893 7.58884 27.684 7.58649 29.4952C5.34806 29.4964 3.10967 29.4976 0.872437 29.4941C0.877143 29.2375 0.883033 28.9821 0.893624 28.7267C1.06192 25.4974 2.44003 22.3493 4.69962 20.0367C9.58009 15.1539 14.4641 10.2734 19.3446 5.3894C20.6392 4.11485 21.3806 2.3166 21.3841 0.501865C23.6225 0.500688 25.8609 0.498334 28.0993 0.501865Z" fill="black"></path><path d="M27.7344 26.3494C27.978 27.3792 28.0957 28.4372 28.1004 29.4952C25.862 29.4999 23.6224 29.4893 21.384 29.4999C21.3758 28.1324 20.9698 26.766 20.1954 25.6363C19.2974 24.2969 17.9134 23.3072 16.3694 22.8553C18.0617 21.1688 19.7458 19.4753 21.4393 17.79C24.5769 19.6401 26.9082 22.8 27.7344 26.3494Z" fill="black"></path><path d="M12.6022 7.1404C10.9111 8.82803 9.22577 10.5204 7.53225 12.2068C4.76307 10.5674 2.60941 7.9183 1.58554 4.8655C1.11008 3.46268 0.874702 1.98217 0.869995 0.501666C3.10958 0.500489 5.348 0.501665 7.58758 0.500488C7.59109 2.06102 8.13246 3.61331 9.11751 4.82548C10.0049 5.93174 11.2418 6.7438 12.6022 7.1404Z" fill="black"></path><path d="M11.1257 0.5C11.1202 0.989891 11.2215 1.48043 11.4428 1.92822C12.1136 3.43932 13.9907 4.24782 15.55 3.68765C16.9092 3.26737 17.8473 1.89844 17.8502 0.5H11.1257Z" fill="black"></path><path d="M17.851 29.4964C17.853 29.1867 17.8098 28.8758 17.7159 28.5737C17.597 28.1547 17.3958 27.7605 17.1263 27.4192C16.1471 26.1187 14.1817 25.7457 12.7919 26.593C11.7545 27.169 11.1376 28.3312 11.1261 29.4964H17.851Z" fill="black"></path></svg>