<svg width="400" height="400" viewBox="0 0 28 32" fill="none" xmlns="http://www.w3.org/2000/svg">
<g id="Logo">
<path id="Vector" d="M27.6139 8.90421L17.6174 0.113533C17.5283 0.0405474 17.4229 0 17.3094 0H8.06689C7.63719 0 7.43451 0.535226 7.7588 0.827167L10.1262 2.9113C10.3613 3.12215 10.3289 3.49519 10.0694 3.66548L0.2189 9.88545C0.0810743 9.97466 0 10.1206 0 10.2828V22.7471C0 22.8849 0.056752 23.0147 0.162148 23.1039L10.1586 31.8865C10.2478 31.9595 10.3532 32 10.4667 32H19.7091C20.1388 32 20.3415 31.4648 20.0172 31.1728L17.6499 29.0887C17.4147 28.8779 17.4472 28.5048 17.7066 28.3345L27.549 22.0983C27.6869 22.0091 27.7679 21.8632 27.7679 21.701V9.2367C27.7679 9.09883 27.7112 8.96908 27.6058 8.87988L27.6139 8.90421ZM16.7662 20.5656C16.6283 20.6548 16.5473 20.8008 16.5473 20.963V27.1019C16.5473 27.5073 16.0689 27.7182 15.7689 27.4587L3.18622 16.3974L11.0018 11.4506C11.1396 11.3614 11.2207 11.2154 11.2207 11.0532V4.91434C11.2207 4.50887 11.699 4.29802 11.999 4.55753L24.5817 15.6107L16.7662 20.5575V20.5656Z" fill="#A79DEE"/>
</g>
</svg>
