<svg xmlns="http://www.w3.org/2000/svg" width="200" height="200" viewBox="0 0 45 47" fill="none">
<g clip-path="url(#clip0_150_271)">
<path d="M16.5147 33.8521H10.7791L22.0864 45.5001V39.6342L16.5147 33.8521Z" fill="#0B9B01"/>
<path d="M38.3918 22.9581L32.8201 28.7403V34.5224L44.1273 22.9581H38.3918Z" fill="#0B9B01"/>
<path d="M32.7381 22.9581L28.8051 26.9805V32.7626L22.0863 39.6341V45.5L32.82 34.5224V22.9581H32.7381Z" fill="#0B9B01"/>
<path d="M10.7791 33.852H22.0863L18.1534 29.8296H12.4998L5.78095 22.9581H0.127319" fill="#0BDC0E"/>
<path d="M27.3303 22.9581L22.0863 28.3213V29.8296V33.852L28.8051 26.9805V22.9581H27.3303Z" fill="#0B9B01"/>
<path d="M22.0863 28.3213L16.8424 22.9581H11.4346L18.1534 29.8296H22.0863V28.3213Z" fill="#0B9B01"/>
<path d="M28.8052 26.9805L32.7381 22.9581H28.8052V26.9805Z" fill="#0B9B01"/>
<path d="M18.1534 29.8296L22.0863 33.8519V29.8296H18.1534Z" fill="#0B9B01"/>
<path d="M27.7399 12.0642H33.3936L22.0863 0.5V6.28212L27.7399 12.0642Z" fill="#0B9B01"/>
<path d="M5.78095 22.9582L11.4346 17.2598V11.3939L0.127319 22.9582H5.78095Z" fill="#0B9B01"/>
<path d="M11.4346 11.3101V11.3939L11.5165 11.3101H11.4346Z" fill="#0B9B01"/>
<path d="M11.5165 11.3101L11.4346 11.3939V17.2598V22.9581L15.3675 18.9358V13.1536L22.0863 6.28212V0.5L11.5165 11.3101Z" fill="#0B9B01"/>
<path d="M33.3936 12.0643H27.7399H22.0863L26.1012 16.0867H31.6729L38.3917 22.9582H44.1273" fill="#0BDC0E"/>
<path d="M16.8424 22.9582L22.0863 17.5951V16.0867V12.0643L15.3675 18.9358V22.9582H11.4346H16.8424Z" fill="#0B9B01"/>
<path d="M15.3675 18.9358L11.4346 22.9581H15.3675V18.9358Z" fill="#0B9B01"/>
<path d="M26.1012 16.0867L22.0863 12.0643V16.0867V17.5951L27.3303 22.9582H28.8051H32.7381L26.1012 16.0867Z" fill="#0B9B01"/>
</g>
<defs>
<clipPath id="clip0_150_271">
<rect width="44" height="45" fill="white" transform="translate(0.127319 0.5)"/>
</clipPath>
</defs>
</svg>