<svg xmlns="http://www.w3.org/2000/svg" width="400" height="400" viewBox="22 14 96 96" fill="none">
<path d="M164.7 81.1C161.8 81.1 159.2 80.6 156.8 79.6C154.4 78.6 152.3 77.1 150.5 75.3C148.7 73.4 147.3 71.3 146.4 69C145.4 66.6 144.9 64.1 144.9 61.5C144.9 58.8 145.4 56.3 146.4 53.9C147.4 51.5 148.8 49.4 150.5 47.6C152.3 45.8 154.4 44.3 156.8 43.2C159.2 42.1 161.8 41.6 164.7 41.6C167.5 41.6 169.8 42 171.7 42.9C173.6 43.8 175 44.6 175.9 45.4V52.6C174.5 51.6 173 50.7 171.3 50C169.6 49.3 167.5 48.9 165 48.9C162.6 48.9 160.5 49.5 158.7 50.6C156.8 51.8 155.4 53.3 154.4 55.1C153.4 57 152.9 59.1 152.9 61.4C152.9 63.7 153.4 65.7 154.4 67.6C155.4 69.5 156.8 71 158.7 72.1C160.6 73.2 162.7 73.8 165.1 73.8C167.6 73.8 169.6 73.4 171.4 72.7C173.1 72 174.7 71.1 176 70.1V77.3C175.1 78.1 173.8 78.9 171.8 79.8C169.8 80.7 167.5 81.1 164.7 81.1Z" fill="white"/>
<path d="M195.4 78.8L178.3 42.2H187.2L201.6 73.2L195.4 78.8ZM183.7 98L197.8 71.9L211.1 42.3H219.9L192.4 98H183.7Z" fill="white"/>
<path d="M240.2 81.1C238 81.1 236.1 80.6 234.5 79.7C232.8 78.8 231.5 77.5 230.6 75.8C229.6 74.1 229.2 72.1 229.2 69.8V49H222.4V45.9C224.9 44.9 226.9 43.2 228.5 40.8C230.1 38.4 231.5 35.4 232.7 31.8H236.7V42.4H248.6V49H236.7V68.7C236.7 70.3 237.2 71.6 238.2 72.5C239.2 73.4 240.5 73.9 242.1 73.9C243.6 73.9 244.9 73.7 246.1 73.3C247.3 72.9 248.3 72.5 249.1 72V78.5C248.1 79.4 246.9 80 245.5 80.5C243.9 80.9 242.2 81.1 240.2 81.1Z" fill="white"/>
<path d="M274.6 81.1C271.8 81.1 269.2 80.6 266.8 79.6C264.4 78.6 262.3 77.1 260.5 75.3C258.7 73.5 257.3 71.4 256.3 69C255.3 66.6 254.8 64.1 254.8 61.3C254.8 58.6 255.3 56 256.3 53.6C257.3 51.2 258.7 49.1 260.5 47.3C262.3 45.5 264.4 44.1 266.8 43C269.2 41.9 271.8 41.4 274.6 41.4C277.4 41.4 280 41.9 282.4 43C284.8 44.1 286.9 45.5 288.7 47.3C290.5 49.1 291.9 51.2 292.9 53.6C293.9 56 294.4 58.6 294.4 61.3C294.4 64.1 293.9 66.6 292.9 69C291.9 71.4 290.5 73.5 288.7 75.3C286.9 77.1 284.8 78.6 282.4 79.6C280 80.6 277.4 81.1 274.6 81.1ZM274.6 73.8C277 73.8 279 73.3 280.8 72.1C282.6 71 284 69.5 285 67.6C286 65.7 286.5 63.6 286.5 61.2C286.5 58.8 286 56.7 285 54.8C284 52.9 282.6 51.4 280.8 50.3C279 49.2 276.9 48.6 274.6 48.6C272.3 48.6 270.2 49.2 268.4 50.3C266.6 51.4 265.1 52.9 264.1 54.8C263.1 56.7 262.6 58.8 262.6 61.2C262.6 63.6 263.1 65.7 264.1 67.6C265.1 69.5 266.6 71 268.4 72.1C270.3 73.3 272.3 73.8 274.6 73.8Z" fill="white"/>
<path d="M311.8 81.1C310.2 81.1 308.7 80.9 307.1 80.5C305.5 80.1 304 79.7 302.7 79.1C301.4 78.6 300.4 78 299.6 77.5V70.2C300.4 70.8 301.5 71.3 302.8 72C304.1 72.6 305.5 73.1 307 73.5C308.5 73.9 309.8 74.1 311 74.1C313.2 74.1 314.9 73.6 316.1 72.7C317.3 71.8 317.9 70.6 317.9 69.2C317.9 68.1 317.4 67.2 316.5 66.6C315.6 66 314.3 65.4 312.6 64.8L307.4 62.9C304.5 61.8 302.5 60.5 301.5 58.8C300.5 57.1 300 55.1 300 52.9C300 50.7 300.6 48.7 301.7 47C302.9 45.3 304.5 43.9 306.5 42.9C308.6 41.9 311 41.4 313.7 41.4C316 41.4 318.1 41.7 320 42.4C322 43.1 323.4 43.8 324.4 44.5V51.9C323.3 51.1 321.9 50.3 320.1 49.6C318.3 48.8 316.5 48.5 314.6 48.5C312.4 48.5 310.8 49 309.7 50C308.6 51 308 52 308 53.2C308 54.1 308.3 55 309 55.8C309.6 56.7 310.8 57.4 312.5 57.9L318 59.9C320.7 60.8 322.6 62 323.9 63.6C325.2 65.2 325.9 67.2 325.9 69.5C325.9 71.7 325.3 73.6 324 75.4C322.7 77.2 321.1 78.6 318.9 79.6C317 80.6 314.5 81.1 311.8 81.1Z" fill="white"/>
<path d="M340.9 80L327.8 42.3H336.4L344.2 67.1L353.4 42.3H358.2L367.4 67.1L375.2 42.3H383.8L370.5 80H365.4L355.7 54.2L346 80H340.9Z" fill="white"/>
<path d="M402.9 81.1C399.8 81.1 396.9 80.3 394.3 78.7C391.7 77.1 389.6 74.8 388 71.9C386.4 69 385.6 65.5 385.6 61.6C385.6 57.4 386.4 53.9 388 50.9C389.6 47.9 391.7 45.6 394.5 44C397.2 42.4 400.3 41.6 403.6 41.6C405.7 41.6 407.8 42.1 410 43.1C412.2 44.1 414 45.5 415.5 47.2V42.5H423V80H415.5V73.6C414.3 75.6 412.6 77.4 410.4 78.9C408.3 80.3 405.7 81.1 402.9 81.1ZM404.5 73.7C406.6 73.7 408.4 73.2 410.1 72.1C411.8 71 413.1 69.5 414.1 67.6C415.1 65.7 415.6 63.5 415.5 61V54.5C414 52.8 412.4 51.4 410.7 50.4C409 49.4 407.1 48.9 405 48.9C402.6 48.9 400.5 49.5 398.8 50.7C397.1 51.9 395.7 53.5 394.8 55.4C393.9 57.4 393.4 59.4 393.4 61.6C393.4 63.8 393.9 65.8 394.8 67.7C395.7 69.6 397 71 398.7 72.1C400.3 73.1 402.3 73.7 404.5 73.7Z" fill="white"/>
<path d="M433.4 98V42.3H440.9V48.7C442.2 46.7 443.9 45 446 43.6C448.2 42.2 450.7 41.5 453.5 41.5C456.7 41.5 459.5 42.3 462.2 43.8C464.8 45.4 466.9 47.6 468.5 50.4C470.1 53.3 470.8 56.7 470.8 60.7C470.8 64.9 470 68.5 468.4 71.5C466.8 74.6 464.7 76.9 462 78.6C459.3 80.3 456.3 81.1 452.9 81.1C450.7 81.1 448.6 80.5 446.4 79.4C444.2 78.3 442.4 76.9 440.8 75.2V98H433.4ZM451.4 73.7C453.9 73.7 455.9 73.1 457.6 71.8C459.3 70.5 460.6 68.9 461.5 66.9C462.4 64.9 462.9 62.8 462.9 60.6C462.9 58.3 462.4 56.3 461.5 54.6C460.6 52.8 459.3 51.4 457.7 50.4C456.1 49.4 454.1 48.8 451.8 48.8C449.8 48.8 447.9 49.3 446.2 50.3C444.5 51.3 443.2 52.8 442.2 54.6C441.2 56.5 440.7 58.7 440.7 61.2L440.8 67.7C442.3 69.4 443.9 70.8 445.6 71.9C447.4 73.2 449.3 73.7 451.4 73.7Z" fill="white"/>
<path d="M80.1 99.1C59.5 99.1 42.8 82.3 42.8 61.8C42.8 41.3 59.6 24.5 80.1 24.5C100.6 24.5 117.4 41.3 117.4 61.8C117.4 82.3 100.7 99.1 80.1 99.1ZM80.1 40.4C68.3 40.4 58.8 50 58.8 61.7C58.8 73.4 68.4 83 80.1 83C91.8 83 101.4 73.4 101.4 61.7C101.4 50 91.8 40.4 80.1 40.4Z" fill="#00AEEF"/>
<path d="M85.7 56.1L50.9 21.3C49.4 19.8 47.4 19 45.2 19C43 19 41 19.8 39.5 21.3C17.2 43.6 17.2 80 39.5 102.3C41.1 103.9 43.1 104.6 45.2 104.6C47.3 104.6 49.3 103.8 50.9 102.3L85.8 67.4C88.8 64.3 88.8 59.2 85.7 56.1Z" fill="#0ECFCD"/>
<path d="M58.7 61.8C58.7 53 64.1 45.4 71.7 42.2L59.9 30.3C49.6 37 42.7 48.6 42.7 61.8C42.7 75 49.6 86.6 59.9 93.2L71.7 81.4C64.1 78.2 58.7 70.6 58.7 61.8Z" fill="#1B75BC"/>
</svg>