<svg width="400px" height="400px" viewBox="0 -1 31 30" version="1.1" xmlns="http://www.w3.org/2000/svg" xmlns:xlink="http://www.w3.org/1999/xlink">
    <title>logo desyn-white</title>
    <defs>
        <rect id="path-1" x="0" y="0" width="90" height="28"></rect>
    </defs>
    <g id="页面-1" stroke="none" stroke-width="1" fill="none" fill-rule="evenodd">
        <g id="画板" transform="translate(-236.000000, -16.000000)">
            <g id="Combined-Shape" transform="translate(236.000000, 16.000000)">
                <mask id="mask-2" fill="white">
                    <use xlink:href="#path-1"></use>
                </mask>
                <use id="Mask" fill="#FFFFFF" opacity="0" xlink:href="#path-1"></use>
                <path d="M13.9895759,0.331955283 C14.8525148,-0.110308255 15.8835542,-0.110995133 16.7471781,0.331955283 L16.7471781,0.331955283 L29.4054135,6.81874475 C30.1160085,7.18287593 30.6378653,7.8669205 30.7189611,8.66284032 C30.8167557,9.62378256 30.3238436,10.5187845 29.4828271,10.9499722 L29.4828271,10.9499722 L16.7470069,17.476343 C16.3155803,17.6974318 15.8417646,17.8081908 15.3682914,17.8081908 C14.8947326,17.8081908 14.4212594,17.6977753 13.9894046,17.476343 L13.9894046,17.476343 L3.20793508,11.9512685 C2.98400086,11.836474 2.71810573,11.9996075 2.71810573,12.2517776 L2.71810573,12.2517776 L2.71810573,13.6761907 C2.71810573,13.8029197 2.78901109,13.9190021 2.90153484,13.9766998 L2.90153484,13.9766998 L15.0988852,20.2274609 C15.1948815,20.2762293 15.3094605,20.2762293 15.4051142,20.2274609 L15.4051142,20.2274609 L27.4005385,14.2528248 C28.1924007,13.8472233 29.1498801,13.9256992 29.8873644,14.4835299 C30.4913446,14.9403037 30.8156425,15.6800713 30.8156425,16.4385563 L30.8156425,16.4385563 L30.8156425,19.12236 C30.8156425,20.0141852 30.323501,20.8200648 29.5313818,21.225838 L29.5313818,21.225838 L16.6117044,27.674334 C16.1882418,27.8912158 15.7195642,28 15.2490025,28 C14.7819519,28 14.31336,27.892847 13.88553,27.6773391 L13.88553,27.6773391 L0.424043028,20.9285057 C0.195998347,20.8142264 0.0519611134,20.5804303 0.0519611134,20.32474 L0.0519611134,20.32474 L0.0519611134,18.3901482 C0.0519611134,18.1402105 0.313403251,17.9769911 0.537166206,18.087321 L0.537166206,18.087321 L15.0944322,25.2646803 C15.1897434,25.3124183 15.3036373,25.3124183 15.3990342,25.2633925 L15.3990342,25.2633925 L27.9360111,19.0061061 C28.0503331,18.9490951 28.1226086,18.8320682 28.1226086,18.7040515 L28.1226086,18.7040515 L28.1226086,17.4522164 C28.1226086,17.2016777 27.8599676,17.0385442 27.6362046,17.1499901 L27.6362046,17.1499901 L16.6170993,22.6384884 C15.7675194,23.0737972 14.7367369,23.0741407 13.8733699,22.6315337 L13.8733699,22.6315337 L1.30916125,16.1928256 C1.26728598,16.1713607 1.22815101,16.1539313 1.19218452,16.1377895 C0.903510611,16.0063383 0.00529030929,15.6068329 0.00529030929,14.4268625 L0.00529030929,14.4268625 L0.00529030929,9.19319595 C-0.00661288661,9.09806335 0.00529030929,9.00190045 0.00529030929,8.9041062 C0.00529030929,8.0369228 0.483644643,7.25310919 1.25367009,6.8583261 L1.25367009,6.8583261 Z M74.301676,10.6368715 L69.2961182,22.9944134 L66.7932961,22.9944134 L71.7988539,10.6368715 L74.301676,10.6368715 Z M52.1075453,10.4804469 C53.2611375,10.4804469 54.1460717,10.839972 54.7625206,11.5590015 C55.3788834,12.278031 55.6871508,13.2462855 55.6871508,14.46334 L55.6871508,14.46334 L55.6871508,15.6833697 L50.567844,15.6833697 L50.5440781,15.7317356 C50.5809324,16.3296377 50.759607,16.8143174 51.0797574,17.185945 C51.3998218,17.5576575 51.8747087,17.7434711 52.5044182,17.7434711 C53.0229619,17.7434711 53.4634917,17.6896651 53.8259214,17.5817979 C54.1883509,17.4741857 54.5627495,17.3099624 54.9490311,17.0890429 L54.9490311,17.0890429 L55.5760712,18.5431672 C55.2320689,18.828773 54.7664816,19.0683078 54.1792234,19.2622818 C53.5918791,19.4561707 52.9515782,19.5530726 52.2584069,19.5530726 C50.9778053,19.5530726 49.9778304,19.1532245 49.2582238,18.3533585 C48.5386173,17.5535773 48.1787709,16.5235266 48.1787709,15.2632062 L48.1787709,15.2632062 L48.1787709,14.9400296 C48.1787709,13.6311733 48.5280259,12.5595567 49.2264499,11.7245848 C49.9248738,10.889783 50.8853251,10.4750596 52.1075453,10.4804469 Z M60.8696161,7.35195531 C62.1553562,7.35195531 63.1901191,7.6832089 63.9738181,8.34563095 C64.7575171,9.00813813 65.1360573,9.87697629 65.109525,10.9520603 L65.0935364,11.0009393 L62.8381977,11.0009393 C62.8381977,10.4091961 62.662842,9.95429718 62.3122171,9.63658326 C61.9615057,9.31895448 61.4700949,9.16014011 60.8378118,9.16014011 C60.2640383,9.16014011 59.8203339,9.30141253 59.5068716,9.58361674 C59.1933227,9.86607642 59.0366349,10.2271343 59.0366349,10.6669608 C59.0366349,11.0688931 59.2066323,11.3987842 59.5467997,11.6565489 C59.8867082,11.9144839 60.473791,12.1873211 61.3080485,12.4751455 C62.5831584,12.8444635 63.5555227,13.3262714 64.2248817,13.9209099 C64.8944138,14.5154633 65.2290503,15.2988057 65.2290503,16.2707667 C65.2290503,17.286157 64.8411763,18.0870413 64.0655147,18.6735049 C63.2896802,19.2599685 62.2643377,19.5530726 60.9892279,19.5530726 C59.7406503,19.5530726 58.6687249,19.235529 57.7734516,18.6001863 C56.8781782,17.9648436 56.4438077,17.0174073 56.4704266,15.7575365 L56.4864151,15.7087427 L58.7417537,15.7087427 C58.7417537,16.409229 58.9436419,16.925099 59.3475045,17.2562675 C59.7511941,17.5875211 60.2985217,17.7530627 60.9892279,17.7530627 C61.6108806,17.7530627 62.085093,17.6200504 62.4117782,17.3539404 C62.7385499,17.088001 62.901979,16.7323077 62.901979,16.2870314 C62.901979,15.8309403 62.7465011,15.4643473 62.4357179,15.1874227 C62.1249348,14.9104981 61.5789035,14.6498382 60.79797,14.405528 C59.4590787,13.9929512 58.4429836,13.5068855 57.7495983,12.9475864 C57.056213,12.3883724 56.7096501,11.6253821 56.7096501,10.6587859 C56.7096501,9.68690996 57.1000304,8.89275288 57.8810503,8.27648495 C58.6620703,7.66021701 59.6583741,7.35195531 60.8696161,7.35195531 Z M42.5208554,7.50837989 C43.9366336,7.50837989 45.1032031,7.97245395 46.0206501,8.90051616 C46.9378382,9.82866427 47.396648,11.0193467 47.396648,12.4727352 L47.396648,12.4727352 L47.396648,14.4405398 C47.396648,15.8993406 46.9378382,17.0901089 46.0206501,18.012673 C45.1032031,18.9354089 43.9366336,19.396648 42.5208554,19.396648 L42.5208554,19.396648 L38.4804469,19.396648 L38.4804469,7.50837989 Z M78.0558659,10.6368715 C80.1259758,10.6368715 81.8100559,12.3225089 81.8100559,14.3943415 L81.8100559,14.3943415 L81.8100559,19.396648 L79.5068502,19.396648 L79.5068502,14.3943415 C79.5068502,13.5935734 78.8560208,12.9420894 78.0558659,12.9420894 C77.255711,12.9420894 76.6047956,13.5935734 76.6047956,14.3943415 L76.6047956,14.3943415 L76.6047956,19.396648 L74.301676,19.396648 L74.301676,14.3943415 C74.301676,12.3225089 75.985756,10.6368715 78.0558659,10.6368715 Z M42.5208554,9.34551867 L40.802972,9.34551867 L40.802972,17.5677564 L42.5208554,17.5677564 C43.2845316,17.5677564 43.8995284,17.2752402 44.366277,16.6900362 C44.8327667,16.1048321 45.0660979,15.3550286 45.0660979,14.4405398 L45.0660979,14.4405398 L45.0660979,12.4564128 C45.0660979,11.5474221 44.8327667,10.8016563 44.366277,10.2192012 C43.8995284,9.6367462 43.2845316,9.34551867 42.5208554,9.34551867 L42.5208554,9.34551867 Z M68.4742445,10.6368715 L69.452514,13.8450879 L68.1443263,17.0502793 L66.0111732,10.6368715 L68.4742445,10.6368715 Z M15.5214059,2.7360281 C15.4254952,2.68725977 15.3112588,2.68725977 15.2152625,2.7360281 L15.2152625,2.7360281 L3.76533006,8.6035971 C3.52075792,8.72895232 3.52075792,9.07934593 3.76533006,9.20470117 L3.76533006,9.20470117 L15.2152625,15.0722702 C15.3112588,15.1216395 15.425324,15.1216395 15.5212346,15.0722702 L15.5212346,15.0722702 L26.9711671,9.20470117 C27.2158248,9.07934593 27.2158248,8.72895232 26.9711671,8.6035971 L26.9711671,8.6035971 Z M52.1075453,12.2982614 C51.6419581,12.2982614 51.2834034,12.4612097 51.0321396,12.7870212 C50.7807897,13.1128328 50.6286364,13.5451515 50.5757659,14.0836374 L50.5757659,14.0836374 L50.591696,14.1240132 L53.4171655,14.1240132 L53.4171655,13.9462746 C53.4171655,13.4347343 53.3140079,13.0320812 53.1076924,12.7385703 C52.901291,12.4449744 52.567966,12.2982614 52.1075453,12.2982614 Z" fill="#111111" fill-rule="nonzero" mask="url(#mask-2)"></path>
            </g>
        </g>
    </g>
</svg>