<svg width="400" height="400" viewBox="3 2 77 78" fill="none" xmlns="http://www.w3.org/2000/svg">
<path d="M16.9859 63.7914C16.9859 63.7914 7.37625 43.7086 17.9989 32.2865C27.4737 22.0978 28.6078 24.6463 33.6178 12.9186C35.7236 7.98525 39.9077 4.18699 45.0773 2.63166C50.0101 1.14728 56.5175 1.82944 60.4373 9.62243C61.5136 11.7644 62.1825 14.081 62.4716 16.4577C62.667 18.0676 62.8349 20.215 62.7386 22.3843C62.5101 27.5823 57.8553 30.0954 53.4042 28.7093C46.3903 26.5236 40.0398 24.1279 27.6582 34.8405C27.6582 34.8405 22.8987 39.6975 23.9448 48.8111C24.2944 51.8563 25.2523 54.8032 26.7195 57.5046L30.6393 64.4408L26.4965 68.4874C26.4965 68.4846 24.1044 59.7284 16.9859 63.7914Z" fill="#0129BD"/>
<path d="M27.1907 65.458C25.7785 62.552 22.2275 61.3542 19.3124 62.8304C16.568 64.2192 15.3953 67.5454 16.6671 70.3259C18.0159 73.281 21.5476 74.5389 24.4792 73.1391C25.1206 72.8335 25.6794 72.427 26.1446 71.9467L26.5273 72.326L29.5745 75.2375C29.5745 75.2375 38.0638 82.0563 51.1144 77.9115C63.24 74.0587 70.1714 61.4387 66.7167 49.2909C66.6727 49.1326 66.202 47.5009 66.1552 47.3399C63.8814 39.7734 62.7748 35.6722 60.7378 32.0704C58.3457 27.8383 53.7625 25.3088 48.8709 25.4998C42.6498 25.7427 33.6953 27.5136 27.6586 34.81C27.6586 34.81 15.6458 47.4299 26.7502 60.4401L29.3818 64.2929L27.4714 66.031L27.1907 65.458Z" fill="white"/>
<path d="M54.5569 77.4076C53.5274 77.8987 52.4566 78.3217 51.3527 78.6737C48.2917 79.6478 45.217 80.1062 42.2193 80.0434C39.8134 79.9916 37.4516 79.6041 35.1999 78.892C31.3461 77.675 29.1522 75.9341 29.0614 75.8604C29.0421 75.8468 29.0256 75.8304 29.0091 75.8141L26.116 73.0499C25.7196 73.3665 25.2874 73.6393 24.8222 73.8603C23.2036 74.6326 21.3841 74.7226 19.6967 74.1168C18.0093 73.5084 16.6714 72.2805 15.9282 70.6569C15.2263 69.1234 15.1519 67.3962 15.719 65.7945C16.2861 64.1928 17.4284 62.8858 18.9424 62.1217C20.5417 61.3113 22.3613 61.1776 24.0652 61.7452C25.6287 62.2664 26.9087 63.3169 27.7098 64.7276L28.3181 64.1737L26.0994 60.9239C23.4844 57.8487 21.9043 54.5307 21.4033 51.0598C21.0014 48.2712 21.2905 45.387 22.2704 42.4919C23.8725 37.7523 26.7518 34.598 27.0464 34.2814C33.2289 26.8268 42.3046 24.955 48.834 24.6985C51.383 24.5975 53.9072 25.1951 56.1287 26.4257C58.3556 27.6563 60.1889 29.4736 61.4359 31.6783C63.294 34.9663 64.395 38.65 66.2173 44.7567C66.4403 45.5016 66.6743 46.2875 66.922 47.1115C66.9743 47.2834 67.4478 48.9342 67.4863 49.0761C69.2123 55.1473 68.4938 61.546 65.4603 67.0933C62.9829 71.6229 59.1814 75.2001 54.5569 77.4076ZM30.0964 74.638C30.3331 74.8181 32.3729 76.3352 35.7587 77.3939C37.859 78.0488 40.0612 78.4035 42.3019 78.4472C45.1069 78.5018 47.9862 78.0652 50.86 77.1511C56.5333 75.3475 61.2129 71.5055 64.0427 66.332C66.8752 61.1504 67.5441 55.1746 65.9338 49.5073C65.8815 49.319 65.4218 47.7173 65.375 47.5672C65.1273 46.7404 64.8933 45.9573 64.6703 45.2096C62.8783 39.2121 61.7965 35.5912 60.0293 32.4587C58.9282 30.5132 57.3096 28.9088 55.3442 27.8228C53.3815 26.7368 51.1518 26.2101 48.8973 26.2975C42.6927 26.5403 34.0795 28.303 28.2768 35.3156C28.2658 35.3292 28.2521 35.3429 28.241 35.3565C28.2135 35.3865 25.3149 38.4781 23.7817 43.0513C22.8953 45.7008 22.6338 48.3312 23.0054 50.8661C23.4706 54.0341 24.9351 57.0819 27.3602 59.9252C27.3795 59.947 27.396 59.9688 27.4125 59.9934L30.0441 63.8462C30.267 64.1737 30.2147 64.6157 29.9229 64.8831L28.0126 66.6213C27.8254 66.7932 27.5666 66.8641 27.3161 66.8177C27.0656 66.7713 26.8537 66.6076 26.7436 66.3811L26.4656 65.8081C25.8765 64.5939 24.8415 63.6907 23.5559 63.2596C22.2677 62.8312 20.8941 62.9294 19.6829 63.5461C18.5405 64.1246 17.6762 65.1123 17.2468 66.3239C16.8173 67.5381 16.8751 68.8424 17.4037 70.002C17.9652 71.2299 18.9782 72.1604 20.2527 72.6188C21.53 73.0772 22.9063 73.009 24.1313 72.4251C24.6708 72.1659 25.1553 71.8221 25.5654 71.3964C25.7168 71.2409 25.9233 71.1535 26.138 71.1508C26.3554 71.1481 26.5619 71.2327 26.7161 71.3855L27.0932 71.7593L30.0964 74.638Z" fill="#0129BD"/>
<path d="M39.0552 36.8376C40.5912 37.1351 46.1159 41.4218 46.6389 54.0117C46.6747 54.8958 46.4214 55.7826 45.8599 56.4647C45.1442 57.3325 43.9164 57.9491 42.0308 56.2737C41.8354 56.0991 41.6702 55.8945 41.5409 55.668C41.1059 54.9012 40.0599 52.8875 39.4653 50.3008L43.1182 47.272L38.6395 46.7863C38.6395 46.7863 34.8986 41.6019 36.9796 37.9782C37.4008 37.2415 38.2184 36.6767 39.0552 36.8376Z" fill="#0129BD"/>
<path d="M60.1863 19.2465C60.1203 19.2792 60.0459 19.2983 59.9689 19.3038C59.6358 19.3283 59.3467 19.08 59.322 18.7499L59.3027 18.4743C59.0164 14.485 58.7659 11.0387 54.7029 7.00035C54.4662 6.76568 54.4662 6.3864 54.7029 6.15447C54.9397 5.9198 55.3223 5.92253 55.5563 6.15447C59.9386 10.5066 60.2138 14.3349 60.5056 18.3897L60.5249 18.6653C60.5469 18.9163 60.4038 19.1455 60.1863 19.2465Z" fill="white"/>
<path d="M53.6013 33.3423C53.6013 33.3423 60.3812 35.1705 60.6757 49.051C60.6867 49.534 60.5766 50.0143 60.3426 50.4372C59.8499 51.3295 58.7819 52.4537 56.8357 51.0129C53.9454 48.8682 53.7141 44.3496 53.7141 44.3496L56.332 42.4859L52.2855 41.7519C52.2855 41.7492 48.6299 32.4445 53.6013 33.3423Z" fill="#0129BD"/>
<path d="M17.1456 57.215C17.1208 57.2259 17.096 57.2368 17.0712 57.245C16.7547 57.3487 16.4133 57.1768 16.3087 56.863C15.0508 53.0538 14.2745 46.5133 15.1196 42.8487C15.1939 42.5267 15.5187 42.3248 15.8435 42.3985C16.1684 42.4721 16.3721 42.7941 16.2977 43.1161C15.6508 45.9184 15.9619 51.9623 17.4594 56.4919C17.553 56.7784 17.4153 57.0867 17.1456 57.215Z" fill="white"/>
<path d="M59.8629 21.381C60.2521 21.381 60.5676 21.0682 60.5676 20.6824C60.5676 20.2966 60.2521 19.9839 59.8629 19.9839C59.4737 19.9839 59.1582 20.2966 59.1582 20.6824C59.1582 21.0682 59.4737 21.381 59.8629 21.381Z" fill="white"/>
<path d="M17.5231 59.8404C17.9122 59.8404 18.2277 59.5277 18.2277 59.1419C18.2277 58.7561 17.9122 58.4434 17.5231 58.4434C17.1339 58.4434 16.8184 58.7561 16.8184 59.1419C16.8184 59.5277 17.1339 59.8404 17.5231 59.8404Z" fill="white"/>
<path d="M54.2355 60.9869C54.0538 60.9869 53.8693 60.9759 53.6822 60.9514C53.2115 60.8886 52.8811 60.4602 52.9444 59.9909C53.0077 59.5243 53.4427 59.1914 53.9134 59.2596C55.2292 59.4343 56.4459 58.5147 56.6248 57.2104C56.7101 56.5774 56.5422 55.9498 56.1513 55.4423C55.7605 54.9347 55.1934 54.61 54.5548 54.5227C53.2335 54.3453 52.0223 55.2676 51.8434 56.5719C51.78 57.0385 51.3451 57.3687 50.8744 57.3032C50.4037 57.2404 50.0734 56.812 50.1367 56.3427C50.4395 54.1052 52.5233 52.5253 54.7832 52.8282C55.8788 52.9728 56.8478 53.5322 57.5194 54.4026C58.1883 55.2731 58.4774 56.3482 58.3315 57.4342C58.0507 59.4888 56.2725 60.9869 54.2355 60.9869Z" fill="#0129BD"/>
<path d="M20.2197 69.0134C20.0876 69.0134 19.9527 68.9779 19.8288 68.9042C19.4737 68.6914 19.3609 68.233 19.5756 67.8783C20.3546 66.6067 21.7172 65.8481 23.2174 65.8481C23.633 65.8481 23.9689 66.181 23.9689 66.5931C23.9689 67.0051 23.633 67.338 23.2174 67.338C22.2484 67.338 21.3676 67.8291 20.8611 68.6532C20.7234 68.8851 20.4729 69.0134 20.2197 69.0134Z" fill="#0129BD"/>
<path d="M39.4191 64.7925C39.4191 64.7925 45.7861 71.7232 57.3777 68.0832C57.3777 68.0832 54.6498 75.6852 45.6595 72.9593C37.8886 70.6018 39.4191 64.7925 39.4191 64.7925Z" fill="#0129BD"/>
<path d="M47.9451 74.7906C47.2047 74.7906 46.4752 74.6897 45.765 74.4905C45.6686 74.4605 37.1132 71.7973 38.0712 63.303C37.9914 63.022 37.4243 62.2334 36.827 61.5785C36.5737 61.303 36.5682 60.8827 36.8105 60.599C37.0527 60.3152 37.4711 60.2497 37.7904 60.4516C37.9033 60.5226 49.1756 67.5488 58.4742 64.6264C59.5836 64.2772 60.6544 63.6823 61.6508 62.8555C61.9701 62.5936 62.4409 62.6345 62.7079 62.9483C62.9749 63.2621 62.9336 63.7314 62.617 63.9961L61.4829 64.9348C61.1223 65.4941 59.3964 68.0727 56.8584 70.4657C53.8277 73.3253 50.7859 74.7906 47.9451 74.7906ZM39.5659 63.1339C39.5797 63.2348 39.5824 63.3303 39.5714 63.4177C38.7153 70.7031 45.8834 72.9652 46.1889 73.0579C51.3255 74.5123 56.3877 69.1696 58.8045 66.0835C51.5787 68.291 43.5793 65.1394 39.5659 63.1339ZM38.0794 63.3276H38.0822H38.0794Z" fill="#0129BD"/>
</svg>
