<svg width="400" height="400" xmlns="http://www.w3.org/2000/svg" id="CIRCLE_OUTLINE_BLACK" viewBox="0 0 512 512"><circle cx="256" cy="256" r="256" fill="#232020" stroke-width="0"/><path d="m365.12909,195.22223c-20.30447,0-38.35015,9.67232-49.9072,24.60625l-20.0044,19.9078-23.59092-24.20135,14.77362-16.18562c19.1165-10.8644,32.065-31.38058,32.065-54.89751,0-34.81706-28.32226-63.13933-63.13933-63.13933s-63.13933,28.32226-63.13933,63.13933c0,16.6604,6.5318,31.78958,17.11051,43.08355l-.11715.1151,27.73444,28.45175-21.63221,23.6978-14.69346-14.45299c-11.12748-18.03746-31.01062-30.12478-53.71776-30.12478-34.81706,0-63.13933,28.32226-63.13933,63.13933s28.32226,63.13933,63.13933,63.13933c17.72094,0,33.73186-7.36009,45.2108-19.15555l.16648.15209,24.01432-26.30805,21.28486,20.93751-20.19965,20.09894c-15.24634,11.53649-25.16119,29.76921-25.16119,50.32237,0,34.81706,28.32226,63.13933,63.13933,63.13933s63.13933-28.32226,63.13933-63.13933c0-18.50607-8.05273-35.12536-20.77925-46.68446l-24.23013-23.83756,21.49039-21.38557,18.82053,19.30559c11.46045,16.0438,30.18644,26.55469,51.36236,26.55469,34.81706,0,63.13933-28.32226,63.13933-63.13933s-28.32226-63.13933-63.13933-63.13933Zm-109.80324-88.65403c20.89024,0,37.8836,16.99336,37.8836,37.8836s-16.99336,37.8836-37.8836,37.8836-37.8836-16.99336-37.8836-37.8836,16.99336-37.8836,37.8836-37.8836Zm-146.33855,151.79336c0-20.89024,16.99336-37.8836,37.8836-37.8836s37.8836,16.99336,37.8836,37.8836-16.99336,37.8836-37.8836,37.8836-37.8836-16.99336-37.8836-37.8836Zm146.33855,147.07024c-20.89024,0-37.8836-16.99336-37.8836-37.8836,0-10.03817,3.99143-19.11445,10.38552-25.9011l.39257.39462,5.8741-5.84532c6.05907-4.1168,13.36778-6.5318,21.23142-6.5318,9.90457,0,18.85753,3.9051,25.61541,10.14915l1.21058,1.19208.0781-.0781c6.77432,6.84832,10.9795,16.24728,10.9795,26.62046,0,20.89024-16.99336,37.8836-37.8836,37.8836Zm.12332-126.11834l-22.15015-21.78841,21.27253-23.30524,22.74413,23.33196-21.86651,21.76169Zm109.67992,16.9317c-20.89024,0-37.8836-16.99336-37.8836-37.8836,0-8.20482,2.68835-15.75606,7.13606-21.96517l5.1794-5.15268-.35763-.35968c6.78666-6.40642,15.87527-10.40607,25.92576-10.40607,20.89024,0,37.8836,16.99336,37.8836,37.8836s-16.99336,37.8836-37.8836,37.8836Z" fill="#f1e1d4" stroke-width="0"/></svg>