<svg xmlns="http://www.w3.org/2000/svg" xmlns:xlink="http://www.w3.org/1999/xlink" width="416" zoomAndPan="magnify" viewBox="0 0 312 311.999988" height="416" preserveAspectRatio="xMidYMid meet" version="1.0"><defs><clipPath id="0bbe78c432"><path d="M 9 9 L 179 9 L 179 179 L 9 179 Z M 9 9 " clip-rule="nonzero"/></clipPath><clipPath id="cf40f991cc"><path d="M 31.804688 187.746094 L -0.0078125 155.9375 L 155.945312 -0.0117188 L 187.753906 31.796875 Z M 31.804688 187.746094 " clip-rule="nonzero"/></clipPath><clipPath id="07593b0b66"><path d="M 15.898438 171.84375 C 7.113281 163.058594 7.113281 148.816406 15.898438 140.03125 L 140.039062 15.894531 C 148.820312 7.109375 163.0625 7.109375 171.847656 15.894531 C 180.632812 24.675781 180.632812 38.917969 171.847656 47.703125 L 47.710938 171.84375 C 38.925781 180.625 24.683594 180.625 15.898438 171.84375 Z M 15.898438 171.84375 " clip-rule="nonzero"/></clipPath><clipPath id="e612c37db7"><path d="M 133 9 L 303 9 L 303 179 L 133 179 Z M 133 9 " clip-rule="nonzero"/></clipPath><clipPath id="58517ef86b"><path d="M 124.207031 31.804688 L 156.015625 -0.00390625 L 311.964844 155.945312 L 280.15625 187.753906 Z M 124.207031 31.804688 " clip-rule="nonzero"/></clipPath><clipPath id="355993d998"><path d="M 140.109375 15.898438 C 148.894531 7.117188 163.136719 7.117188 171.921875 15.898438 L 296.058594 140.039062 C 304.84375 148.824219 304.84375 163.066406 296.058594 171.847656 C 287.277344 180.632812 273.035156 180.632812 264.25 171.847656 L 140.109375 47.710938 C 131.328125 38.925781 131.328125 24.683594 140.109375 15.898438 Z M 140.109375 15.898438 " clip-rule="nonzero"/></clipPath><clipPath id="0431cb9587"><path d="M 133 133 L 303 133 L 303 303 L 133 303 Z M 133 133 " clip-rule="nonzero"/></clipPath><clipPath id="8225c27909"><path d="M 156.015625 311.679688 L 124.144531 279.808594 L 280.140625 123.816406 L 312.011719 155.6875 Z M 156.015625 311.679688 " clip-rule="nonzero"/></clipPath><clipPath id="a0017e438c"><path d="M 140.082031 295.746094 C 135.855469 291.519531 133.480469 285.785156 133.480469 279.808594 C 133.480469 273.832031 135.855469 268.101562 140.082031 263.875 L 264.15625 139.796875 C 268.382812 135.570312 274.117188 133.195312 280.09375 133.195312 C 286.070312 133.195312 291.804688 135.570312 296.03125 139.796875 C 300.257812 144.023438 302.628906 149.753906 302.628906 155.730469 C 302.628906 161.710938 300.257812 167.441406 296.03125 171.667969 L 171.953125 295.746094 C 167.726562 299.972656 161.992188 302.347656 156.015625 302.347656 C 150.039062 302.347656 144.308594 299.972656 140.082031 295.746094 Z M 140.082031 295.746094 " clip-rule="nonzero"/></clipPath><clipPath id="27df42e0d5"><path d="M 51 175 L 179 175 L 179 303 L 51 303 Z M 51 175 " clip-rule="nonzero"/></clipPath><clipPath id="ba6cb6bec8"><path d="M 42.125 197.863281 L 73.9375 166.054688 L 187.761719 279.878906 L 155.949219 311.6875 Z M 42.125 197.863281 " clip-rule="nonzero"/></clipPath><clipPath id="56dfad1b0a"><path d="M 58.03125 181.957031 C 66.816406 173.175781 81.058594 173.175781 89.84375 181.957031 L 171.851562 263.96875 C 180.636719 272.753906 180.636719 286.996094 171.851562 295.78125 C 163.070312 304.566406 148.828125 304.566406 140.042969 295.78125 L 58.03125 213.769531 C 49.246094 204.984375 49.246094 190.742188 58.03125 181.957031 Z M 58.03125 181.957031 " clip-rule="nonzero"/></clipPath><clipPath id="aadba9fb3d"><path d="M 100 167 L 188 167 L 188 255 L 100 255 Z M 100 167 " clip-rule="nonzero"/></clipPath><clipPath id="a113b96ea3"><path d="M 123.0625 263.675781 L 91.222656 231.835938 L 164.851562 158.203125 L 196.691406 190.046875 Z M 123.0625 263.675781 " clip-rule="nonzero"/></clipPath><clipPath id="e3c586f32d"><path d="M 107.140625 247.753906 C 98.347656 238.964844 98.347656 224.707031 107.140625 215.914062 L 148.824219 174.230469 C 157.617188 165.441406 171.871094 165.441406 180.664062 174.230469 C 189.457031 183.023438 189.457031 197.28125 180.664062 206.074219 L 138.980469 247.753906 C 130.1875 256.546875 115.933594 256.546875 107.140625 247.753906 Z M 107.140625 247.753906 " clip-rule="nonzero"/></clipPath><clipPath id="e6b27b4cce"><path d="M 51 103 L 169 103 L 169 220 L 51 220 Z M 51 103 " clip-rule="nonzero"/></clipPath><clipPath id="d0c56f91a6"><path d="M 74.152344 229.265625 L 42.121094 197.234375 L 145.597656 93.757812 L 177.628906 125.789062 Z M 74.152344 229.265625 " clip-rule="nonzero"/></clipPath><clipPath id="5d80fe1e4a"><path d="M 58.136719 213.25 C 49.292969 204.40625 49.292969 190.0625 58.136719 181.21875 L 129.464844 109.890625 C 138.308594 101.046875 152.648438 101.046875 161.496094 109.890625 C 170.339844 118.738281 170.339844 133.078125 161.496094 141.921875 L 90.167969 213.25 C 81.324219 222.09375 66.984375 222.09375 58.136719 213.25 Z M 58.136719 213.25 " clip-rule="nonzero"/></clipPath></defs><g clip-path="url(#0bbe78c432)"><g clip-path="url(#cf40f991cc)"><g clip-path="url(#07593b0b66)"><path fill="#ffbd59" d="M 31.804688 187.746094 L -0.0078125 155.9375 L 155.945312 -0.0117188 L 187.753906 31.796875 Z M 31.804688 187.746094 " fill-opacity="1" fill-rule="nonzero"/></g></g></g><g clip-path="url(#e612c37db7)"><g clip-path="url(#58517ef86b)"><g clip-path="url(#355993d998)"><path fill="#ff914d" d="M 124.207031 31.804688 L 156.015625 -0.00390625 L 311.964844 155.945312 L 280.15625 187.753906 Z M 124.207031 31.804688 " fill-opacity="1" fill-rule="nonzero"/></g></g></g><g clip-path="url(#0431cb9587)"><g clip-path="url(#8225c27909)"><g clip-path="url(#a0017e438c)"><path fill="#004aad" d="M 156.015625 311.679688 L 124.144531 279.808594 L 280.140625 123.816406 L 312.011719 155.6875 Z M 156.015625 311.679688 " fill-opacity="1" fill-rule="nonzero"/></g></g></g><g clip-path="url(#27df42e0d5)"><g clip-path="url(#ba6cb6bec8)"><g clip-path="url(#56dfad1b0a)"><path fill="#004aad" d="M 42.125 197.863281 L 73.9375 166.054688 L 187.761719 279.878906 L 155.949219 311.6875 Z M 42.125 197.863281 " fill-opacity="1" fill-rule="nonzero"/></g></g></g><g clip-path="url(#aadba9fb3d)"><g clip-path="url(#a113b96ea3)"><g clip-path="url(#e3c586f32d)"><path fill="#004aad" d="M 123.0625 263.675781 L 91.222656 231.835938 L 164.726562 158.328125 L 196.566406 190.167969 Z M 123.0625 263.675781 " fill-opacity="1" fill-rule="nonzero"/></g></g></g><g clip-path="url(#e6b27b4cce)"><g clip-path="url(#d0c56f91a6)"><g clip-path="url(#5d80fe1e4a)"><path fill="#004aad" d="M 74.152344 229.265625 L 42.121094 197.234375 L 145.472656 93.882812 L 177.503906 125.914062 Z M 74.152344 229.265625 " fill-opacity="1" fill-rule="nonzero"/></g></g></g></svg>