<svg fill="none" height="24" viewBox="0 0 24 24" width="24" xmlns="http://www.w3.org/2000/svg" xmlns:xlink="http://www.w3.org/1999/xlink"><clipPath id="a"><path d="m.783203.824219h22.4336v22.3515h-22.4336z"/></clipPath><g clip-path="url(#a)"><path d="m20.4113 12.5663-12.35445 7.1328c-.85319.4926-1.14565 1.5833-.65322 2.4362.49241.8529 1.58325 1.145 2.43645.6524l12.35442-7.1328c.8532-.4926 1.1457-1.5833.6532-2.4363-.4924-.8528-1.5832-1.1449-2.4364-.6523z" fill="#ff7829"/><path d="m11.8664 10.2859-9.26578 5.3496c-.85318.4926-1.14566 1.5833-.65324 2.4362s1.58327 1.145 2.43647.6524l9.26585-5.3496c.8531-.4926 1.1456-1.5834.6532-2.4363-.4924-.8528-1.5833-1.14493-2.4365-.6523z" fill="#fcbf22"/><path d="m14.1579 1.73447-12.3544 7.13285c-.853193.49257-1.145655 1.58328-.65324 2.43618.49242.8529 1.58326 1.145 2.43645.6524l12.35449-7.13283c.8531-.49257 1.1456-1.58332.6532-2.43621s-1.5833-1.14498-2.4365-.65239z" fill="#2ae5b9"/></g></svg>