<svg preserveAspectRatio="xMidYMid meet" data-bbox="73.5 11.971 671.867 855.539" viewBox="0 0 848 848" xmlns="http://www.w3.org/2000/svg" data-type="ugc" role="presentation" aria-hidden="true" aria-label="">
    <g>
        <path d="m235.5 769 20.91 98.5h44.24L261.5 699c-8.67 23.33-17.33 46.67-26 70z" fill="#19a29b"></path>
        <path d="M509.5 674c29.12 25.11 58.25 50.22 87.37 75.34L581.23 867.5h38.31l19.53-140.43L545.51 651c-12.01 7.67-24.01 15.33-36.01 23z" fill="#19a29b"></path>
        <path d="M664.68 605.27 685.5 504c-15.24-13.28-30.48-26.56-45.71-39.84 12.96-5.06 55.77-23.63 82.71-71.16 8.55-15.09 32.06-55.74 19-104-7.07-26.13-21.96-43.83-31-53 2.17 14.89 7.66 65.54-23 117-26.05 43.74-63.57 63.48-78.22 70.26H398.85L248.79 250.29c-18.78 22.75-58.97 29.83-58.97 29.83a138.68 138.68 0 0 0 33.89-20.73c19.32-16.05 30.11-33.97 35.79-45.39-25.07 8.05-50.76 15.42-77.1 22.03-1.3.33-2.6.65-3.9.97-.51-16.46 1-47.02 19.37-76.6 2.12-3.41 10.52-16.55 26.63-30.4 104.44-89.77 225-82 225-82 114.32 7.37 187.94 88.42 191 84 3.15-4.54-63.97-88.3-172-113-142.49-32.58-283.94 54.65-329 127-14.84 23.83-30.83 49.51-33 80-.45 6.26-1.55 30.21-4.41 76.38v.04C99.07 351.22 88.86 391.94 73.5 426l67 3c5.54-13.37 11.08-26.73 16.63-40.1l57.19-47.48-48.47 55.1v50.12l-.09.07v76.55c.25 6.25.49 12.5.74 18.74 28.31-30.71 56.63-61.42 84.94-92.12h74.39l-69.54 7.43-86.19 96.52 21.43 150.95-47.35 162.72h42.09l47.54-122.34 27.45-70.62 13.5-34.74L310 548.71l-17.81 93.16L392.51 677l109.97-10.17 36.3-23.68-53.58-54.78 49.61 37.56 14.06 10.64 92.93 70.98 44.12 33.7-8.63 126.26h35.61l10.55-120.73-58.77-141.51z" fill="#19a29b"></path>
        <linearGradient gradientTransform="matrix(.9864 -.684 .5778 .8333 -166.798 148.33)" y2="307.269" x2="173.959" y1="307.269" x1="115.726" gradientUnits="userSpaceOnUse" id="caf9b39e-0835-447a-99db-246dc2eab402_comp-l95am5iy">
            <stop offset="0" stop-color="#19a29b"></stop>
            <stop offset="1" stop-color="#ffffff"></stop>
        </linearGradient>
        <path d="M185.7 290.35c1.87 4.78-11.52 16.48-23.95 23.03-16.3 8.6-38.22 12.16-40.24 6.84-2.42-6.37 22.86-27.45 48.27-31.45 3.39-.54 14.42-2.28 15.92 1.58z" fill-rule="evenodd" clip-rule="evenodd" fill="url(#caf9b39e-0835-447a-99db-246dc2eab402_comp-l95am5iy)"></path>
    </g>
</svg>