<svg xmlns="http://www.w3.org/2000/svg" width="240" height="240" viewBox="0 0 31 31" fill="none">
<path fill-rule="evenodd" clip-rule="evenodd" d="M16.7513 2.88602L20.9347 7.06945C20.9588 7.09355 20.9588 7.13263 20.9347 7.15673L10.7203 17.3712C10.6814 17.4101 10.6149 17.3826 10.6149 17.3276V6.42966C10.6149 6.4133 10.6214 6.3976 10.633 6.38602L14.133 2.88602C14.856 2.16299 16.0283 2.16299 16.7513 2.88602ZM17.5194 15.896C17.4953 15.8719 17.4953 15.8328 17.5194 15.8087L23.5531 9.77505C23.5772 9.75095 23.6162 9.75095 23.6403 9.77505L27.9977 14.1324C28.7207 14.8554 28.7207 16.0277 27.9977 16.7507L23.2295 21.5189C23.2054 21.543 23.1663 21.543 23.1422 21.5189L17.5194 15.896ZM14.9011 18.5143C14.877 18.4902 14.8379 18.4902 14.8138 18.5143L9.77566 23.5524C9.75156 23.5765 9.75156 23.6156 9.77566 23.6397L14.133 27.9971C14.856 28.7201 16.0283 28.7201 16.7513 27.9971L20.5239 24.2245C20.548 24.2004 20.548 24.1613 20.5239 24.1372L14.9011 18.5143ZM6.91205 10.2559C6.91205 10.201 6.84558 10.1734 6.8067 10.2123L2.88663 14.1324C2.1636 14.8554 2.1636 16.0277 2.88663 16.7507L6.8067 20.6708C6.84558 20.7096 6.91205 20.6821 6.91205 20.6271V10.2559Z" fill="url(#paint0_linear_17428_31975)"/>
<defs>
<linearGradient id="paint0_linear_17428_31975" x1="5.06088" y1="4.76022" x2="16.2871" y2="17.3414" gradientUnits="userSpaceOnUse">
<stop offset="0.839326" stop-color="#26E5F1"/>
<stop offset="0.9375" stop-color="#389AFF"/>
</linearGradient>
</defs>
</svg>