<svg xmlns="http://www.w3.org/2000/svg" width="400" height="400" fill="none" viewBox="-8 0 42 38" class="header-content_textLogo__4DBN3">
<circle cx="13" cy="19" r="21" fill="white"/>
<g fill="currentColor" clip-path="url(#i0)"><path fill-rule="evenodd" d="m12.967 0 9.164 14.258-9.164 5.305-9.164-5.305L12.967 0Zm-6.36 13.58 6.36-9.891 6.36 9.892-6.36 3.68-6.36-3.68Z" clip-rule="evenodd"></path><path d="M12.959 22.697 2.328 16.544l-.287.448A12.828 12.828 0 0 0 3.795 33.03c5.057 5.027 13.262 5.027 18.328 0a12.807 12.807 0 0 0 1.754-16.038l-.287-.448-10.631 6.153ZM58.902"></path></g><defs><clipPath id="i0"><path fill="#fff" d="M0 0h140v36.8H0z"></path></clipPath></defs></svg>