<svg xmlns="http://www.w3.org/2000/svg" width="240" height="120" fill="none" viewBox="0 0 44 24" class="h-12">
  <path fill="#62C400" d="M24.639 7.717 44.349.375 19.712 19.954v-7.342L0 19.954 24.639.375zM72.685 2.822H70.22V5.27h2.463zM102.867 8.533c0-1.352 1.655-2.447 3.696-2.447s3.696 1.095 3.696 2.447h2.463c0-2.702-2.757-4.895-6.159-4.895s-6.16 1.836-6.16 4.895c0 3.498 3.007 3.715 5.798 3.917 2.415.174 4.674.337 4.674 2.61 0 1.351-1.93 2.447-4.312 2.447s-4.312-1.096-4.312-2.448h-2.464c0 2.703 3.033 4.895 6.776 4.895s6.775-2.192 6.775-4.895c0-3.644-3.265-3.977-6.15-4.283-2.28-.231-4.321-.442-4.321-2.243M125.066 7.717l2.635 9.207 2.772-9.207h2.576l-3.956 12.237h-2.7l-2.583-8.812-2.581 8.812h-2.704L114.57 7.717h2.577l2.772 9.209 2.634-9.209zM93.627 4.046h-2.463V6.9a.81.81 0 0 1-.241.577.82.82 0 0 1-.58.239H88.7v2.447h2.463v7.342c0 .65.26 1.272.722 1.731a2.47 2.47 0 0 0 1.742.717h3.696v-2.448H94.86c-.326 0-.64-.128-.87-.358a1.22 1.22 0 0 1-.362-.865v-6.119h3.696V7.717h-3.696zM82.745 7.105c-.769 0-1.526.187-2.206.544a4.7 4.7 0 0 0-1.695 1.504V7.717H76.38v12.237h2.464v-7.75c0-.811.325-1.59.902-2.163a3.09 3.09 0 0 1 4.356 0 3.05 3.05 0 0 1 .902 2.163v7.75h2.464v-8.158a4.68 4.68 0 0 0-1.383-3.317 4.74 4.74 0 0 0-3.34-1.374M70.22 7.717h2.465v12.237H70.22zM57.901 16.772 62.83 4.046h3.696v15.908H64.06V7.146l-4.928 12.808h-2.464L51.741 7.146v12.808h-2.463V4.046h3.695z"></path>
  <path fill="#62C400" fill-rule="evenodd" d="M139.363 19.954c1.643 0 3.118-.781 4.158-2.031v2.031h2.464V7.717h-2.464v1.42c-1.04-1.25-2.517-2.032-4.158-2.032-3.147 0-5.698 2.877-5.698 6.425s2.551 6.424 5.698 6.424m.462-2.447c2.041 0 3.696-1.78 3.696-3.977s-1.655-3.977-3.696-3.977-3.696 1.78-3.696 3.977 1.655 3.977 3.696 3.977M152.145 17.923c1.04 1.25 2.517 2.031 4.157 2.031 3.147 0 5.698-2.876 5.698-6.424s-2.551-6.425-5.698-6.425c-1.642 0-3.117.782-4.157 2.032v-1.42h-2.464v15.908h2.464zm0-4.393c0 2.196 1.654 3.977 3.695 3.977s3.696-1.78 3.696-3.977-1.655-3.977-3.696-3.977-3.695 1.78-3.695 3.977" clip-rule="evenodd"></path>
</svg>
