
<svg version="1.1" id="QuickSwap" xmlns="http://www.w3.org/2000/svg" xmlns:xlink="http://www.w3.org/1999/xlink" 
	 width="400" height="400" viewBox="31 80 72 40"  >
<circle fill-rule="evenodd" clip-rule="evenodd" fill="#FFFFFF" cx="67.379" cy="99.609" r="35.538"/>
<path fill-rule="evenodd" clip-rule="evenodd" fill="#172C5F" d="M47.436,97.818c3.512-2.919,7.642-4.184,12.12-4.464
	c2.946-0.185,5.851,0.159,8.715,0.864c0.355,0.087,0.708,0.308,1.169,0.06c-0.811-2.059-2.866-2.765-4.606-4.172
	c4.594-0.343,8.764,0.477,12.55,2.558c7.377,4.057,11.381,10.415,11.633,18.849c0.246,8.177-5.223,14.754-13.789,17.057
	c-17.229,4.633-34.787-6.9-37.512-24.623c-0.197-1.278-0.469-2.542-0.268-3.843c0.517,0.371,0.681,0.964,0.941,1.495
	c1.056,2.147,2.297,4.176,3.812,6.036c6.643,8.153,17.357,9.119,24.49,4.283c1.609-1.091,2.894-2.445,3.821-4.134
	c1.709-3.112,0.592-7.651-2.327-8.976c-3.485-1.58-7.165-2.043-10.952-1.338c-1.063,0.199-2.113,0.424-2.878,1.335
	c-0.755,0.897,0.175,1.685,0.201,2.658C51.652,101.048,49.167,100.183,47.436,97.818z"/>
<path fill-rule="evenodd" clip-rule="evenodd" fill="#428AC9" d="M47.436,97.818c1.731,2.364,4.216,3.229,7.121,3.646
	c-0.026-0.974-0.956-1.761-0.201-2.658c0.765-0.911,1.815-1.136,2.878-1.335c3.788-0.705,7.467-0.242,10.952,1.338
	c2.919,1.324,4.036,5.863,2.327,8.976c-0.927,1.688-2.211,3.043-3.821,4.134c-7.133,4.836-17.847,3.87-24.49-4.283
	c-1.515-1.86-2.756-3.889-3.812-6.036c-0.26-0.531-0.425-1.124-0.941-1.495c0.141-21.019,20.621-35.643,40.03-28.393
	c-1.783,2.342-3.919,4.193-6.307,5.78c-0.49,0.325-0.754,0.262-0.868-0.381c-0.162-0.906-0.443-1.783-1.117-2.629
	c-2.203,3.737-6.108,4.794-9.644,6.408c-1.59,0.725-2.648,1.784-2.882,3.612c-0.144,1.127,1.045,1.533,1.328,2.824
	c-1.367-1.129-2.049-0.313-2.832,0.402c-0.552,0.504-1.22,0.901-1.884,1.257c-0.821,0.44-1.737,0.821-2.613,0.235
	c-0.845-0.565-0.343-1.475-0.315-2.26c-4.022,1.424-6.234,7.358-4.406,11.793C46.44,98.439,46.938,98.129,47.436,97.818z"/>
<path fill-rule="evenodd" clip-rule="evenodd" fill="#428AC9" d="M80.396,73.077c5.214,2.23,9.092,6.014,12.091,10.702
	c4.517,7.064,5.557,14.761,3.77,22.904c-0.489-2.442-0.988-4.866-1.955-7.183c-1.479-3.54-3.944-6.296-6.722-8.827
	c1.987-0.19,3.774,0.922,5.834,1.001c-0.108-0.276-0.124-0.458-0.223-0.546c-0.317-0.28-0.664-0.525-1-0.783
	c0.16-0.959-0.62-1.291-1.184-1.759c-4.785-3.968-10.303-6.229-16.439-7.052c0.788-0.791,1.637-1.51,2.387-2.354
	C78.552,77.382,79.415,75.204,80.396,73.077z"/>
<path fill-rule="evenodd" clip-rule="evenodd" fill="#172C5F" d="M80.396,73.077c-0.98,2.127-1.843,4.305-3.441,6.104
	c-0.75,0.844-1.599,1.563-2.387,2.354c-2.026,1.084-3.715,2.803-6.093,3.178c0.091-0.193,0.228-0.426,0.314-0.676
	c0.701-2.027,2.134-3.241,4.039-4.21c2.228-1.131,4.011-2.899,5.389-5.024c0.137-0.063,0.283-0.159,0.152-0.307
	c-0.05-0.056-0.253,0.024-0.386,0.042c-0.36,0.009-0.697,0.335-1.199,0.013c1.853-2,3.033-4.383,4.111-7.281
	C81.405,69.545,80.377,71.27,80.396,73.077z"/>
<path fill-rule="evenodd" clip-rule="evenodd" fill="#172C5F" d="M92.191,90.346c0.336,0.258,0.683,0.503,1,0.783
	c0.099,0.088,0.115,0.27,0.223,0.546c-2.06-0.079-3.847-1.191-5.834-1.001c-2.063-1.238-4.056-2.611-6.397-3.383
	c2.055-0.371,3.757,0.816,5.611,1.307c0.128,0.033,0.256,0.068,0.383,0.104c-0.002-0.145-0.004-0.289-0.006-0.433
	c0.317-0.47,0.335-0.503,0.659-0.327C89.289,88.731,90.738,89.541,92.191,90.346z"/>
<path fill-rule="evenodd" clip-rule="evenodd" fill="#172C5F" d="M64.448,82.232c0.666-0.439,1.34-0.86,2.148-1.035
	c-0.092,2.416-2.022,4.051-5.149,4.398c-0.1-0.74,0.608-0.631,0.953-0.832C63.417,84.168,64.212,83.439,64.448,82.232z"/>
<path fill-rule="evenodd" clip-rule="evenodd" fill="#428AC9" d="M64.448,82.232c-0.236,1.207-1.031,1.936-2.048,2.531
	c-0.345,0.201-1.053,0.092-0.953,0.832c-0.506,0.281-1.116,0.444-1.441-0.09c-0.322-0.531,0.129-1.052,0.532-1.413
	C61.652,83.092,63,82.548,64.448,82.232z"/>
<path fill-rule="evenodd" clip-rule="evenodd" fill="#428AC9" d="M47.884,93.066c0.433-1.39,0.938-2.11,2.124-2.106
	c0.386,0.001,0.753-0.12,0.788,0.433c0.03,0.464-0.052,0.965-0.64,0.844C49.344,92.069,48.76,92.501,47.884,93.066z"/>
<path fill="#FFFFFF" d="M318.99,85.482c0.723-0.1,0.621-0.633,0.609-1.111c-0.016-0.719-0.588-0.506-0.965-0.51
	c-2.173-0.02-4.347-0.016-6.52-0.002c-0.39,0.002-0.879-0.162-0.928,0.554c-0.047,0.712,0.338,0.761,0.877,0.815
	c1.496,0.15,1.903,1.049,1.56,2.41c-0.173,0.683-0.304,1.381-0.528,2.047c-1.709,5.083-3.439,10.159-5.159,15.239
	c-0.089,0.264-0.15,0.525-0.455,0.52c-2.323-5.39-3.808-11.054-5.73-16.567c-0.213-0.61-0.334-1.258-0.452-1.896
	c-0.193-1.045,0.208-1.688,1.315-1.789c0.461-0.042,1.018,0.133,1.017-0.67c-0.003-0.951-0.703-0.65-1.162-0.654
	c-2.826-0.023-5.651-0.025-8.477,0.006c-0.404,0.005-1.023-0.333-1.172,0.457c-0.141,0.752,0.357,0.867,0.906,1.047
	c1.849,0.607,4.04,4.357,3.425,6.172c-1.572,4.64-3.288,9.231-5.097,14.264c-2.068-6.15-4.293-11.783-6.037-17.586
	c-0.424-1.41-0.519-2.628,1.449-2.823c0.589-0.059,0.552-0.547,0.564-0.995c0.016-0.592-0.385-0.546-0.762-0.547
	c-3.042,0-6.086,0.001-9.128,0.004c-0.382,0-0.769-0.021-0.771,0.557c-0.002,0.423,0.064,0.743,0.545,0.846
	c2.088,0.448,2.684,2.166,3.288,3.877c2.849,8.072,5.691,16.145,8.562,24.208c0.176,0.496,0.155,1.196,1.06,1.2
	c0.903,0.003,0.885-0.691,1.062-1.187c1.471-4.135,2.902-8.282,4.355-12.423c0.732-2.082,1.487-4.154,2.322-6.479
	c2.287,6.415,4.462,12.537,6.662,18.649c0.213,0.592,0.112,1.457,1.191,1.438c0.996-0.017,0.892-0.839,1.094-1.368
	c0.635-1.671,1.172-3.377,1.759-5.065c2.249-6.443,4.489-12.89,6.767-19.321C316.561,87.318,317.072,85.747,318.99,85.482z"/>
<path fill="#FFFFFF" d="M239.885,112.27c-2.423-0.641-2.667-0.956-2.672-3.471c-0.013-6.356-0.008-12.713,0.002-19.07
	c0.002-0.594,0.1-1.188,0.142-1.782c0.109-1.495,0.813-2.421,2.383-2.597c0.521-0.059,1.092-0.133,0.989-0.95
	c-0.105-0.839-0.725-0.498-1.115-0.501c-3.043-0.028-6.085-0.027-9.128,0.006c-0.395,0.006-1.016-0.342-1.16,0.451
	c-0.146,0.789,0.417,0.906,0.949,1c1.446,0.252,2.263,1.132,2.269,2.553c0.03,7.008,0.024,14.016-0.022,21.023
	c-0.012,1.801-0.727,3.182-2.78,3.371c-0.64,0.059-0.774,0.448-0.747,1.018c0.038,0.725,0.573,0.513,0.95,0.517
	c1.629,0.021,3.259,0.01,4.89,0.01c0,0.002,0,0.004,0,0.006c1.63,0,3.26,0.012,4.89-0.008c0.429-0.007,1.015,0.222,1.013-0.625
	C240.735,112.58,240.425,112.414,239.885,112.27z"/>
<path fill="#FFFFFF" d="M272.493,98.306c-2.167-0.978-4.182-2.192-6.265-3.298c-1.875-0.994-2.648-2.689-2.312-4.789
	c0.315-1.969,1.599-3.148,3.438-3.739c2.871-0.925,5.676-0.089,7.526,2.312c0.4,0.52,0.795,0.729,1.354,0.6
	c0.73-0.17,0.363-0.805,0.377-1.217c0.049-1.465,0.028-2.933,0.011-4.4c-0.004-0.289,0.167-0.703-0.254-0.831
	c-0.355-0.107-0.777-0.157-1.012,0.261c-0.682,1.22-1.793,1.02-2.877,0.878c-2.222-0.293-4.439-0.378-6.64,0.136
	c-3.42,0.799-5.855,3.316-6.41,6.594c-0.598,3.529,0.744,6.44,3.984,8.365c2.326,1.382,4.722,2.647,7.088,3.962
	c1.779,0.989,2.454,2.521,2.22,4.5c-0.228,1.93-1.363,3.152-3.106,3.827c-2.923,1.133-6.271,0.218-8.229-2.228
	c-0.404-0.504-0.772-1.058-1.047-1.641c-0.271-0.575-0.702-0.607-1.206-0.564c-0.733,0.063-0.435,0.646-0.444,1.003
	c-0.036,1.355-0.015,2.71-0.015,4.283c-1.391-0.441-2.554-0.811-3.354-1.695c-4.115-4.543-8.16-9.15-12.275-13.693
	c-0.646-0.714-0.71-1.101,0.02-1.816c2.419-2.373,4.604-4.976,7.155-7.229c1.242-1.096,2.421-2.188,4.128-2.42
	c0.683-0.094,0.935-0.437,0.864-1.1c-0.075-0.71-0.616-0.479-0.994-0.482c-2.498-0.016-4.997-0.021-7.496,0.01
	c-0.397,0.005-1.014-0.313-1.091,0.532c-0.066,0.745,0.413,0.7,0.897,0.804c1.368,0.292,1.476,1.113,0.782,2.15
	c-0.329,0.492-0.74,0.934-1.149,1.363c-2.618,2.753-5.228,5.514-7.886,8.227c-0.585,0.596-0.585,0.948-0.016,1.547
	c1.496,1.575,2.936,3.206,4.366,4.838c1.825,2.082,3.839,4.005,5.438,6.275c0.947,1.346,0.713,2.137-0.777,2.564
	c-0.685,0.195-1.085,0.37-0.974,1.146c0.132,0.929,0.841,0.473,1.274,0.498c3.825,0.232,7.676-0.375,11.491,0.329
	c0.231,0.042,0.667-0.06,0.728-0.207c0.663-1.638,1.794-0.958,2.854-0.617c3.535,1.136,7.05,1.321,10.432-0.459
	c3.009-1.586,4.538-4.151,4.437-7.561C277.426,101.896,275.407,99.621,272.493,98.306z"/>
<path fill="#FFFFFF" d="M197.292,112.366c-1.604-0.24-2.173-1.27-2.175-2.745c-0.009-7.226-0.014-14.452-0.012-21.678
	c0-1.282,0.496-2.217,1.876-2.45c0.583-0.099,1.046-0.274,0.999-1.013c-0.058-0.904-0.743-0.629-1.214-0.632
	c-2.935-0.022-5.869-0.022-8.803,0.005c-0.467,0.004-1.159-0.299-1.254,0.589c-0.081,0.759,0.458,0.919,1.008,1.01
	c1.867,0.308,2.48,1.548,2.484,3.262c0.003,0.978,0.003,1.955,0.002,2.934c-0.004,5.65,0.013,11.301-0.022,16.952
	c-0.017,2.715-0.336,3.116-2.869,3.903c-0.461,0.144-0.619,0.339-0.605,0.781c0.017,0.522,0.348,0.608,0.767,0.608
	c1.685-0.002,3.369-0.001,5.054-0.001c0,0.002,0,0.005,0,0.007c1.522,0,3.043,0.024,4.563-0.014
	c0.464-0.012,1.148,0.302,1.247-0.594C198.428,112.46,197.793,112.44,197.292,112.366z"/>
<path fill="#FFFFFF" d="M149.122,89.101c-4.197-5.018-9.899-5.986-16.003-4.837c-6.904,1.3-11.902,7.614-11.952,14.725
	c-0.048,6.934,4.837,13.02,11.704,14.511c0.896,0.194,1.588,0.613,2.253,1.19c1.805,1.564,3.602,3.143,5.819,4.129
	c3.715,1.651,7.179,1.037,10.511-1.09c0.655-0.418,0.497-0.84,0.274-1.36c-0.313-0.731-0.676-0.25-1.003-0.033
	c-1.917,1.267-3.866,0.892-5.729-0.025c-1.449-0.712-2.789-1.65-4.426-2.638c0.611-0.217,0.911-0.345,1.222-0.431
	C152.81,110.179,155.374,96.575,149.122,89.101z M135.197,111.783c-3.393-0.495-5.805-2.737-7.269-5.871
	c-0.138-0.295-0.264-0.593-0.378-0.893c-0.686-1.799-0.958-3.678-0.965-5.602c-0.001-0.32,0.005-0.644,0.019-0.967
	c-0.02-0.546-0.022-1.09-0.002-1.63c0.04-1.082,0.168-2.151,0.416-3.206c0.124-0.527,0.278-1.051,0.466-1.57
	c1.313-3.627,3.908-5.697,7.697-6.126c3.625-0.411,6.747,0.665,9.006,3.688c3.344,4.477,3.737,13.407,0.793,18.157
	C142.694,111.45,139.085,112.351,135.197,111.783z"/>
<path fill="#FFFFFF" d="M126.604,98.451c-0.013,0.323-0.02,0.646-0.019,0.967c-0.001-0.32,0.005-0.643,0.019-0.965
	C126.604,98.453,126.604,98.452,126.604,98.451z"/>
<path fill="#FFFFFF" d="M127.55,105.02c-0.686-1.799-0.958-3.677-0.965-5.602C126.591,101.342,126.864,103.221,127.55,105.02z"/>
<path fill="#FFFFFF" d="M366.866,89.326c-0.772-2.935-3.81-5.398-6.979-5.455c-4.399-0.078-8.801-0.027-13.201-0.011
	c-0.367,0.001-0.924-0.253-0.998,0.465c-0.063,0.622,0.086,1.057,0.796,1.163c1.774,0.263,2.212,1.486,2.202,3.063
	c-0.019,3.314-0.006,6.627-0.006,9.941c0.006,0,0.01,0,0.016,0c0,2.064,0.028,4.129-0.008,6.193c-0.032,1.84,0.203,3.698-0.24,5.518
	c-0.411,1.689-2,2.478-3.696,2.07c-1.609-0.386-2.496-1.465-3.147-2.818c-0.819-1.708-1.567-3.451-2.336-5.185
	c-2.835-6.386-5.658-12.776-8.508-19.155c-0.222-0.496-0.216-1.235-1.039-1.283c-0.954-0.055-0.916,0.804-1.169,1.326
	c-0.615,1.265-1.138,2.575-1.7,3.867c-2.79,6.404-5.575,12.813-8.374,19.214c-0.783,1.788-1.464,3.687-3.803,4.04
	c-0.596,0.09-0.483,0.629-0.485,1.052c-0.004,0.71,0.546,0.542,0.937,0.546c2.227,0.015,4.455,0.012,6.683,0.005
	c0.408-0.001,0.902,0.134,0.918-0.572c0.012-0.559-0.104-0.949-0.731-1.056c-1.634-0.275-1.639-1.419-1.214-2.588
	c0.723-1.982,1.59-3.912,2.36-5.879c0.186-0.473,0.426-0.673,0.94-0.669c2.934,0.018,5.867,0.011,8.801,0.006
	c0.391-0.001,0.741,0.003,0.925,0.453c0.858,2.101,2.071,4.058,2.601,6.295c0.289,1.221,0.096,2.206-1.394,2.36
	c-0.678,0.069-0.735,0.455-0.752,0.997c-0.028,0.819,0.541,0.654,0.996,0.654c6.793,0.006,13.582,0.004,20.372,0.002
	c0.475,0,1.02,0.12,0.982-0.676c-0.025-0.521-0.025-0.944-0.734-0.999c-1.794-0.141-2.326-1.317-2.323-2.926
	c0.003-2.716,0.03-5.434-0.054-8.147c-0.033-1.102,0.318-1.134,1.303-1.046c3.057,0.274,6.094,0.143,8.807-1.579
	C366.532,96.658,367.826,92.972,366.866,89.326z M324.429,100.702c1.268-3.048,2.501-6.015,3.849-9.261
	c1.464,3.193,2.814,6.139,4.247,9.261C329.782,100.702,327.2,100.702,324.429,100.702z M361.714,94.216
	c-0.926,2.784-5.101,4.622-7.718,3.448c-0.576-0.26-0.46-0.661-0.464-1.063c-0.013-1.629-0.005-3.258-0.005-4.886
	s-0.004-3.257,0.002-4.887c0.002-0.474-0.087-0.888,0.672-1.008C359.383,85.002,363.324,89.375,361.714,94.216z"/>
<path fill="#FFFFFF" d="M184.462,83.844c-3.312,0-6.625-0.003-9.938,0.008c-0.397,0.002-0.896-0.146-0.958,0.546
	c-0.063,0.689,0.303,0.8,0.87,0.833c1.623,0.094,2.423,0.971,2.488,2.608c0.236,5.858,0.484,11.728-0.156,17.563
	c-0.435,3.958-3.16,6.382-6.75,6.475c-3.917,0.101-6.3-1.854-7.23-5.961c-0.156-0.684-0.295-1.39-0.298-2.086
	c-0.027-5.104-0.052-10.209-0.007-15.313c0.022-2.438,0.343-2.775,2.667-3.29c0.49-0.108,0.818-0.19,0.786-0.776
	c-0.037-0.653-0.497-0.601-0.932-0.601c-3.313,0-6.626,0-9.938,0.004c-0.435,0.001-0.889-0.05-0.93,0.604
	c-0.034,0.559,0.275,0.823,0.744,0.883c2.386,0.304,2.684,2.046,2.711,3.939c0.032,2.335,0.007,4.67,0.007,7.005
	c0.007,0,0.014,0,0.021,0c0,2.39-0.056,4.781,0.014,7.169c0.096,3.245,1.208,6.121,3.851,8.104
	c4.446,3.334,9.382,3.535,14.306,1.361c4.564-2.013,6.148-5.95,6.053-10.767c-0.082-4.18-0.042-8.362-0.007-12.544
	c0.024-2.779,0.401-3.303,2.808-4.193c0.478-0.178,0.693-0.405,0.694-0.931C185.335,83.813,184.905,83.844,184.462,83.844z"/>
<path fill="#FFFFFF" d="M227.05,113.235c0.021-2.005,0.018-4.009,0.004-6.015c-0.003-0.336,0.153-0.791-0.466-0.832
	c-0.495-0.031-0.785,0.091-0.93,0.627c-0.489,1.811-1.823,2.885-3.387,3.734c-1.45,0.788-3.026,1.105-4.658,1.192
	c-0.431-0.03-0.861-0.07-1.295-0.091c-5.229-0.246-8.37-3.22-9.727-7.825c-0.973-3.298-0.914-6.667,0.063-9.956
	c1.106-3.723,3.428-6.354,7.278-7.434c0.673-0.189,1.357-0.336,2.038-0.502c0.649-0.004,1.306-0.064,1.95-0.002
	c3.283,0.32,6.59,0.638,7.844,4.496c0.144,0.439,0.459,0.365,0.767,0.382c0.594,0.032,0.527-0.402,0.528-0.771
	c0.003-2.169,0.007-4.338-0.005-6.507c-0.002-0.341,0.142-0.819-0.479-0.813c-0.362,0.003-0.727-0.091-0.854,0.468
	c-0.288,1.259-1.252,1.324-2.296,1.184c-2.361-0.313-4.71-0.765-7.111-0.659c-6.007-0.169-10.975,1.956-13.928,7.296
	c-3.034,5.484-2.959,11.244,0.555,16.526c3.447,5.183,8.581,7.057,14.705,6.322c1.951-0.159,3.825-0.698,5.676-1.275
	c1.104-0.344,1.922-0.338,2.321,0.902c0.185,0.577,0.62,0.526,1.042,0.462C227.264,114.055,227.047,113.561,227.05,113.235z"/>
</svg>
