<svg width="26px" height="26px" viewBox="-5 -5 31 31" fill="none" xmlns="http://www.w3.org/2000/svg">
    <g clip-path="url(#clip0_2888_309)">
        <path d="M24.4699 9.32599C25.3381 8.35784 25.8689 7.06697 25.8689 5.65307C25.8689 2.65179 23.4794 0.209229 20.5432 0.209229H5.32572C2.38957 0.209229 0 2.65179 0 5.65307C0 7.06697 0.530796 8.35784 1.39901 9.32599C0.530796 10.2962 0 11.585 0 13.0009C0 14.4169 0.530796 15.7057 1.39901 16.6739C0.530796 17.642 0 18.9329 0 20.3468C0 23.3481 2.38957 25.7906 5.32572 25.7906H20.5452C23.4813 25.7906 25.8709 23.3481 25.8709 20.3468C25.8709 18.9329 25.3401 17.642 24.4719 16.6739C25.3401 15.7057 25.8709 14.4148 25.8709 13.0009C25.8709 11.587 25.3401 10.2962 24.4719 9.32801L24.4699 9.32599ZM3.463 13.0009C3.463 11.9521 4.29767 11.0969 5.32572 11.0969H20.5452C21.5732 11.0969 22.4079 11.9501 22.4079 13.0009C22.4079 14.0518 21.5732 14.905 20.5452 14.905H5.32572C4.29965 14.905 3.463 14.0518 3.463 13.0009ZM5.32572 3.74903H20.5452C21.5732 3.74903 22.4079 4.60222 22.4079 5.65307C22.4079 6.70391 21.5732 7.5571 20.5452 7.5571H5.32572C4.29965 7.5571 3.463 6.70391 3.463 5.65307C3.463 4.60222 4.29767 3.74903 5.32572 3.74903ZM20.5452 22.2508H5.32572C4.29965 22.2508 3.463 21.3976 3.463 20.3468C3.463 19.2959 4.29767 18.4428 5.32572 18.4428H20.5452C21.5732 18.4428 22.4079 19.2959 22.4079 20.3468C22.4079 21.3976 21.5732 22.2508 20.5452 22.2508Z"
              fill="#FFBC0F" />
    </g>
    <defs>
        <clipPath id="clip0_2888_309">
            <rect width="26" height="25.5814" fill="white" transform="translate(0 0.209229)" />
        </clipPath>
    </defs>
</svg>
