<svg width="32" height="32" viewBox="0 0 32 32" fill="none" xmlns="http://www.w3.org/2000/svg">
<g clip-path="url(#clip0_301_1156)">
<path d="M16 1.9848C16.0784 1.9848 16.1507 2.00458 16.2229 2.04338L27.9813 8.83016C28.119 8.90851 28.2042 9.05306 28.2042 9.20978V22.7826C28.2042 22.94 28.119 23.0838 27.9813 23.1622L16.2229 29.955C16.1575 29.9946 16.0791 30.0136 16 30.0136C15.9209 30.0136 15.8494 29.9938 15.7771 29.955L4.02561 23.1698C3.88791 23.0914 3.8027 22.9469 3.8027 22.7902V9.21054C3.8027 9.05306 3.88791 8.90928 4.02561 8.83092L15.7771 2.04414C15.8494 2.00458 15.9209 1.9848 16 1.9848ZM16 0.000732422C15.5808 0.000732422 15.1617 0.111804 14.7881 0.328622L3.02977 7.11387C2.2827 7.54599 1.81787 8.34555 1.81787 9.21054V22.7833C1.81787 23.6483 2.2827 24.4471 3.02977 24.8861L14.7881 31.6728C15.1617 31.8889 15.5808 32.0007 16 32.0007C16.4192 32.0007 16.8384 31.8897 17.2119 31.6728L28.9703 24.8861C29.7234 24.454 30.1822 23.6544 30.1822 22.7833V9.21054C30.1822 8.34555 29.7174 7.54675 28.9703 7.10779L17.2119 0.321014C16.8384 0.104957 16.4192 0.000732422 16 0.000732422Z" fill="#213147"/>
<path d="M16 1.9848C16.0784 1.9848 16.1507 2.00458 16.2229 2.04338L27.9813 8.83016C28.119 8.90851 28.2042 9.05306 28.2042 9.20978V22.7826C28.2042 22.94 28.119 23.0838 27.9813 23.1622L16.2229 29.955C16.1575 29.9946 16.0791 30.0136 16 30.0136C15.9209 30.0136 15.8494 29.9938 15.7771 29.955L4.02561 23.1698C3.88791 23.0914 3.8027 22.9469 3.8027 22.7902V9.21054C3.8027 9.05306 3.88791 8.90928 4.02561 8.83092L15.7771 2.04414C15.8494 2.00458 15.9209 1.9848 16 1.9848Z" fill="#213147"/>
<path d="M16 1.98483C16.0784 1.98483 16.1507 2.00461 16.2229 2.04341L27.9813 8.83018C28.119 8.90854 28.2042 9.05309 28.2042 9.2098V22.7826C28.2042 22.9401 28.119 23.0839 27.9813 23.1622L16.2229 29.9551C16.1575 29.9946 16.0791 30.0136 16 30.0136C15.9209 30.0136 15.8494 29.9939 15.7771 29.9551L4.02561 23.1698C3.88791 23.0915 3.8027 22.9469 3.8027 22.7902V9.21057C3.8027 9.05309 3.88791 8.9093 4.02561 8.83095L15.7771 2.04417C15.8494 2.00461 15.9209 1.98559 16 1.98559M16 0.000760764C15.5808 0.000760764 15.1617 0.111832 14.7881 0.32865L3.02977 7.1139C2.2827 7.54601 1.81787 8.34558 1.81787 9.21057V22.7833C1.81787 23.6483 2.2827 24.4471 3.02977 24.8861L14.7881 31.6729C15.1617 31.8889 15.5808 32.0008 16 32.0008C16.4192 32.0008 16.8384 31.8897 17.2119 31.6729L28.9703 24.8861C29.7234 24.454 30.1822 23.6544 30.1822 22.7833V9.21057C30.1822 8.34558 29.7174 7.54678 28.9703 7.10781L17.2119 0.321042C16.8384 0.104985 16.4192 0 16 0V0.000760764Z" fill="#FF7700"/>
<path d="M12.9996 9.04626H11.4667C11.3488 9.04626 11.2506 9.11854 11.2111 9.22961L6.26535 22.7697C6.23263 22.8617 6.29806 22.953 6.3962 22.953H7.92914C8.04705 22.953 8.14519 22.8807 8.18475 22.7697L13.1236 9.22276C13.1632 9.13756 13.0978 9.04626 12.9989 9.04626H12.9996Z" fill="#FF7700"/>
<path d="M14.9914 14.3001C14.9458 14.1822 14.7753 14.1822 14.7358 14.3001L13.9362 16.4881C13.9164 16.5466 13.9164 16.6128 13.9362 16.6783L16.1637 22.7773C16.2033 22.8884 16.3075 22.9606 16.4194 22.9606H17.9523C18.0504 22.9606 18.1159 22.8686 18.0831 22.7773L14.9914 14.3009V14.3001Z" fill="#FF7700"/>
<path d="M15.6856 9.04626H14.1527C14.0348 9.04626 13.9367 9.11854 13.8971 9.22961L8.95822 22.7697C8.9255 22.8617 8.99093 22.953 9.08907 22.953H10.622C10.7399 22.953 10.8381 22.8807 10.8776 22.7697L15.8165 9.22276C15.8492 9.13756 15.7838 9.04626 15.6856 9.04626Z" fill="#FF7700"/>
<path d="M16.3339 10.6119C16.2883 10.494 16.1178 10.494 16.0783 10.6119L15.2795 12.7998C15.2597 12.8584 15.2597 12.9246 15.2795 12.99L18.8497 22.7704C18.8893 22.8815 18.9935 22.9537 19.1054 22.9537H20.6383C20.7364 22.9537 20.8019 22.8617 20.7692 22.7704L16.3347 10.6126L16.3339 10.6119Z" fill="#FF7700"/>
<path d="M25.6034 9.04626H24.0704C23.9525 9.04626 23.8544 9.11854 23.8148 9.22961L20.2385 19.01C20.2187 19.0686 20.2187 19.1348 20.2385 19.2002L21.038 21.3881C21.0837 21.5061 21.2541 21.5061 21.2936 21.3881L25.7281 9.23037C25.7609 9.13832 25.6954 9.04702 25.6034 9.04702V9.04626Z" fill="#FF7700"/>
<path d="M19.6943 17.7C19.7399 17.8179 19.9103 17.8179 19.9499 17.7L23.0416 9.22961C23.0744 9.13756 23.0089 9.04626 22.9108 9.04626H21.3778C21.2599 9.04626 21.1618 9.11854 21.1222 9.22961L18.8947 15.3287C18.8749 15.3872 18.8749 15.4534 18.8947 15.5188L19.6935 17.7H19.6943Z" fill="#FF7700"/>
</g>
<defs>
<clipPath id="clip0_301_1156">
<rect width="32" height="32" fill="white"/>
</clipPath>
</defs>
</svg>
