<svg width="500" height="500" viewBox="0 0 32 32" fill="none" xmlns="http://www.w3.org/2000/svg">
<path d="M31.9625 14.9142C31.3628 6.09847 23.7301 -0.562143 14.9142 0.0375138C10.5225 0.336224 6.66648 2.381 3.97561 5.44719L3.97563 5.44718L3.96812 5.44176C3.94999 5.46685 3.93305 5.4916 3.91505 5.51667C1.24214 8.59784 -0.261178 12.6947 0.0374963 17.0858C0.0659575 17.5042 0.11521 17.916 0.174725 18.3241C0.174742 18.3242 0.174742 18.3243 0.17476 18.3244C0.177441 18.3428 0.180176 18.3612 0.182768 18.3797C0.223001 18.649 0.269714 18.9158 0.323015 19.1802C0.32305 19.1804 0.323068 19.1805 0.323103 19.1807C0.32408 19.1855 0.325003 19.1903 0.325944 19.1951C0.374469 19.4346 0.428373 19.6718 0.487355 19.9071L0.487461 19.9076C0.487515 19.9077 0.487568 19.9079 0.487603 19.9081C2.33542 27.2771 9.2397 32.4962 17.0858 31.9625C25.9016 31.3628 32.5621 23.73 31.9625 14.9142H31.9625ZM28.4798 15.1512C28.5536 16.2365 28.4853 17.2992 28.292 18.3216C28.2897 18.3157 28.2878 18.3096 28.2854 18.3038V18.3037C27.1254 15.4684 24.831 13.4214 22.8132 12.2906C23.2215 7.48639 21.5917 5.46239 19.747 5.13307C19.6969 5.12341 19.6464 5.11518 19.5951 5.10882C18.1311 4.92104 16.7922 5.95589 16.6047 7.41986C16.4169 8.8839 17.4518 10.2228 18.9157 10.4106C19.0434 10.4268 19.1697 10.4313 19.2948 10.4293C19.303 10.5915 19.3081 10.7638 19.3095 10.9439C17.6038 10.5212 16.0094 10.4385 14.5557 10.5692C14.0121 10.6054 13.4681 10.6739 12.9271 10.775C13.1086 9.15277 13.7172 7.33146 14.8982 5.99859C16.0399 4.71015 17.7373 3.97165 19.5889 4.16116C19.9399 4.19708 20.3145 4.28327 20.6516 4.39651C20.6671 4.40171 20.6836 4.40611 20.6989 4.41144C20.6991 4.41114 20.6995 4.41073 20.6997 4.41043C24.9885 6.15759 28.1449 10.2279 28.4798 15.1512V15.1512ZM17.328 17.595C17.3268 17.5967 17.3256 17.5984 17.3244 17.6002C16.9426 18.1508 16.4886 18.6937 15.9556 19.2188C15.1566 18.3687 14.5147 17.4532 14.0277 16.5061C14.0028 16.4554 13.9761 16.4071 13.9518 16.3555C13.9508 16.3537 13.95 16.3517 13.949 16.3499C13.663 15.7437 13.4197 15.0788 13.2314 14.3543C14.3684 14.0868 15.4834 13.9884 16.5482 14.0403C16.6046 14.044 16.6597 14.0451 16.7166 14.0498C16.7187 14.05 16.7208 14.0501 16.7229 14.0503C17.3898 14.1055 18.0861 14.2271 18.8064 14.4257C18.4697 15.5436 17.9975 16.558 17.4204 17.4539C17.3889 17.5009 17.3604 17.5481 17.328 17.595V17.595ZM11.8607 4.19833C11.8578 4.20218 11.8544 4.20582 11.8514 4.20967L11.8514 4.20969C9.97685 6.63065 9.35102 9.6394 9.37996 11.9518C5.01543 14.0003 4.07758 16.4237 4.71471 18.1858C4.7314 18.234 4.74953 18.2819 4.76965 18.3295C5.33907 19.6913 6.9047 20.3333 8.2663 19.7637C9.62809 19.1943 10.2702 17.6287 9.70088 16.2669C9.65101 16.1483 9.59174 16.0366 9.52749 15.9292C9.66543 15.8401 9.81356 15.7486 9.97085 15.6562C10.4576 17.345 11.1778 18.7734 12.0179 19.9672C12.3205 20.4189 12.6511 20.8549 13.0084 21.2721C11.5125 21.9264 9.63052 22.3102 7.88535 21.9538C6.19866 21.6093 4.71043 20.5086 3.94874 18.8103C3.80436 18.4884 3.69178 18.1209 3.62122 17.7723C3.57781 17.4677 3.54143 17.1607 3.52023 16.8489C3.13036 11.1175 6.68616 6.01518 11.8607 4.19833V4.19833ZM16.8489 28.4798C13.4454 28.7113 10.264 27.5504 7.85955 25.4869C10.8935 25.8998 13.812 24.9374 15.8001 23.7561C19.7581 26.5139 22.3268 26.1147 23.5345 24.6815C23.568 24.6429 23.6004 24.6033 23.6315 24.5621C24.5262 23.388 24.2994 21.7111 23.1253 20.8167C21.9513 19.9221 20.2744 20.1489 19.3797 21.3227C19.3019 21.4253 19.2348 21.5324 19.174 21.6418C19.0288 21.5674 18.8764 21.4853 18.7189 21.396C19.9391 20.1294 20.8086 18.7891 21.4227 17.4639C21.6631 16.975 21.8758 16.4696 22.0587 15.9506C23.374 16.9188 24.6485 18.3574 25.2127 20.0479C25.7577 21.6809 25.5486 23.5201 24.4587 25.0289C24.252 25.3149 23.9901 25.5962 23.7235 25.8316C23.7196 25.835 23.7158 25.8386 23.712 25.8421C21.8051 27.3408 19.4458 28.3031 16.8489 28.4798V28.4798Z" fill="url(#paint0_linear_301_762)"/>
<path style="mix-blend-mode:overlay" opacity="0.9" d="M19.7472 5.13304C19.6971 5.12338 19.6466 5.11514 19.5953 5.10879C19.3363 5.07557 19.0816 5.08242 18.8361 5.12136C20.3667 5.95403 21.4826 8.27408 20.8959 12.8505C20.7016 14.3662 20.2509 15.8087 19.6 17.1322C19.0727 18.2703 18.3551 19.4192 17.3906 20.5233C17.8538 20.8707 18.3055 21.1615 18.7191 21.396C19.9392 20.1294 20.8088 18.7891 21.4228 17.4639C22.0737 16.1404 22.5244 14.6979 22.7187 13.1822C23.4173 7.73319 21.7023 5.48207 19.7472 5.13304V5.13304Z" fill="url(#paint1_radial_301_762)"/>
<g style="mix-blend-mode:overlay" opacity="0.8">
<path d="M20.8961 12.8505C21.4828 8.27406 20.3669 5.95401 18.8362 5.12134C18.7765 5.13082 18.7178 5.14355 18.6593 5.15699C20.1578 6.01839 21.236 8.33625 20.6573 12.8505C20.4629 14.3662 20.0122 15.8086 19.3614 17.1322C18.8515 18.2326 18.1618 19.3428 17.2451 20.4132C17.2939 20.4509 17.3423 20.4869 17.3908 20.5233C18.3553 19.4192 19.0729 18.2702 19.6002 17.1322C20.2511 15.8086 20.7018 14.3662 20.8961 12.8505V12.8505Z" fill="white"/>
</g>
<path style="mix-blend-mode:overlay" opacity="0.5" d="M15.0781 23.2303C14.9343 23.1207 14.7958 23.0059 14.6574 22.8912C12.3986 23.8337 9.26737 24.4245 6.1582 23.703C6.66735 24.352 7.23554 24.9512 7.85966 25.4869C10.8936 25.8998 13.8121 24.9374 15.8002 23.7561C15.5642 23.5916 15.324 23.4176 15.0781 23.2303V23.2303Z" fill="url(#paint2_radial_301_762)"/>
<path style="mix-blend-mode:overlay" opacity="0.6" d="M14.6575 22.8913C14.5883 22.8339 14.5187 22.7771 14.4508 22.7186C12.1749 23.6281 9.02943 24.1718 5.92725 23.3986C6.00283 23.5013 6.07969 23.6028 6.15827 23.703C9.26744 24.4246 12.3987 23.8337 14.6575 22.8913V22.8913Z" fill="url(#paint3_linear_301_762)"/>
<path style="mix-blend-mode:overlay" opacity="0.9" d="M4.71551 18.1884C4.7322 18.2366 4.75033 18.2845 4.77045 18.3321C4.87121 18.573 5.00448 18.7902 5.16097 18.9833C5.11677 17.2414 6.56803 15.115 10.8247 13.3349C12.2345 12.7453 13.709 12.4144 15.1807 12.3163C16.43 12.204 17.7837 12.2509 19.2222 12.5341C19.2914 11.9593 19.3174 11.4228 19.3137 10.9474C17.6067 10.5239 16.0112 10.4411 14.5565 10.5718C13.0849 10.67 11.6104 11.0009 10.2005 11.5904C5.13228 13.71 4.04023 16.3207 4.71551 18.1884L4.71551 18.1884Z" fill="url(#paint4_radial_301_762)"/>
<g style="mix-blend-mode:overlay" opacity="0.8">
<path d="M10.8248 13.3349C6.5682 15.115 5.11694 17.2414 5.16113 18.9833C5.19922 19.0303 5.23957 19.0748 5.28048 19.1187C5.27724 17.3903 6.74547 15.2977 10.9443 13.5417C12.3541 12.9522 13.8286 12.6213 15.3003 12.5231C16.5082 12.4145 17.8145 12.4567 19.1998 12.7154C19.2081 12.6543 19.2151 12.5943 19.2223 12.5341C17.7839 12.2509 16.4301 12.204 15.1808 12.3163C13.7092 12.4144 12.2347 12.7453 10.8248 13.3349Z" fill="white"/>
</g>
<path style="mix-blend-mode:overlay" opacity="0.4" d="M22.7229 13.1833C22.6999 13.3627 22.6698 13.5399 22.6396 13.7171C24.5852 15.2021 26.6626 17.6184 27.5923 20.6718C27.8997 19.9064 28.1346 19.1147 28.2864 18.3063C27.1271 15.4724 24.8343 13.4261 22.8172 12.295C22.7928 12.5816 22.7622 12.8766 22.7229 13.1833V13.1833Z" fill="url(#paint5_radial_301_762)"/>
<path style="mix-blend-mode:overlay" opacity="0.5" d="M22.6395 13.7172C22.6244 13.8057 22.6101 13.8945 22.5933 13.9825C24.5189 15.4987 26.5625 17.9509 27.444 21.0241C27.4951 20.9073 27.5446 20.79 27.5921 20.6718C26.6624 17.6184 24.585 15.2021 22.6395 13.7172V13.7172Z" fill="url(#paint6_linear_301_762)"/>
<path style="mix-blend-mode:overlay" opacity="0.9" d="M23.5363 24.6778C23.5698 24.6392 23.6021 24.5996 23.6333 24.5584C23.7916 24.3507 23.913 24.1267 24.002 23.8946C22.5156 24.8038 19.9484 24.6102 16.2784 21.8139C15.063 20.8877 14.0391 19.7762 13.2183 18.5508C12.4964 17.525 11.8602 16.3292 11.3863 14.9418C10.8538 15.1693 10.3762 15.415 9.96631 15.656C10.4531 17.346 11.1791 18.7691 12.0197 19.9635C12.8405 21.189 13.8643 22.3005 15.0798 23.2266C19.4495 26.5561 22.2565 26.1965 23.5363 24.6778V24.6778Z" fill="url(#paint7_radial_301_762)"/>
<g style="mix-blend-mode:overlay" opacity="0.8">
<path d="M16.2784 21.8139C19.9484 24.6102 22.5156 24.8038 24.002 23.8946C24.0237 23.8381 24.042 23.781 24.0596 23.7235C22.5644 24.5905 20.0179 24.3654 16.3978 21.6071C15.1824 20.6809 14.1585 19.5694 13.3377 18.3439C12.6397 17.3522 12.023 16.1998 11.5544 14.8707C11.4974 14.8941 11.442 14.918 11.3862 14.9418C11.8602 16.3292 12.4964 17.5251 13.2183 18.5508C14.0391 19.7762 15.0629 20.8877 16.2784 21.8139V21.8139Z" fill="white"/>
</g>
<path style="mix-blend-mode:overlay" opacity="0.3" d="M10.1982 11.5857C10.3651 11.5159 10.5337 11.4534 10.7022 11.3909C11.0154 8.9635 12.0694 5.95629 14.2488 3.62445C13.4322 3.74089 12.6291 3.93333 11.8532 4.20602C9.97865 6.627 9.35287 9.63575 9.38181 11.9482C9.64224 11.826 9.91303 11.705 10.1982 11.5857V11.5857Z" fill="url(#paint8_radial_301_762)"/>
<path style="mix-blend-mode:overlay" opacity="0.4" d="M10.7021 11.3909C10.7864 11.3597 10.8704 11.3277 10.955 11.2983C11.3053 8.87253 12.4072 5.8766 14.6279 3.5766C14.5012 3.59074 14.3748 3.60651 14.2487 3.62448C12.0693 5.95632 11.0154 8.96353 10.7021 11.3909V11.3909Z" fill="url(#paint9_linear_301_762)"/>
<path style="mix-blend-mode:multiply" opacity="0.4" d="M14.9144 0.0375186C10.5227 0.336229 6.66664 2.381 3.97576 5.4472C3.95543 5.47037 3.93523 5.49359 3.91504 5.51689L3.9152 5.51667C4.43908 6.03632 6.15119 7.06098 6.84512 7.48826C8.2076 6.02299 9.92043 4.87965 11.8609 4.19833C11.9964 4.02371 12.1369 3.85142 12.2857 3.68349C14.093 1.64408 16.5611 0.566138 19.4238 0.566138C19.7424 0.566138 20.3913 0.616856 20.4053 0.617886C18.6698 0.119291 16.8202 -0.0921168 14.9144 0.0375186Z" fill="url(#paint10_linear_301_762)"/>
<path style="mix-blend-mode:multiply" opacity="0.4" d="M16.849 28.4798C13.4456 28.7113 10.2641 27.5504 7.85969 25.4869H7.85967L7.85965 25.4869C7.63585 25.4564 7.41155 25.4199 7.18688 25.374C4.51704 24.8285 2.34948 23.2301 0.918139 20.7509C0.758823 20.475 0.616268 20.1938 0.487793 19.9083C2.33566 27.2772 9.23991 32.4962 17.0859 31.9625C17.1207 31.1545 16.8825 29.2797 16.849 28.4798V28.4798Z" fill="url(#paint11_linear_301_762)"/>
<path style="mix-blend-mode:multiply" opacity="0.4" d="M31.9625 14.9142C31.471 14.8639 29.0701 15.0534 28.4798 15.1512C28.5536 16.2365 28.4853 17.2992 28.2921 18.3216C28.3749 18.525 28.4535 18.7314 28.5241 18.9429C29.3866 21.5277 29.0861 24.2041 27.6547 26.6833C27.4984 26.9541 27.3296 27.2134 27.1503 27.4631C27.1469 27.4679 27.143 27.4733 27.1401 27.4773C27.14 27.4775 27.1475 27.471 27.1517 27.4672C30.4014 24.3055 32.2943 19.7923 31.9625 14.9142V14.9142Z" fill="url(#paint12_linear_301_762)"/>
<path style="mix-blend-mode:multiply" opacity="0.5" d="M19.5891 4.16118C19.9401 4.19709 20.3146 4.28328 20.6518 4.39652C20.6673 4.40172 20.6838 4.40612 20.6991 4.41145C20.6993 4.41115 20.6996 4.41074 20.6998 4.41044C22.0801 4.9727 23.3419 5.77669 24.4313 6.77116C24.4337 6.77311 24.436 6.77471 24.4384 6.77666C24.9634 6.17644 25.9743 5.51689 25.9743 5.51689C25.9743 5.51689 24.4263 3.9335 22.0589 3.44212C20.4015 3.09811 16.6633 2.76466 14.3057 6.77666C14.3057 6.77666 14.3151 6.76782 14.3288 6.75509C14.5033 6.49148 14.6887 6.23526 14.8984 5.99861C16.0401 4.71016 17.7374 3.97166 19.5891 4.16118V4.16118Z" fill="url(#paint13_linear_301_762)"/>
<path style="mix-blend-mode:multiply" opacity="0.5" d="M24.4583 25.0275C24.2517 25.3135 23.9898 25.5948 23.7231 25.8302C23.7108 25.841 23.6988 25.8531 23.6865 25.8637C23.6867 25.864 23.6869 25.8645 23.687 25.8649C22.51 26.779 21.1828 27.4699 19.7768 27.916C19.774 27.9171 19.7714 27.9183 19.7686 27.9194C20.0259 28.6742 20.0916 29.8794 20.0916 29.8794C20.0916 29.8794 22.2368 29.3306 23.8461 27.526C24.9727 26.2627 27.1306 23.192 24.8349 19.1442C24.8349 19.1442 24.8379 19.1568 24.842 19.1751C24.9831 19.4579 25.1123 19.7466 25.2124 20.0466C25.7573 21.6795 25.5482 23.5187 24.4583 25.0275V25.0275Z" fill="url(#paint14_linear_301_762)"/>
<path style="mix-blend-mode:multiply" opacity="0.5" d="M3.95445 18.815C3.81004 18.493 3.6974 18.1256 3.62688 17.7769C3.62363 17.7609 3.61922 17.7444 3.61617 17.7285C3.6158 17.7285 3.61529 17.7284 3.61492 17.7284C3.41175 16.2519 3.47707 14.7571 3.79363 13.3165C3.79414 13.3135 3.79437 13.3106 3.79488 13.3076C3.01256 13.1531 1.93593 12.6074 1.93593 12.6074C1.93593 12.6074 1.33864 14.7396 2.0968 17.0356C2.62756 18.6429 4.20789 22.047 8.86122 22.0828C8.86122 22.0828 8.84887 22.0791 8.83095 22.0735C8.51545 22.0542 8.20085 22.0218 7.89104 21.9585C6.20436 21.614 4.71613 20.5133 3.95445 18.815V18.815Z" fill="url(#paint15_linear_301_762)"/>
<path style="mix-blend-mode:multiply" opacity="0.6" d="M18.916 10.4107C19.0437 10.4268 19.1701 10.4313 19.2952 10.4293C19.2952 10.4293 19.2116 8.76689 19.0075 7.91394C18.8033 7.06099 18.5023 6.49615 18.1715 6.17646C17.9346 5.94743 17.1866 5.6622 16.605 7.41989C16.4172 8.88393 17.4521 10.2228 18.916 10.4107Z" fill="url(#paint16_linear_301_762)"/>
<path style="mix-blend-mode:multiply" opacity="0.5" d="M9.70176 16.2696C9.65189 16.1509 9.59261 16.0393 9.52835 15.9319C9.52835 15.9319 8.13041 16.8355 7.4938 17.4388C6.85719 18.0421 6.51857 18.5852 6.40707 19.0315C6.32719 19.3512 6.45415 20.1416 8.26717 19.7664C9.62896 19.197 10.271 17.6314 9.70176 16.2696V16.2696Z" fill="url(#paint17_linear_301_762)"/>
<path style="mix-blend-mode:multiply" opacity="0.6" d="M19.382 21.3185C19.3042 21.421 19.2371 21.5282 19.1763 21.6375C19.1763 21.6375 20.6578 22.3963 21.4985 22.646C22.3393 22.8957 22.979 22.9174 23.4212 22.7908C23.738 22.7002 24.359 22.195 23.1276 20.8125C21.9536 19.9178 20.2767 20.1446 19.382 21.3185V21.3185Z" fill="url(#paint18_linear_301_762)"/>
<path style="mix-blend-mode:multiply" opacity="0.3" d="M18.8069 14.4257C18.4702 15.5436 17.998 16.558 17.4209 17.4539C17.3894 17.5009 17.3609 17.5481 17.3284 17.595C17.3273 17.5967 17.326 17.5985 17.3249 17.6002C16.9431 18.1508 16.4891 18.6937 15.9561 19.2189C16.3223 19.6086 16.7184 19.9859 17.1534 20.3438C17.6997 20.7749 18.2352 21.1215 18.7194 21.396C19.9396 20.1295 20.8091 18.7891 21.4232 17.464C21.6636 16.975 21.8763 16.4697 22.0592 15.9506C21.4963 15.5362 20.9261 15.2064 20.4006 14.9824C19.8573 14.7508 19.3261 14.5688 18.8069 14.4257V14.4257Z" fill="url(#paint19_linear_301_762)"/>
<path style="mix-blend-mode:multiply" opacity="0.3" d="M7.85991 25.4869C10.8938 25.8998 13.8124 24.9374 15.8005 23.7561C15.5645 23.5917 15.3243 23.4177 15.0784 23.2303C14.311 22.6456 13.6205 21.9867 13.0087 21.2722C11.5129 21.9264 9.63088 22.3102 7.88571 21.9538C6.19902 21.6093 4.7108 20.5086 3.94911 18.8103C3.80472 18.4884 3.69214 18.1209 3.62158 17.7723C4.06237 20.8653 5.62312 23.5673 7.85991 25.4869V25.4869Z" fill="url(#paint20_linear_301_762)"/>
<path style="mix-blend-mode:multiply" opacity="0.3" d="M15.9559 19.2189C15.1569 18.3688 14.5151 17.4533 14.0281 16.5062C14.0031 16.4555 13.9765 16.4071 13.9521 16.3556C13.9512 16.3537 13.9503 16.3518 13.9494 16.3499C13.6633 15.7438 13.4201 15.0788 13.2318 14.3544C12.7123 14.4766 12.1887 14.6307 11.6624 14.828C11.0173 15.085 10.4504 15.3748 9.97119 15.6562C10.458 17.3451 11.1781 18.7735 12.0182 19.9672C12.3208 20.419 12.6515 20.855 13.0087 21.2722C13.65 20.9917 14.2216 20.6623 14.6789 20.3188C15.1504 19.9646 15.5729 19.5962 15.9559 19.2189V19.2189Z" fill="url(#paint21_linear_301_762)"/>
<path style="mix-blend-mode:multiply" opacity="0.3" d="M11.8518 4.20971C9.97724 6.63067 9.35141 9.63941 9.38035 11.9518C9.64175 11.8291 9.91373 11.7076 10.2001 11.5878C11.0892 11.216 12.004 10.9476 12.9275 10.775C13.1089 9.15279 13.7176 7.33148 14.8986 5.99861C16.0403 4.71017 17.7377 3.97167 19.5893 4.16118C19.9403 4.1971 20.3148 4.28329 20.652 4.39653C20.6675 4.40173 20.684 4.40613 20.6993 4.41146C20.6995 4.41116 20.6998 4.41075 20.7001 4.41045C18.9942 3.71552 17.1097 3.38707 15.1515 3.52027C14.0015 3.59849 12.8995 3.83378 11.8611 4.19835C11.8581 4.2022 11.8548 4.20584 11.8518 4.20969L11.8518 4.20971V4.20971Z" fill="url(#paint22_linear_301_762)"/>
<path style="mix-blend-mode:multiply" opacity="0.3" d="M28.2857 18.3037C27.1258 15.4684 24.8313 13.4214 22.8135 12.2906C22.7891 12.5783 22.7583 12.8745 22.7189 13.1823C22.5963 14.138 22.3714 15.0645 22.0591 15.9506C23.3743 16.9188 24.6488 18.3574 25.2131 20.0479C25.7581 21.6809 25.5489 23.5201 24.459 25.0289C24.2524 25.3149 23.9905 25.5962 23.7238 25.8316C23.72 25.835 23.7161 25.8386 23.7123 25.8421C26.0613 23.9959 27.7227 21.3351 28.2924 18.3216C28.29 18.3157 28.2881 18.3096 28.2857 18.3038V18.3037V18.3037Z" fill="url(#paint23_linear_301_762)"/>
<path style="mix-blend-mode:multiply" opacity="0.3" d="M12.918 12.6992C12.9889 13.2843 13.0966 13.8342 13.2318 14.3543C14.3688 14.0868 15.4837 13.9884 16.5486 14.0403C16.605 14.044 16.6601 14.0451 16.717 14.0498C16.7191 14.0499 16.7211 14.0501 16.7232 14.0503C17.3902 14.1055 18.0865 14.2271 18.8068 14.4257C18.9609 13.9143 19.0893 13.3834 19.1817 12.8285C19.2821 12.1389 19.3144 11.5011 19.3099 10.9439C17.6042 10.5212 16.0098 10.4385 14.5561 10.5692C14.0125 10.6054 13.4685 10.6739 12.9275 10.775C12.8497 11.4711 12.8492 12.1311 12.918 12.6992H12.918Z" fill="url(#paint24_linear_301_762)"/>
<defs>
<linearGradient id="paint0_linear_301_762" x1="5.08094" y1="26.9197" x2="25.4836" y2="6.51713" gradientUnits="userSpaceOnUse">
<stop offset="0.001139" stop-color="#E6007A"/>
<stop offset="0.207149" stop-color="#703AC2"/>
<stop offset="0.456011" stop-color="#0070EB"/>
<stop offset="0.768132" stop-color="#0297FB"/>
<stop offset="1" stop-color="#0AE2FF"/>
</linearGradient>
<radialGradient id="paint1_radial_301_762" cx="0" cy="0" r="1" gradientUnits="userSpaceOnUse" gradientTransform="translate(20.5609 12.7612) scale(6.08351)">
<stop stop-color="white"/>
<stop offset="1" stop-color="white" stop-opacity="0"/>
</radialGradient>
<radialGradient id="paint2_radial_301_762" cx="0" cy="0" r="1" gradientUnits="userSpaceOnUse" gradientTransform="translate(11.5686 24.0469) scale(3.53944)">
<stop stop-color="white"/>
<stop offset="1" stop-color="white" stop-opacity="0"/>
</radialGradient>
<linearGradient id="paint3_linear_301_762" x1="6.257" y1="23.4483" x2="9.66879" y2="23.4009" gradientUnits="userSpaceOnUse">
<stop stop-color="white" stop-opacity="0"/>
<stop offset="1" stop-color="white"/>
</linearGradient>
<radialGradient id="paint4_radial_301_762" cx="0" cy="0" r="1" gradientUnits="userSpaceOnUse" gradientTransform="translate(10.9149 13.6697) rotate(-120) scale(6.08351)">
<stop stop-color="white"/>
<stop offset="1" stop-color="white" stop-opacity="0"/>
</radialGradient>
<radialGradient id="paint5_radial_301_762" cx="0" cy="0" r="1" gradientUnits="userSpaceOnUse" gradientTransform="translate(25.1849 15.8143) rotate(-120) scale(3.53944)">
<stop stop-color="white"/>
<stop offset="1" stop-color="white" stop-opacity="0"/>
</radialGradient>
<linearGradient id="paint6_linear_301_762" x1="27.3221" y1="20.7137" x2="25.5752" y2="17.7827" gradientUnits="userSpaceOnUse">
<stop stop-color="white" stop-opacity="0"/>
<stop offset="1" stop-color="white"/>
</linearGradient>
<radialGradient id="paint7_radial_301_762" cx="0" cy="0" r="1" gradientUnits="userSpaceOnUse" gradientTransform="translate(16.236 21.287) rotate(120) scale(6.08351)">
<stop stop-color="white"/>
<stop offset="1" stop-color="white" stop-opacity="0"/>
</radialGradient>
<radialGradient id="paint8_radial_301_762" cx="0" cy="0" r="1" gradientUnits="userSpaceOnUse" gradientTransform="translate(11.2458 8.13801) rotate(120) scale(3.53944)">
<stop stop-color="white"/>
<stop offset="1" stop-color="white" stop-opacity="0"/>
</radialGradient>
<linearGradient id="paint9_linear_301_762" x1="14.42" y1="3.83736" x2="12.7552" y2="6.81575" gradientUnits="userSpaceOnUse">
<stop stop-color="white" stop-opacity="0"/>
<stop offset="1" stop-color="white"/>
</linearGradient>
<linearGradient id="paint10_linear_301_762" x1="15.1619" y1="2.32335" x2="9.94946" y2="3.8397" gradientUnits="userSpaceOnUse">
<stop stop-color="#231F20"/>
<stop offset="1" stop-color="white"/>
</linearGradient>
<linearGradient id="paint11_linear_301_762" x1="5.31138" y1="22.2032" x2="9.67089" y2="26.7523" gradientUnits="userSpaceOnUse">
<stop stop-color="#231F20"/>
<stop offset="1" stop-color="white"/>
</linearGradient>
<linearGradient id="paint12_linear_301_762" x1="28.7089" y1="21.5177" x2="30.2253" y2="16.9054" gradientUnits="userSpaceOnUse">
<stop stop-color="#231F20"/>
<stop offset="1" stop-color="white"/>
</linearGradient>
<linearGradient id="paint13_linear_301_762" x1="17.537" y1="4.96088" x2="24.5255" y2="6.56104" gradientUnits="userSpaceOnUse">
<stop stop-color="#231F20"/>
<stop offset="1" stop-color="white"/>
</linearGradient>
<linearGradient id="paint14_linear_301_762" x1="24.7917" y1="22.8506" x2="19.9117" y2="28.1026" gradientUnits="userSpaceOnUse">
<stop stop-color="#231F20"/>
<stop offset="1" stop-color="white"/>
</linearGradient>
<linearGradient id="paint15_linear_301_762" x1="5.67303" y1="20.1922" x2="3.56459" y2="13.34" gradientUnits="userSpaceOnUse">
<stop stop-color="#231F20"/>
<stop offset="1" stop-color="white"/>
</linearGradient>
<linearGradient id="paint16_linear_301_762" x1="19.065" y1="7.53844" x2="16.8537" y2="9.74978" gradientUnits="userSpaceOnUse">
<stop stop-color="#231F20"/>
<stop offset="1" stop-color="white"/>
</linearGradient>
<linearGradient id="paint17_linear_301_762" x1="7.13984" y1="17.5767" x2="10.1606" y2="18.3861" gradientUnits="userSpaceOnUse">
<stop stop-color="#231F20"/>
<stop offset="1" stop-color="white"/>
</linearGradient>
<linearGradient id="paint18_linear_301_762" x1="21.795" y1="22.8836" x2="20.9856" y2="19.8629" gradientUnits="userSpaceOnUse">
<stop stop-color="#231F20"/>
<stop offset="1" stop-color="white"/>
</linearGradient>
<linearGradient id="paint19_linear_301_762" x1="17.1973" y1="20.1975" x2="18.5241" y2="18.3653" gradientUnits="userSpaceOnUse">
<stop stop-color="#231F20"/>
<stop offset="1" stop-color="white"/>
</linearGradient>
<linearGradient id="paint20_linear_301_762" x1="12.6285" y1="19.4042" x2="9.97493" y2="20.6679" gradientUnits="userSpaceOnUse">
<stop stop-color="#231F20"/>
<stop offset="1" stop-color="white"/>
</linearGradient>
<linearGradient id="paint21_linear_301_762" x1="11.6656" y1="14.9871" x2="12.487" y2="16.693" gradientUnits="userSpaceOnUse">
<stop stop-color="#231F20"/>
<stop offset="1" stop-color="white"/>
</linearGradient>
<linearGradient id="paint22_linear_301_762" x1="15.4866" y1="9.71863" x2="14.9179" y2="7.76001" gradientUnits="userSpaceOnUse">
<stop stop-color="#231F20"/>
<stop offset="1" stop-color="white"/>
</linearGradient>
<linearGradient id="paint23_linear_301_762" x1="21.615" y1="18.6861" x2="23.2577" y2="19.0652" gradientUnits="userSpaceOnUse">
<stop stop-color="#231F20"/>
<stop offset="1" stop-color="white"/>
</linearGradient>
<linearGradient id="paint24_linear_301_762" x1="19.037" y1="13.1368" x2="16.952" y2="12.7577" gradientUnits="userSpaceOnUse">
<stop stop-color="#231F20"/>
<stop offset="1" stop-color="white"/>
</linearGradient>
</defs>
</svg>
