<svg width="32" height="32" viewBox="0 0 32 32" fill="none" xmlns="http://www.w3.org/2000/svg">
<g clip-path="url(#clip0_301_1106)">
<circle cx="16" cy="16" r="16" fill="black"/>
<path d="M15.9568 8.11529C16.6966 8.11529 17.362 8.52638 17.6931 9.18816L23.1525 20.1074C23.4554 20.7137 23.4238 21.4195 23.0677 21.9961C22.7113 22.5727 22.0943 22.9169 21.4162 22.9169H10.4974C9.81979 22.9169 9.20237 22.5727 8.84633 21.9961C8.48989 21.4195 8.45821 20.7137 8.76158 20.1074L14.2206 9.18816C14.5517 8.52638 15.217 8.11529 15.9568 8.11529ZM15.9568 6.78064C14.716 6.78064 13.5818 7.48163 13.0269 8.59133L7.56752 19.5105C7.05979 20.526 7.11405 21.7319 7.71088 22.6975C8.30772 23.663 9.36197 24.2511 10.4974 24.2511H21.4166C22.5521 24.2511 23.6063 23.6634 24.2032 22.6975C24.8 21.7319 24.8542 20.526 24.3465 19.5105L18.8867 8.59133C18.3319 7.48163 17.1976 6.78064 15.9568 6.78064Z" fill="#5DEB5A"/>
</g>
<defs>
<clipPath id="clip0_301_1106">
<rect width="32" height="32" fill="white"/>
</clipPath>
</defs>
</svg>
