<svg width="500" height="500" viewBox="0 0 32 32" fill="none" xmlns="http://www.w3.org/2000/svg">
<g clip-path="url(#clip0_301_740)">
<path d="M16 32C24.8366 32 32 24.8366 32 16C32 7.16344 24.8366 0 16 0C7.16344 0 0 7.16344 0 16C0 24.8366 7.16344 32 16 32Z" fill="black"/>
<path d="M27.7429 13.539C27.5847 12.7708 27.3509 12.0202 27.0449 11.298C26.7433 10.5867 26.3743 9.90596 25.9429 9.26502C25.5151 8.6318 25.0272 8.04139 24.4859 7.50202C23.9462 6.96066 23.3554 6.47272 22.7219 6.04502C22.08 5.6158 21.3998 5.2469 20.6899 4.94302C19.2218 4.32038 17.6435 3.99951 16.0489 3.99951C14.4543 3.99951 12.8759 4.32038 11.4079 4.94302C9.98833 5.54178 8.69899 6.41131 7.61188 7.50302C7.07062 8.04208 6.58269 8.63215 6.15488 9.26502C5.72561 9.90723 5.3567 10.5878 5.05288 11.298C4.43025 12.7661 4.10938 14.3444 4.10938 15.939C4.10938 17.5336 4.43025 19.112 5.05288 20.58C5.34688 21.29 5.72688 21.963 6.15488 22.612C6.58267 23.2455 7.0706 23.8363 7.61188 24.376C8.15157 24.9174 8.74232 25.4053 9.37588 25.833C10.0119 26.261 10.6979 26.629 11.4079 26.935C12.8759 27.5577 14.4543 27.8785 16.0489 27.8785C17.6435 27.8785 19.2218 27.5577 20.6899 26.935C21.3999 26.641 22.0729 26.261 22.7219 25.833C23.3554 25.4053 23.9462 24.9174 24.4859 24.376C25.0272 23.8363 25.5152 23.2456 25.9429 22.612C26.3709 21.976 26.7389 21.29 27.0449 20.58C27.9869 18.3583 28.2304 15.9025 27.7429 13.539ZM16.0599 26.384C10.2929 26.384 5.62788 21.706 5.62788 15.951C5.62788 10.196 10.3059 5.51802 16.0599 5.51802C21.8149 5.51802 26.4929 10.196 26.4929 15.951C26.4929 21.706 21.8159 26.384 16.0599 26.384Z" fill="white"/>
<path d="M16.2449 25.478H16.5269C16.5759 25.478 16.6239 25.478 16.6729 25.465H16.6859C16.7349 25.465 16.7709 25.465 16.8199 25.453H16.8569C16.8939 25.453 16.9309 25.453 16.9669 25.441H17.0039C17.0409 25.441 17.0779 25.429 17.1269 25.429H17.1509C17.1999 25.429 17.2489 25.416 17.2979 25.416C17.3469 25.416 17.3839 25.404 17.4329 25.392H17.4569C17.4939 25.392 17.5309 25.38 17.5669 25.38H17.5919C17.6409 25.367 17.6779 25.367 17.7269 25.355C17.8239 25.343 17.9219 25.318 18.0079 25.294H18.0329C18.0689 25.282 18.1179 25.282 18.1549 25.269H18.1669C18.2649 25.245 18.3509 25.22 18.4489 25.196C17.5318 25.2251 16.6146 25.1388 15.7189 24.939C14.3709 24.645 13.0859 24.119 11.9959 23.212C11.1366 22.4969 10.447 21.5997 9.97692 20.5854C9.50685 19.5711 9.26809 18.465 9.27793 17.347C9.28674 15.6793 9.88018 14.0674 10.9549 12.792C12.3509 11.139 14.3349 10.269 16.3669 10.22H16.6489V8.59204H16.3309C15.7127 8.60337 15.0973 8.67707 14.4939 8.81204C13.8868 8.94934 13.2958 9.15046 12.7309 9.41204C12.1549 9.68204 11.6159 10.012 11.1139 10.392C10.5952 10.7864 10.1228 11.2383 9.70593 11.739C9.31339 12.2025 8.9727 12.7075 8.68993 13.245C8.41018 13.7632 8.18433 14.3088 8.01593 14.873C7.85073 15.4286 7.74021 15.999 7.68593 16.576L7.64893 17.114V17.432C7.66093 18.057 7.73493 18.669 7.86893 19.269C8.00393 19.882 8.21193 20.469 8.46893 21.033C8.77593 21.706 9.32693 22.698 10.1469 23.445C11.8212 24.7649 13.8919 25.4812 16.0239 25.478H16.2449Z" fill="white"/>
<path d="M18.9138 23.91C18.3098 23.8884 17.7082 23.8229 17.1138 23.714C14.5918 23.261 12.4238 21.718 11.6288 19.392C10.6608 16.563 12.1428 13.502 14.9588 12.572C15.4954 12.3922 16.0578 12.301 16.6238 12.302C17.3468 12.302 18.0688 12.449 18.7308 12.718L19.4158 11.261C19.2098 11.1784 19.0017 11.1011 18.7918 11.029C18.0902 10.8088 17.3591 10.6972 16.6238 10.698C15.8871 10.6994 15.1554 10.8192 14.4568 11.053C13.5651 11.3471 12.744 11.8224 12.0448 12.449C11.7076 12.7494 11.4002 13.0816 11.1268 13.441C10.8565 13.7963 10.6227 14.1779 10.4288 14.58C10.0339 15.3884 9.8009 16.2662 9.74278 17.164C9.68178 18.094 9.80378 19.024 10.1098 19.906C10.4216 20.8133 10.9226 21.644 11.5798 22.343C12.1798 22.992 12.8778 23.482 13.7218 23.935C14.6038 24.4 15.6938 24.645 16.8318 24.805C17.5668 24.902 18.5468 24.927 19.1218 24.927C19.6238 24.743 19.8318 24.657 20.1018 24.547C20.3348 24.437 20.5668 24.327 20.7998 24.192C21.0328 24.057 21.0698 24.032 21.4608 23.776C21.4956 23.7543 21.5284 23.7296 21.5588 23.702C20.2118 23.935 19.8688 23.922 18.9138 23.91Z" fill="white"/>
<path d="M21.9271 22.086C21.5471 22.11 21.0081 22.146 20.3961 22.146C19.3061 22.146 17.9711 22.049 16.8331 21.669C15.0691 21.082 13.4041 19.576 13.4041 17.714C13.4037 17.2734 13.4902 16.8369 13.6587 16.4297C13.8272 16.0225 14.0743 15.6524 14.3859 15.3408C14.6975 15.0292 15.0675 14.7821 15.4747 14.6136C15.882 14.4452 16.3184 14.3587 16.7591 14.359C18.0201 14.359 19.1101 15.057 19.6861 16.073L21.1431 15.351C20.9147 14.9209 20.6212 14.5287 20.2731 14.188C19.8119 13.726 19.264 13.3595 18.661 13.1094C18.0579 12.8593 17.4115 12.7305 16.7586 12.7305C16.1057 12.7305 15.4593 12.8593 14.8562 13.1094C14.2532 13.3595 13.7054 13.726 13.2441 14.188C12.7822 14.6493 12.4158 15.197 12.1658 15.8C11.9158 16.403 11.7871 17.0493 11.7871 17.702C11.7904 18.3861 11.9369 19.062 12.2171 19.686C12.4731 20.249 12.8291 20.776 13.2821 21.266C14.0781 22.122 15.1671 22.808 16.3311 23.2C17.4451 23.567 19.0861 23.702 20.6781 23.592C21.1181 23.555 21.4491 23.518 22.0121 23.396C22.5554 22.9673 23.0486 22.4785 23.4821 21.939C23.1021 21.976 22.4041 22.049 21.9271 22.086Z" fill="white"/>
</g>
<defs>
<clipPath id="clip0_301_740">
<rect width="32" height="32" fill="white"/>
</clipPath>
</defs>
</svg>
