<svg width="32" height="32" viewBox="0 0 32 32" fill="none" xmlns="http://www.w3.org/2000/svg">
<g clip-path="url(#clip0_301_1089)">
<path d="M16 32C24.8366 32 32 24.8366 32 16C32 7.16344 24.8366 0 16 0C7.16344 0 0 7.16344 0 16C0 24.8366 7.16344 32 16 32Z" fill="white"/>
<path d="M17.4355 18.6667H10.1333V8H17.4355C19.9422 8 21.9733 10.0311 21.9733 12.5363V14.1289C21.9733 16.6356 19.9422 18.6667 17.4355 18.6667Z" fill="#AEDB01"/>
<path d="M19.317 23.9999H10.1333V18.6666C10.1333 15.7214 12.5214 13.3333 15.4681 13.3333H19.317C22.2637 13.3333 24.6518 15.7214 24.6518 18.6666C24.6518 21.6118 22.2637 23.9999 19.317 23.9999Z" fill="#B0B1AC"/>
<path d="M21.9733 14.0414V14.1303C21.9733 16.637 19.9422 18.6666 17.434 18.6666H10.1333C10.1333 17.194 10.7318 15.8607 11.6948 14.8947C12.6607 13.9288 13.994 13.3333 15.4696 13.3333H19.317C20.2844 13.3347 21.1911 13.5925 21.9733 14.0414Z" fill="#5D6D3C"/>
</g>
<defs>
<clipPath id="clip0_301_1089">
<rect width="32" height="32" fill="white"/>
</clipPath>
</defs>
</svg>
