<svg width="500" height="500" viewBox="0 0 32 32" fill="none" xmlns="http://www.w3.org/2000/svg">
<g clip-path="url(#clip0_301_1057)">
<circle cx="16" cy="16" r="16" fill="#121212"/>
<path fill-rule="evenodd" clip-rule="evenodd" d="M16.0003 8.07437L9.14372 12.0372V19.9628L16.0003 23.9256L22.8569 19.9628V12.0372L16.0003 8.07437ZM16.2883 6.07724C16.1101 5.97425 15.8905 5.97425 15.7123 6.07724L7.55992 10.789C7.38172 10.892 7.27197 11.0823 7.27197 11.2883V20.7117C7.27197 20.9177 7.38172 21.108 7.55992 21.211L15.7123 25.9228C15.8905 26.0258 16.1101 26.0258 16.2883 25.9228L24.4407 21.211C24.6189 21.108 24.7286 20.9177 24.7286 20.7117V11.2883C24.7286 11.0823 24.6189 10.892 24.4407 10.789L16.2883 6.07724Z" fill="#FF9211"/>
<path d="M16.0002 10.9451L11.6271 13.4726V18.5275L15.9714 21.0383C15.9892 21.0486 16.0002 21.0677 16.0002 21.0883V21.9537C16.0002 21.9981 15.9522 22.0259 15.9138 22.0037L10.9792 19.1516C10.8455 19.0744 10.7632 18.9317 10.7632 18.7772V13.2229C10.7632 13.0684 10.8455 12.9257 10.9792 12.8484L15.7842 10.0713C15.9179 9.99412 16.0825 9.99412 16.2162 10.0713L21.1705 12.9244C21.2086 12.9463 21.209 13.0012 21.1712 13.0237C20.8788 13.1973 20.7291 13.2745 20.402 13.4566C20.3842 13.4665 20.3626 13.4664 20.345 13.4562L16.0002 10.9451Z" fill="#FF9211"/>
<path d="M16.7202 16.1067C16.7202 16.0854 16.732 16.0658 16.7508 16.0558L21.0989 13.739C21.1373 13.7186 21.1836 13.7464 21.1836 13.7899V19.426C21.1836 19.4465 21.1727 19.4655 21.1549 19.4758L16.8067 22.0032C16.7683 22.0256 16.7202 21.9978 16.7202 21.9534V16.1067Z" fill="#FF9211"/>
</g>
<defs>
<clipPath id="clip0_301_1057">
<rect width="32" height="32" fill="white"/>
</clipPath>
</defs>
</svg>
