<svg width="500" height="500" viewBox="0 0 32 32" fill="none" xmlns="http://www.w3.org/2000/svg">
<g clip-path="url(#clip0_301_1030)">
<path d="M26.5 16C26.5 10.201 21.799 5.5 16 5.5C10.201 5.5 5.5 10.201 5.5 16C5.5 21.799 10.201 26.5 16 26.5C21.799 26.5 26.5 21.799 26.5 16Z" fill="#D9D9D9" stroke="#B7F7B0" stroke-width="10.4448"/>
<path d="M24.7334 16.0003C24.7334 11.1773 20.8237 7.26758 16.0007 7.26758C11.1778 7.26758 7.26807 11.1773 7.26807 16.0003C7.26807 20.8232 11.1778 24.7329 16.0007 24.7329C20.8237 24.7329 24.7334 20.8232 24.7334 16.0003Z" fill="#D9D9D9" stroke="#07DC10" stroke-width="6.9632"/>
<path d="M22.9644 15.9999C22.9644 12.153 19.8459 9.03455 15.999 9.03455C12.1522 9.03455 9.03369 12.153 9.03369 15.9999C9.03369 19.8467 12.1522 22.9652 15.999 22.9652C19.8459 22.9652 22.9644 19.8467 22.9644 15.9999Z" fill="#D9D9D9" stroke="#0C9B00" stroke-width="3.4816"/>
<path d="M21.1978 16.0001C21.1978 13.1294 18.8706 10.8021 15.9998 10.8021C13.129 10.8021 10.8018 13.1294 10.8018 16.0001C10.8018 18.8709 13.129 21.1982 15.9998 21.1982C18.8706 21.1982 21.1978 18.8709 21.1978 16.0001Z" fill="#EAEAEA"/>
</g>
<defs>
<clipPath id="clip0_301_1030">
<rect width="32" height="32" fill="white"/>
</clipPath>
</defs>
</svg>
