<?xml version="1.0" encoding="UTF-8"?>
<!DOCTYPE svg PUBLIC "-//W3C//DTD SVG 1.1//EN" "http://www.w3.org/Graphics/SVG/1.1/DTD/svg11.dtd">
<svg xmlns="http://www.w3.org/2000/svg" version="1.1" width="200px" height="200px" style="shape-rendering:geometricPrecision; text-rendering:geometricPrecision; image-rendering:optimizeQuality; fill-rule:evenodd; clip-rule:evenodd" xmlns:xlink="http://www.w3.org/1999/xlink">
<g><path style="opacity:1" fill="#fed0d9" d="M -0.5,-0.5 C 66.1667,-0.5 132.833,-0.5 199.5,-0.5C 199.5,66.1667 199.5,132.833 199.5,199.5C 132.833,199.5 66.1667,199.5 -0.5,199.5C -0.5,132.833 -0.5,66.1667 -0.5,-0.5 Z"/></g>
<g><path style="opacity:1" fill="#192cae" d="M 132.5,47.5 C 131.596,48.209 131.263,49.209 131.5,50.5C 129.643,46.1381 126.809,42.4714 123,39.5C 122.833,39.8333 122.667,40.1667 122.5,40.5C 124.252,42.2459 125.585,44.2459 126.5,46.5C 124.932,47.4731 123.265,47.6397 121.5,47C 125.397,45.589 125.397,44.4223 121.5,43.5C 119.608,44.4734 117.608,45.1401 115.5,45.5C 108.937,43.8128 102.604,41.8128 96.5,39.5C 97.6594,37.7497 99.326,36.7497 101.5,36.5C 112.245,31.1081 121.745,32.7748 130,41.5C 131.122,43.4068 131.955,45.4068 132.5,47.5 Z"/></g>
<g><path style="opacity:1" fill="#0825c6" d="M 101.5,36.5 C 105.009,36.4576 108.342,37.1242 111.5,38.5C 111.5,37.5 111.5,36.5 111.5,35.5C 113.734,35.6199 115.901,35.2865 118,34.5C 118.5,34.8333 119,35.1667 119.5,35.5C 118.675,36.3857 117.675,36.719 116.5,36.5C 116.5,37.5 116.5,38.5 116.5,39.5C 117.5,39.5 118.5,39.5 119.5,39.5C 119.5,40.5 119.5,41.5 119.5,42.5C 115.858,41.9196 112.191,41.4196 108.5,41C 106.109,39.3968 103.776,37.8968 101.5,36.5 Z"/></g>
<g><path style="opacity:1" fill="#c3daf2" d="M 131.5,50.5 C 132.301,66.4419 131.468,66.4419 129,50.5C 128.338,49.0161 127.504,47.6828 126.5,46.5C 125.585,44.2459 124.252,42.2459 122.5,40.5C 122.667,40.1667 122.833,39.8333 123,39.5C 126.809,42.4714 129.643,46.1381 131.5,50.5 Z"/></g>
<g><path style="opacity:1" fill="#0c29bb" d="M 96.5,39.5 C 102.604,41.8128 108.937,43.8128 115.5,45.5C 117.608,45.1401 119.608,44.4734 121.5,43.5C 125.397,44.4223 125.397,45.589 121.5,47C 123.265,47.6397 124.932,47.4731 126.5,46.5C 127.504,47.6828 128.338,49.0161 129,50.5C 131.468,66.4419 132.301,66.4419 131.5,50.5C 131.263,49.209 131.596,48.209 132.5,47.5C 134.605,50.4083 135.605,53.7417 135.5,57.5C 135.809,62.2675 135.309,66.9342 134,71.5C 132.585,74.2179 130.585,74.8846 128,73.5C 127.517,74.448 127.351,75.448 127.5,76.5C 126.167,76.5 124.833,76.5 123.5,76.5C 97.1684,70.7798 79.0017,80.4464 69,105.5C 68.3333,109.167 68.3333,112.833 69,116.5C 71.4934,124.154 74.9934,131.154 79.5,137.5C 78.1986,138.64 77.0319,139.973 76,141.5C 75.5831,140.244 74.7498,139.577 73.5,139.5C 70.0172,136.334 66.0172,135.667 61.5,137.5C 59.1553,135.643 58.822,133.31 60.5,130.5C 61.0967,130.265 61.4301,129.765 61.5,129C 61.2944,126.27 60.2944,124.103 58.5,122.5C 57.9441,115.506 57.2775,108.506 56.5,101.5C 55.8076,102.025 55.3076,102.692 55,103.5C 54.3315,111.326 55.1649,118.993 57.5,126.5C 57.7148,128.179 57.0481,129.179 55.5,129.5C 52.1658,117.646 51.6658,105.646 54,93.5C 60.919,83.2455 69.2523,74.2455 79,66.5C 82.9463,61.0085 85.9463,55.0085 88,48.5C 89.9965,44.6712 92.8298,41.6712 96.5,39.5 Z"/></g>
<g><path style="opacity:1" fill="#bbe0fc" d="M 130.5,63.5 C 132.337,63.6395 132.67,64.3061 131.5,65.5C 130.702,65.0431 130.369,64.3764 130.5,63.5 Z"/></g>
<g><path style="opacity:1" fill="#f6f9f9" d="M 123.5,76.5 C 128.13,79.3678 131.63,83.3678 134,88.5C 137.99,99.6277 141.157,110.961 143.5,122.5C 142.198,143.298 131.531,156.465 111.5,162C 96.8784,164.686 84.3784,160.853 74,150.5C 70.4233,152.454 66.59,152.954 62.5,152C 57.51,147.531 57.1767,142.698 61.5,137.5C 66.0172,135.667 70.0172,136.334 73.5,139.5C 75.9961,143.469 78.3294,143.302 80.5,139C 80.4301,138.235 80.0967,137.735 79.5,137.5C 74.9934,131.154 71.4934,124.154 69,116.5C 68.3333,112.833 68.3333,109.167 69,105.5C 79.0017,80.4464 97.1684,70.7798 123.5,76.5 Z"/></g>
<g><path style="opacity:1" fill="#1f339f" d="M 131.5,103.5 C 129.284,100.585 127.951,97.2515 127.5,93.5C 126.167,93.5 124.833,93.5 123.5,93.5C 123.56,89.5149 121.56,87.8482 117.5,88.5C 118.229,92.1542 119.063,95.4876 120,98.5C 128.315,98.5242 129.315,100.858 123,105.5C 122.51,106.793 122.343,108.127 122.5,109.5C 120.926,106.57 121.592,104.07 124.5,102C 120.632,101.987 118.132,100.153 117,96.5C 115.056,85.6894 118.39,83.6894 127,90.5C 129.602,94.4738 131.102,98.8071 131.5,103.5 Z"/></g>
<g><path style="opacity:1" fill="#22369e" d="M 100.5,95.5 C 103.328,98.6751 105.328,102.342 106.5,106.5C 103.385,103.532 101.385,99.8655 100.5,95.5 Z"/></g>
<g><path style="opacity:1" fill="#2535a9" d="M 100.5,95.5 C 99.2436,95.9038 98.0769,96.5705 97,97.5C 95.902,96.6161 95.402,95.6161 95.5,94.5C 91.8013,97.4696 91.6347,100.803 95,104.5C 95.2492,103.376 95.7492,102.376 96.5,101.5C 98.5499,102.077 99.5499,103.41 99.5,105.5C 98.0222,105.238 96.6888,105.571 95.5,106.5C 98.2949,106.938 100.628,107.938 102.5,109.5C 100.143,109.663 97.8098,109.497 95.5,109C 91.6913,104.353 90.6913,99.1861 92.5,93.5C 95.7524,92.0154 98.419,92.682 100.5,95.5 Z"/></g>
<g><path style="opacity:1" fill="#0727bf" d="M 131.5,103.5 C 131.665,106.518 131.498,109.518 131,112.5C 129.413,113.727 128.079,113.394 127,111.5C 126.508,112.549 126.674,113.549 127.5,114.5C 127.043,115.298 126.376,115.631 125.5,115.5C 123.975,113.784 122.975,111.784 122.5,109.5C 122.343,108.127 122.51,106.793 123,105.5C 129.315,100.858 128.315,98.5242 120,98.5C 119.063,95.4876 118.229,92.1542 117.5,88.5C 121.56,87.8482 123.56,89.5149 123.5,93.5C 124.833,93.5 126.167,93.5 127.5,93.5C 127.951,97.2515 129.284,100.585 131.5,103.5 Z"/></g>
<g><path style="opacity:1" fill="#c4d3ed" d="M 58.5,122.5 C 58.5394,123.583 58.8728,124.583 59.5,125.5C 59.0431,126.298 58.3764,126.631 57.5,126.5C 55.1649,118.993 54.3315,111.326 55,103.5C 55.3076,102.692 55.8076,102.025 56.5,101.5C 57.2775,108.506 57.9441,115.506 58.5,122.5 Z"/></g>
<g><path style="opacity:1" fill="#2b3ba8" d="M 131.5,103.5 C 132.643,106.976 132.81,110.642 132,114.5C 130.311,118.121 128.144,118.454 125.5,115.5C 126.376,115.631 127.043,115.298 127.5,114.5C 126.674,113.549 126.508,112.549 127,111.5C 128.079,113.394 129.413,113.727 131,112.5C 131.498,109.518 131.665,106.518 131.5,103.5 Z"/></g>
<g><path style="opacity:1" fill="#1229ba" d="M 100.5,95.5 C 101.385,99.8655 103.385,103.532 106.5,106.5C 108.399,112.353 108.899,118.353 108,124.5C 106.534,126.325 104.701,126.825 102.5,126C 96.1509,120.046 96.1509,114.546 102.5,109.5C 100.628,107.938 98.2949,106.938 95.5,106.5C 96.6888,105.571 98.0222,105.238 99.5,105.5C 99.5499,103.41 98.5499,102.077 96.5,101.5C 95.7492,102.376 95.2492,103.376 95,104.5C 91.6347,100.803 91.8013,97.4696 95.5,94.5C 95.402,95.6161 95.902,96.6161 97,97.5C 98.0769,96.5705 99.2436,95.9038 100.5,95.5 Z"/></g>
<g><path style="opacity:1" fill="#2f3aa9" d="M 118.5,119.5 C 127.243,118.734 130.076,122.401 127,130.5C 124.782,132.619 122.282,132.952 119.5,131.5C 120.991,129.988 122.824,128.988 125,128.5C 126.5,123.333 124.667,121.5 119.5,123C 118.491,125.172 116.824,126.338 114.5,126.5C 114.571,123.348 115.905,121.014 118.5,119.5 Z"/></g>
<g><path style="opacity:1" fill="#2b34ab" d="M 135.5,57.5 C 137.051,63.2131 136.551,68.8797 134,74.5C 132.926,75.6184 131.76,76.6184 130.5,77.5C 142.693,96.6312 146.859,117.298 143,139.5C 134.911,156.395 121.411,165.062 102.5,165.5C 91.2641,165.481 81.7641,161.481 74,153.5C 62.2115,158.394 56.2115,154.394 56,141.5C 57.0836,140.335 57.9169,139.002 58.5,137.5C 57.4916,134.805 56.4916,132.138 55.5,129.5C 57.0481,129.179 57.7148,128.179 57.5,126.5C 58.3764,126.631 59.0431,126.298 59.5,125.5C 58.8728,124.583 58.5394,123.583 58.5,122.5C 60.2944,124.103 61.2944,126.27 61.5,129C 61.4301,129.765 61.0967,130.265 60.5,130.5C 58.822,133.31 59.1553,135.643 61.5,137.5C 57.1767,142.698 57.51,147.531 62.5,152C 66.59,152.954 70.4233,152.454 74,150.5C 84.3784,160.853 96.8784,164.686 111.5,162C 131.531,156.465 142.198,143.298 143.5,122.5C 141.157,110.961 137.99,99.6277 134,88.5C 131.63,83.3678 128.13,79.3678 123.5,76.5C 124.833,76.5 126.167,76.5 127.5,76.5C 127.351,75.448 127.517,74.448 128,73.5C 130.585,74.8846 132.585,74.2179 134,71.5C 135.309,66.9342 135.809,62.2675 135.5,57.5 Z"/></g>
<g><path style="opacity:1" fill="#2032b2" d="M 92.5,131.5 C 99.489,135.944 107.156,138.778 115.5,140C 122.483,141.379 128.983,140.212 135,136.5C 135.5,136.833 136,137.167 136.5,137.5C 131.147,146.019 123.814,152.186 114.5,156C 107.127,157.233 101.294,154.733 97,148.5C 95.2584,142.828 93.7584,137.162 92.5,131.5 Z"/></g>
<g><path style="opacity:1" fill="#2d39ae" d="M 66.5,141.5 C 67.9778,141.238 69.3112,141.571 70.5,142.5C 68.3316,144.455 65.9983,145.121 63.5,144.5C 64.7701,143.712 65.7701,142.712 66.5,141.5 Z"/></g>
<g><path style="opacity:1" fill="#e8f4f6" d="M 97.5,137.5 C 107.337,141.83 117.67,143.664 128.5,143C 118.788,147.835 109.121,147.502 99.5,142C 97.9632,140.89 97.2965,139.39 97.5,137.5 Z"/></g>
<g><path style="opacity:1" fill="#3746a2" d="M 79.5,137.5 C 80.0967,137.735 80.4301,138.235 80.5,139C 78.3294,143.302 75.9961,143.469 73.5,139.5C 74.7498,139.577 75.5831,140.244 76,141.5C 77.0319,139.973 78.1986,138.64 79.5,137.5 Z"/></g>
<g><path style="opacity:1" fill="#b9edff" d="M 60.5,130.5 C 58.663,130.361 58.3296,129.694 59.5,128.5C 60.2975,128.957 60.6309,129.624 60.5,130.5 Z"/></g>
</svg>
