<svg width="500" height="500" viewBox="0 0 32 32" fill="none" xmlns="http://www.w3.org/2000/svg">
<circle cx="16" cy="16" r="16" fill="#24201F"/>
<mask id="mask0_301_1022" style="mask-type:luminance" maskUnits="userSpaceOnUse" x="6" y="6" width="20" height="20">
<path d="M26 6H6V26H26V6Z" fill="white"/>
</mask>
<g mask="url(#mask0_301_1022)">
<path d="M7.0847 18.4728C6.63731 18.0253 6.33728 17.5086 6.1846 16.9226C6.03547 16.333 6.03547 15.7435 6.1846 15.154C6.33728 14.5609 6.63553 14.0424 7.07937 13.5985C7.5303 13.1475 8.05048 12.8474 8.63989 12.6982C9.2293 12.549 9.81871 12.549 10.4081 12.6982C10.9976 12.8474 11.5159 13.1457 11.9633 13.5931L13.0711 14.7012L14.7116 13.0604L13.6037 11.9524C13.1563 11.5049 12.8563 10.9882 12.7036 10.4022C12.5545 9.81269 12.5527 9.22494 12.6983 8.63897C12.8474 8.04944 13.1475 7.52916 13.5984 7.07813C14.0458 6.63066 14.5642 6.33234 15.1536 6.18319C15.743 6.03403 16.3306 6.0358 16.9165 6.18851C17.5059 6.33767 18.0243 6.63599 18.4717 7.08346C18.9191 7.53094 19.2174 8.04944 19.3665 8.63897C19.5192 9.22494 19.5209 9.81269 19.3718 10.4022C19.2262 10.9953 18.9298 11.5156 18.4824 11.9631L17.3799 13.0658L19.015 14.7012L20.1174 13.5985C20.5648 13.151 21.0814 12.8509 21.6673 12.6982C22.2567 12.549 22.8444 12.5508 23.4302 12.7035C24.0196 12.8527 24.5398 13.1528 24.9907 13.6038C25.4382 14.0513 25.7364 14.5698 25.8855 15.1593C26.0382 15.7453 26.0382 16.3313 25.8855 16.9173C25.7364 17.5068 25.4382 18.0253 24.9907 18.4728C24.5398 18.9238 24.0196 19.2239 23.4302 19.373C22.8444 19.5186 22.2567 19.5169 21.6673 19.3677C21.085 19.2186 20.5702 18.9202 20.1228 18.4728L19.0203 17.37L17.3799 19.0108L18.4824 20.1135C18.9298 20.561 19.2262 21.0777 19.3718 21.6637C19.5209 22.2532 19.5209 22.8427 19.3718 23.4323C19.2227 24.0218 18.9226 24.5421 18.4717 24.9931C18.0279 25.437 17.5095 25.7353 16.9165 25.888C16.3271 26.0372 15.7377 26.0372 15.1483 25.888C14.566 25.7389 14.0511 25.4406 13.6037 24.9931C13.1528 24.5421 12.851 24.0236 12.6983 23.4376C12.5492 22.8481 12.5492 22.2585 12.6983 21.669C12.8545 21.0795 13.1546 20.5627 13.5984 20.1188L14.7116 19.0055L13.0765 17.37L11.9633 18.4834C11.5195 18.9273 10.9993 19.2239 10.4028 19.373C9.81338 19.5222 9.22398 19.5222 8.63457 19.373C8.04871 19.2203 7.53208 18.9202 7.0847 18.4728ZM8.4162 17.141C8.61859 17.3434 8.85293 17.4784 9.11923 17.5458C9.38908 17.6169 9.65717 17.6187 9.92345 17.5512C10.1898 17.4837 10.4241 17.3487 10.6265 17.1463L11.7396 16.0329L10.6318 14.9249C10.4294 14.7225 10.1933 14.5893 9.92345 14.5254C9.65717 14.4579 9.39086 14.4579 9.12456 14.5254C8.85826 14.5929 8.62214 14.7296 8.4162 14.9356C8.21381 15.138 8.07711 15.3706 8.0061 15.6334C7.93863 15.8998 7.93863 16.1661 8.0061 16.4325C8.07711 16.7024 8.21381 16.9386 8.4162 17.141ZM14.9352 10.6206L16.0431 11.7287L17.1455 10.626C17.3515 10.42 17.4864 10.1856 17.5503 9.9228C17.6178 9.65645 17.616 9.38831 17.545 9.1184C17.4775 8.85205 17.3426 8.61766 17.1402 8.41522C16.9378 8.2128 16.7035 8.07785 16.4372 8.01037C16.1709 7.94289 15.9046 7.94289 15.6383 8.01037C15.3755 8.07429 15.1412 8.20925 14.9352 8.41522C14.7329 8.61766 14.5944 8.85205 14.5198 9.1184C14.4524 9.38475 14.4524 9.65111 14.5198 9.91746C14.5944 10.1838 14.7329 10.4182 14.9352 10.6206ZM20.0399 16.0383L21.1424 17.141C21.3447 17.3434 21.5773 17.4801 21.8401 17.5512C22.1064 17.6187 22.6828 17.6169 22.9456 17.5458C23.2119 17.4784 23.448 17.3416 23.6539 17.1357C23.8599 16.9297 23.9948 16.6953 24.0587 16.4325C24.1297 16.1697 24.1315 15.9051 24.064 15.6387C23.9966 15.3724 23.8616 15.138 23.6592 14.9356C23.4533 14.7296 23.2172 14.5929 22.9509 14.5254C22.6846 14.4579 22.1064 14.4579 21.8401 14.5254C21.5809 14.5929 21.3483 14.7296 21.1424 14.9356L20.0399 16.0383ZM14.9352 23.6613C15.1376 23.8637 15.372 23.9987 15.6383 24.0662C15.9046 24.1336 16.1691 24.1319 16.4319 24.0608C16.6982 23.9934 16.9325 23.8584 17.1349 23.656C17.3408 23.45 17.4775 23.2138 17.545 22.9475C17.616 22.6847 17.6178 22.4201 17.5503 22.1537C17.4864 21.8838 17.3532 21.6477 17.1509 21.4453L16.0484 20.3426L14.9352 21.4559C14.7329 21.6583 14.5962 21.8909 14.5251 22.1537C14.4577 22.4201 14.4577 22.6864 14.5251 22.9528C14.5926 23.2192 14.7293 23.4554 14.9352 23.6613ZM14.408 16.0383L16.0431 17.6737L17.6834 16.0329L16.0484 14.3975L14.408 16.0383Z" fill="#F1E1D4"/>
</g>
</svg>
