<svg width="32" height="32" viewBox="0 0 32 32" fill="none" xmlns="http://www.w3.org/2000/svg">
<g clip-path="url(#clip0_306_1261)">
<mask id="mask0_306_1261" style="mask-type:luminance" maskUnits="userSpaceOnUse" x="0" y="0" width="32" height="32">
<path d="M31.3018 0.558594H0.271484V31.5889H31.3018V0.558594Z" fill="white"/>
</mask>
<g mask="url(#mask0_306_1261)">
<path d="M31.302 16.1124C31.302 7.56502 24.3729 0.635986 15.8255 0.635986C7.27815 0.635986 0.349121 7.56502 0.349121 16.1124C0.349121 24.6598 7.27815 31.5888 15.8255 31.5888C24.3729 31.5888 31.302 24.6598 31.302 16.1124Z" fill="#B4F9BA"/>
<path d="M12.7056 8.43423L15.6973 6.70652C15.7825 6.6574 15.8882 6.6574 15.9734 6.70652L23.8582 11.2588C23.9434 11.308 23.9959 11.3989 23.9967 11.4972L24.0073 14.6282C24.0073 14.7273 23.9549 14.8191 23.8689 14.8682L20.8812 16.5935C20.6978 16.7 20.4676 16.5673 20.4667 16.3551L20.4569 13.5452C20.4569 13.4469 20.4036 13.356 20.3184 13.3068L12.7056 8.91264C12.5213 8.80614 12.5213 8.54073 12.7056 8.43423Z" fill="#010101"/>
<path d="M10.7729 22.6158L7.78201 20.8889C7.696 20.8398 7.64355 20.7488 7.64355 20.6497V11.5451C7.64355 11.4468 7.696 11.3559 7.78117 11.3059L10.4878 9.73059C10.5738 9.68062 10.6795 9.68062 10.7647 9.73059L13.7523 11.4558C13.9358 11.5623 13.9366 11.8269 13.7532 11.9342L11.3251 13.3474C11.2398 13.3965 11.1874 13.4874 11.1874 13.5866V22.3774C11.1874 22.5904 10.9572 22.7231 10.7729 22.6166V22.6158Z" fill="#010101"/>
<path d="M24.0066 17.1953V20.649C24.0066 20.7482 23.9542 20.8391 23.8682 20.8883L15.9834 25.4406C15.8982 25.4897 15.7933 25.4897 15.7081 25.4406L12.9908 23.8841C12.9048 23.8349 12.8516 23.7432 12.8516 23.644V20.1944C12.8516 19.9822 13.0809 19.8495 13.2652 19.9544L15.7032 21.3511C15.7884 21.4003 15.8933 21.3994 15.9784 21.3511L23.5913 16.9553C23.7756 16.8488 24.0058 16.9815 24.0058 17.1945L24.0066 17.1953Z" fill="#010101"/>
</g>
</g>
<defs>
<clipPath id="clip0_306_1261">
<rect width="32" height="32" fill="white"/>
</clipPath>
</defs>
</svg>
