<svg width="500" height="500" viewBox="0 0 32 32" fill="none" xmlns="http://www.w3.org/2000/svg">
<g clip-path="url(#clip0_299_667)">
<path d="M9.40804 18.2144C10.3296 18.2144 11.2256 17.9072 11.9552 17.344L6.11844 11.5072C4.71044 13.3248 5.04324 15.936 6.86084 17.344C7.59044 17.8944 8.48644 18.2016 9.40804 18.2016V18.2144Z" fill="#3E6957"/>
<path d="M26.7521 14.0544C26.7521 13.1328 26.4449 12.2368 25.8817 11.5072L20.0449 17.344C21.8625 18.752 24.4737 18.4192 25.8817 16.6016C26.4449 15.872 26.7521 14.976 26.7521 14.0544Z" fill="#3E6957"/>
<path d="M29.696 7.7056L27.1104 10.2912C29.184 12.7872 28.864 16.4864 26.368 18.5728C24.1792 20.4032 21.0176 20.4032 18.8288 18.5728L16 21.4016L13.1712 18.5728C10.6752 20.6464 6.976 20.3264 4.8896 17.8304C3.0592 15.6416 3.0592 12.48 4.8896 10.2912L3.5712 8.9728L2.3168 7.7056C0.7936 10.2016 0 13.0688 0 16C0 24.832 7.168 32 16 32C24.832 32 32 24.832 32 16C32.0128 13.0816 31.1936 10.2016 29.696 7.7056Z" fill="#3E6957"/>
<path d="M27.571 4.95359C21.4782 -1.43361 11.3534 -1.67681 4.96625 4.41599C4.77425 4.59519 4.59505 4.77439 4.42865 4.95359C4.03185 5.37599 3.66065 5.81119 3.30225 6.25919L15.9998 18.9568L28.6974 6.25919C28.3518 5.79839 27.9678 5.36319 27.571 4.95359ZM15.9998 2.08639C19.7374 2.08639 23.219 3.53279 25.843 6.15679L15.9998 16L6.15665 6.15679C8.76785 3.51999 12.2622 2.08639 15.9998 2.08639Z" fill="#3E6957"/>
</g>
<defs>
<clipPath id="clip0_299_667">
<rect width="32" height="32" fill="white"/>
</clipPath>
</defs>
</svg>
