<svg width="500" height="500" viewBox="0 0 32 32" fill="none" xmlns="http://www.w3.org/2000/svg">
<g clip-path="url(#clip0_301_997)">
<path fill-rule="evenodd" clip-rule="evenodd" d="M26.1378 28.2368L16.0386 18.0224L5.79858 28.3136C7.83378 29.6704 11.021 31.9872 15.9362 32.0128C20.8514 32.0384 24.7938 29.5936 26.125 28.2496L26.1378 28.2368ZM28.237 5.76L17.997 15.9744C21.4274 19.392 24.8066 22.848 28.1986 26.2912C33.5106 19.5072 33.0242 12.5184 28.237 5.7472V5.76ZM3.71218 26.1376L12.5826 2.5216L0.140976 15.04C-0.499024 18.688 1.39538 23.3216 3.71218 26.1376ZM8.38418 21.4912C9.02418 21.3248 23.1298 6.8352 26.1634 3.8272C24.589 1.728 19.1874 -0.0895954 16.4866 4.61132e-06L8.38418 21.4912Z" fill="url(#paint0_linear_301_997)"/>
</g>
<defs>
<linearGradient id="paint0_linear_301_997" x1="8.78279" y1="30.3066" x2="24.6804" y2="2.53063" gradientUnits="userSpaceOnUse">
<stop stop-color="#850000"/>
<stop offset="0.251" stop-color="#C70158"/>
<stop offset="0.4824" stop-color="#DE1E41"/>
<stop offset="0.6392" stop-color="#F63B2A"/>
<stop offset="1" stop-color="#FF8700"/>
</linearGradient>
<clipPath id="clip0_301_997">
<rect width="32" height="32" fill="white"/>
</clipPath>
</defs>
</svg>
