<svg width="32" height="32" viewBox="0 0 32 32" fill="none" xmlns="http://www.w3.org/2000/svg">
<g clip-path="url(#clip0_301_1001)">
<path d="M32 0H0V32H32V0Z" fill="black"/>
<path d="M15.847 29.7466V25.0444C15.3782 25.0444 14.8992 25.0032 14.4305 24.9312L13.6967 29.5717C14.4101 29.6952 15.1336 29.7466 15.847 29.7466ZM17.9871 29.582C18.7005 29.4688 19.4037 29.3042 20.0865 29.0778L18.6496 24.6019C18.2012 24.746 17.7324 24.8591 17.2636 24.9312L17.9871 29.582ZM11.6075 29.0778L13.0445 24.6122C12.5961 24.4681 12.1578 24.2829 11.7298 24.0669L9.61007 28.2546C10.2521 28.5736 10.9247 28.8514 11.6075 29.0778ZM22.0738 28.2546C22.7158 27.9254 23.3273 27.5447 23.9082 27.1228L21.1566 23.326C20.7795 23.6038 20.3719 23.8611 19.9438 24.0669L22.0738 28.2546ZM7.77568 27.1125L10.5273 23.3157C10.1502 23.0379 9.78332 22.7292 9.44702 22.3897L6.14511 25.7132C6.65466 26.2173 7.20498 26.6907 7.77568 27.1125ZM25.5285 25.7337L25.5591 25.7029C26.0687 25.1987 26.5375 24.6431 26.9553 24.0669L23.1846 21.299C22.9094 21.6797 22.5935 22.0501 22.2674 22.3794L22.2164 22.4308L23.8063 23.9434L25.5285 25.7337ZM4.74893 24.0566L8.51963 21.2887C8.24447 20.908 7.98969 20.4964 7.77568 20.0746L3.61772 22.2045C3.94383 22.8527 4.3209 23.4701 4.74893 24.0566ZM28.0763 22.2148C28.4024 21.5768 28.6776 20.8977 28.9018 20.2083L24.4585 18.7678C24.3158 19.2206 24.1324 19.663 23.9184 20.0849L28.0763 22.2148ZM2.79224 20.2083L7.23555 18.7575C7.09288 18.3048 6.98078 17.8418 6.90944 17.3685L2.29288 18.099C2.40498 18.809 2.57823 19.519 2.79224 20.2083ZM29.4012 18.1093C29.5133 17.3993 29.5744 16.6688 29.5744 15.9485H24.9069C24.9069 16.4218 24.8661 16.9054 24.7948 17.3788L29.4012 18.1093ZM6.79734 15.9382C6.79734 15.4649 6.8381 14.9813 6.90944 14.508L2.29288 13.7775C2.18078 14.4874 2.12982 15.218 2.11963 15.9382H6.79734ZM24.7948 14.5183L29.4113 13.7878C29.2992 13.0778 29.1362 12.3678 28.912 11.6784L24.4687 13.119C24.6113 13.582 24.7234 14.045 24.7948 14.5183ZM7.23555 13.119C7.37823 12.6662 7.56167 12.2238 7.77568 11.8019L3.61772 9.67201C3.2916 10.3099 3.01644 10.989 2.79224 11.6784L7.23555 13.119ZM23.9285 11.8122L28.0967 9.68229C27.7706 9.03406 27.3935 8.4167 26.9655 7.8302L23.1846 10.5981C23.4598 10.9788 23.7145 11.3903 23.9285 11.8122ZM8.51963 10.5878C8.79479 10.2071 9.11071 9.83664 9.44702 9.49709L9.45721 9.4868L6.1553 6.16332L6.14511 6.17361C5.63555 6.68808 5.16676 7.23342 4.74893 7.81992L8.51963 10.5878ZM22.2674 9.51766L23.2661 8.49901L25.5591 6.19419L25.5489 6.1839C25.0394 5.67972 24.4992 5.20641 23.9285 4.78455L21.177 8.58133C21.554 8.85914 21.9209 9.16783 22.247 9.50737L22.2674 9.51766ZM10.5375 8.56075C10.9145 8.28294 11.3222 8.03599 11.7502 7.81992L9.63046 3.63213C8.98842 3.96139 8.37695 4.3421 7.79606 4.76397L10.5375 8.56075ZM19.9744 7.8302L22.1043 3.64242C21.4623 3.31316 20.7999 3.03535 20.1171 2.80898L18.6699 7.27458C19.1082 7.42892 19.5464 7.61413 19.9744 7.8302ZM13.0649 7.27458C13.5133 7.13053 13.982 7.01734 14.4508 6.94532L13.7273 2.3048C13.0241 2.41799 12.3107 2.58262 11.6279 2.80898L13.0649 7.27458ZM17.2738 6.94532L18.0075 2.3048C17.3043 2.19162 16.5808 2.12988 15.8674 2.12988V6.83213C16.3362 6.83213 16.8152 6.87329 17.2738 6.94532Z" fill="white"/>
<path d="M15.8469 25.2605V20.5376C15.4494 20.5376 15.0622 20.4862 14.6749 20.3833L13.452 24.9415C14.2367 25.1473 15.0418 25.2605 15.8469 25.2605ZM18.2418 24.9415C19.0265 24.7357 19.7705 24.427 20.4736 24.0155L18.1093 19.9306C17.773 20.1261 17.4061 20.2804 17.0291 20.3833L18.2418 24.9415ZM11.2303 24.0155L13.5947 19.9306C13.2584 19.7351 12.9424 19.4881 12.6571 19.2103L12.6163 19.1692L11.1284 20.7434L9.29402 22.5235L9.3246 22.5544C9.8953 23.1203 10.5373 23.6142 11.2303 24.0155ZM22.3794 22.5544C22.9501 21.9782 23.4494 21.3402 23.8469 20.6405L19.7603 18.274C19.5666 18.6135 19.3221 18.9222 19.0367 19.2103L22.3794 22.5544ZM7.84689 20.6302L11.9335 18.274C11.7399 17.9344 11.587 17.5743 11.4851 17.1936L6.92969 18.4077C7.13351 19.1794 7.44944 19.9306 7.84689 20.6302ZM24.7743 18.418C24.9781 17.636 25.0902 16.8335 25.0902 16.0309H20.3717C20.3717 16.4219 20.3208 16.8232 20.2189 17.2039L24.7743 18.418ZM11.3424 16.0206C11.3424 15.6296 11.3934 15.2283 11.4953 14.8476L6.92969 13.6335C6.72587 14.4155 6.61377 15.218 6.61377 16.0206H11.3424ZM20.2087 14.8579L24.7743 13.6437C24.5705 12.8618 24.2545 12.1106 23.8571 11.411L19.7705 13.7672C19.9539 14.1171 20.1068 14.4772 20.2087 14.8579ZM11.9437 13.7672C12.1373 13.438 12.3717 13.119 12.6571 12.8412L12.6673 12.8309L10.9756 11.1434L9.35517 9.46626L9.3246 9.49713C8.7539 10.063 8.26472 10.7113 7.85708 11.4007L11.9437 13.7672ZM19.0367 12.8412L20.708 11.164L22.4201 9.53828L22.3794 9.49713C21.8087 8.92092 21.1666 8.43732 20.4736 8.02574L18.1093 12.1106C18.4456 12.3061 18.7513 12.5428 19.0367 12.8206V12.8412ZM13.5947 12.1106C13.931 11.9151 14.2978 11.7608 14.6749 11.6579L13.4724 7.0997C12.6877 7.30549 11.9437 7.61417 11.2405 8.02574L13.5947 12.1106ZM17.0189 11.6682L18.2418 7.10999C17.4673 6.9042 16.6622 6.79102 15.8571 6.79102V11.5138C16.2443 11.5138 16.6418 11.5653 17.0189 11.6682Z" fill="white"/>
</g>
<defs>
<clipPath id="clip0_301_1001">
<rect width="32" height="32" fill="white"/>
</clipPath>
</defs>
</svg>
