<svg width="32" height="32" viewBox="0 0 32 32" fill="none" xmlns="http://www.w3.org/2000/svg">
<path fill-rule="evenodd" clip-rule="evenodd" d="M7.4391 27.4739C3.94782 24.8652 1.68261 20.6957 1.68261 16C1.68261 8.09567 8.09565 1.68261 16 1.68261C22.526 1.68261 29.6521 5.58261 31.3739 11.5565C29.4478 4.88261 23.2956 0 16 0C7.16522 0 0 7.1652 0 16C0 24.8348 7.16522 32 16 32C24.8348 32 32 24.8348 32 16V15.1565H31.1217C31.0956 15.1565 31.0565 15.1565 31.0043 15.1565C30.9 15.1565 30.7521 15.1522 30.5609 15.1435C30.1826 15.1305 29.6608 15.1043 29.0739 15.0522C27.8739 14.9478 26.5043 14.7435 25.5739 14.3695C24.0739 13.7695 23.2261 12.9783 22.2608 12.0478L22.2043 11.9957C21.2347 11.0652 20.1478 10.0174 18.2565 9.13047C16.3956 8.25653 14.3391 8.39567 12.8304 8.70867C12.0652 8.8652 11.4043 9.07393 10.9391 9.24347C10.7043 9.32607 10.5174 9.40433 10.3869 9.45653C9.6261 9.77827 8.88693 10.1565 8.14348 10.5087C8.14348 10.5087 9.6087 10.9087 10.3304 11.1348C10.3565 11.1435 10.3956 11.1565 10.4522 11.1739C10.5609 11.2087 10.7174 11.2652 10.9043 11.3435C11.2869 11.5 11.7869 11.7305 12.2826 12.0522C13.0652 12.5522 13.713 13.1869 13.9783 13.9609C12.3217 14.1783 10.7652 14.9087 9.60001 15.5913C8.89563 16.0043 8.30866 16.4217 7.89562 16.7305C7.69131 16.8869 7.52607 17.0174 7.41301 17.1087C7.31741 17.1869 5.82173 18.5043 5.82173 18.5043C5.82173 18.5043 7.75219 18.7087 8.70436 18.9C9.3391 19.0261 10.1913 19.2348 11.087 19.5435C11.9826 19.8565 12.887 20.2652 13.6391 20.7913C14.3913 21.3174 14.9434 21.9217 15.213 22.6174C16.0043 24.6435 15.2261 26.6131 13.6652 27.7217C12.1217 28.8174 9.77823 29.0783 7.43475 27.4695L7.4391 27.4739ZM12.9 29.9783C13.5304 29.7739 14.1174 29.4739 14.6478 29.1C16.7696 27.5913 17.8869 24.8261 16.787 22.0087C16.3522 20.9 15.5261 20.0565 14.6087 19.4131C13.6869 18.7696 12.6304 18.3 11.6478 17.9565C11.0044 17.7305 10.3782 17.5565 9.83476 17.4261C10.0304 17.3 10.2347 17.1695 10.4565 17.0391C11.7521 16.2783 13.387 15.5783 14.9521 15.5783C17.313 15.5783 19.0696 16.3043 20.7478 17.0783C20.9 17.1478 21.0522 17.2217 21.2087 17.2913C22.7087 17.9957 24.2826 18.7348 26.113 18.7348C27.9434 18.7348 29.2695 18.2348 30.2217 17.7131C29.3739 24.8087 23.3348 30.3131 16.0087 30.3131C14.9434 30.3131 13.9044 30.1957 12.9087 29.9783H12.9ZM28.3956 16.6826C27.7652 16.8957 27 17.0522 26.1087 17.0522C24.6739 17.0522 23.4391 16.4783 21.8739 15.7478C21.7347 15.6826 21.5956 15.6174 21.4522 15.5522C19.8826 14.8261 18.0696 14.0565 15.7087 13.9174C15.3913 12.3565 14.2087 11.2869 13.1913 10.6348C13.0782 10.5609 12.9652 10.4913 12.8522 10.4261C12.9522 10.4043 13.0565 10.3783 13.1652 10.3565C14.5304 10.0739 16.1565 10.0043 17.5348 10.6565C19.1696 11.4261 20.0957 12.3131 21.0565 13.2348L21.0913 13.2652C22.0782 14.2131 23.126 15.2087 24.9478 15.9391C25.9608 16.3435 27.2739 16.5609 28.3956 16.6826Z" fill="url(#paint0_linear_301_984)"/>
<defs>
<linearGradient id="paint0_linear_301_984" x1="-0.286956" y1="16.2957" x2="32.2869" y2="15.7" gradientUnits="userSpaceOnUse">
<stop stop-color="#29CCB9"/>
<stop offset="0.49" stop-color="#0091FF"/>
<stop offset="1" stop-color="#FF66B7"/>
</linearGradient>
</defs>
</svg>
