<svg width="500" height="500" viewBox="0 0 32 32" fill="none" xmlns="http://www.w3.org/2000/svg">
<g clip-path="url(#clip0_306_1238)">
<path d="M32 16C32 7.16352 24.8367 0 16 0C7.16331 0 0 7.16352 0 16C0 24.8365 7.16331 32 16 32C24.8367 32 32 24.8365 32 16Z" fill="#00D2FF"/>
<path d="M26.7978 15.2014C26.7978 15.1634 26.1051 14.721 25.7408 14.4901C25.5833 14.3913 25.4372 14.2757 25.3049 14.1452C25.0321 13.8755 24.5777 13.4041 24.4302 13.1139C24.3353 12.9285 24.3744 12.5949 24.4482 12.2766C24.5762 11.7177 24.4793 11.1308 24.1783 10.6427L23.7043 9.87084C23.4862 9.51873 23.3107 9.1419 23.1818 8.74828C23.018 8.24253 22.733 7.78444 22.3517 7.41388C21.5805 6.66166 19.4461 6.29132 17.6731 6.23222C17.5636 6.19916 17.4522 6.17266 17.3395 6.15286C16.5501 6.01846 15.7079 5.80129 14.9523 5.94231C13.8306 6.15116 12.6965 6.50273 11.85 7.37014C11.6793 7.54529 11.4126 7.62785 11.2288 7.79382C10.8642 8.12278 10.3733 8.12278 10.0494 8.48801C9.85979 8.70134 9.77211 9.39702 9.27504 9.66262C8.45286 10.1032 7.84443 10.5885 7.64518 10.836C7.49456 11.0222 7.37787 11.24 7.23131 11.4303C7.08198 11.6255 6.3735 11.956 6.16763 12.1627C5.96176 12.3694 5.68571 12.8724 5.80966 13.4668C5.82118 13.521 5.83099 13.5658 5.83803 13.602C5.9191 13.9041 6.13947 14.4517 6.08848 14.7028C6.02918 15 5.26459 17.2155 6.97296 17.806C7.32859 17.9291 7.4792 18.1687 7.51803 18.5335C7.54811 18.8057 7.62896 19.0849 7.77083 19.3855C7.92635 19.7134 8.23248 19.8917 8.25744 19.9135C8.36048 20.0044 8.84006 20.5049 8.87952 20.5778C9.4856 21.698 9.31536 22.2578 10.4755 22.6384C10.7735 22.7368 11.0597 22.868 11.3288 23.0297C11.6566 23.227 12.0078 23.3825 12.3741 23.493C12.3848 23.496 12.401 23.5018 12.42 23.5086C12.6777 22.8859 12.939 22.2952 13.1995 21.7392C11.1112 19.5978 11.6603 17.1986 11.8606 16.5552C11.8666 16.5361 11.8772 16.5189 11.8915 16.5049C11.9058 16.491 11.9234 16.4809 11.9427 16.4755C11.9619 16.4701 11.9822 16.4696 12.0016 16.4741C12.0211 16.4785 12.0392 16.4878 12.0541 16.501C12.4923 16.885 13.8248 18.2702 13.6684 20.7707C14.1292 19.8504 14.5774 19.041 14.9868 18.35C13.4798 15.796 14.6028 13.5572 14.9568 12.9669C14.9672 12.9496 14.9818 12.9351 14.9993 12.9248C15.0168 12.9146 15.0366 12.9089 15.0569 12.9084C15.0772 12.9078 15.0972 12.9124 15.1153 12.9217C15.1333 12.9309 15.1487 12.9446 15.1601 12.9614C15.4673 13.4175 16.302 14.9128 15.7851 17.067C16.16 16.494 16.4642 16.0699 16.663 15.8036C17.2014 12.2427 19.8907 11.0743 20.5975 10.8266C20.6164 10.8198 20.6368 10.818 20.6566 10.8211C20.6765 10.8243 20.6952 10.8325 20.7111 10.8448C20.7269 10.8571 20.7395 10.8732 20.7475 10.8917C20.7555 10.9101 20.7587 10.9303 20.7569 10.9503C20.6916 11.6867 20.2376 14.5224 17.1182 15.9786C16.7434 16.4724 16.3822 16.9923 16.0369 17.5257C17.2296 16.5947 18.9013 16.1559 20.2901 16.4929C20.3097 16.4974 20.3279 16.5067 20.343 16.52C20.3581 16.5333 20.3696 16.5501 20.3766 16.569C20.3836 16.5878 20.3858 16.6081 20.383 16.628C20.3802 16.6479 20.3724 16.6668 20.3605 16.683C19.9611 17.2116 18.3729 18.9947 15.3813 18.5861C14.8757 19.4384 14.4123 20.302 14.001 21.128C15.2928 20.1505 17.1805 19.7761 18.6453 20.2683C18.6648 20.2746 18.6824 20.2856 18.6965 20.3004C18.7106 20.3153 18.7208 20.3334 18.7261 20.3532C18.7314 20.3729 18.7317 20.3937 18.7269 20.4136C18.7221 20.4335 18.7124 20.4519 18.6986 20.4671C18.2438 20.9578 16.4923 22.5635 13.6128 21.9259C13.3429 22.4963 12.9403 23.4344 12.7438 23.8979C12.6762 24.0573 12.6139 24.2179 12.5587 24.3824C12.4307 24.76 12.26 25.2311 12.055 25.7023C12.0261 25.7695 12.0114 25.842 12.0117 25.915C12.0121 25.9882 12.0274 26.0605 12.0569 26.1275C12.0864 26.1945 12.1293 26.2546 12.1829 26.3043C12.2366 26.3538 12.3 26.392 12.369 26.4161C14.6413 27.2274 17.1085 27.3189 19.4346 26.6779C19.5115 26.6561 19.5825 26.6173 19.6423 26.5644C19.702 26.5113 19.7491 26.4456 19.7798 26.3717C19.8282 26.2568 19.876 26.148 19.876 26.148C19.876 26.148 20.8804 23.8149 21.028 22.7986C21.0862 22.3991 21.2023 22.0993 21.322 21.8813C21.4005 21.7388 21.514 21.6187 21.6516 21.5321C21.7894 21.4455 21.9468 21.3953 22.1094 21.3866C22.8748 21.346 24.5047 21.2392 25.0976 21.0512C25.8856 20.801 25.5438 19.3659 25.5016 19.211C25.4594 19.0561 25.8807 18.6967 25.9675 18.4867C26.0544 18.2768 25.7542 18.2049 25.632 17.9747C25.5097 17.7445 25.936 17.5786 25.9968 17.3695C26.0576 17.1604 25.8581 16.9305 25.7772 16.7758C25.6964 16.6211 25.6654 16.4276 25.6654 16.4276C25.6654 16.4276 26.2414 16.0055 26.5482 15.739C26.855 15.4725 26.7976 15.253 26.797 15.2012" fill="black"/>
</g>
<defs>
<clipPath id="clip0_306_1238">
<rect width="32" height="32" fill="white"/>
</clipPath>
</defs>
</svg>
