<svg width="500" height="500" viewBox="0 0 32 32" fill="none" xmlns="http://www.w3.org/2000/svg">
<g clip-path="url(#clip0_301_805)">
<path d="M16 32C24.8366 32 32 24.8366 32 16C32 7.16344 24.8366 0 16 0C7.16344 0 0 7.16344 0 16C0 24.8366 7.16344 32 16 32Z" fill="#FF0420"/>
<path d="M11.3346 20.2496C10.381 20.2496 9.60024 20.0256 8.99224 19.5776C8.39064 19.1232 8.08984 18.4704 8.08984 17.632C8.08984 17.4528 8.10904 17.2416 8.14744 16.9856C8.24984 16.4096 8.39704 15.7184 8.58904 14.9056C9.13304 12.704 10.541 11.6032 12.8066 11.6032C13.421 11.6032 13.9778 11.7056 14.4642 11.9168C14.9506 12.1152 15.3346 12.4224 15.6162 12.832C15.8978 13.2352 16.0386 13.7152 16.0386 14.272C16.0386 14.4384 16.0194 14.6496 15.981 14.9056C15.8594 15.616 15.7186 16.3136 15.5458 16.9856C15.2642 18.08 14.7842 18.9056 14.093 19.4496C13.4082 19.9872 12.4866 20.2496 11.3346 20.2496ZM11.5074 18.5216C11.9554 18.5216 12.333 18.3872 12.6466 18.1248C12.9666 17.8624 13.197 17.4592 13.3314 16.9088C13.517 16.1536 13.6578 15.5008 13.7538 14.9376C13.7858 14.7712 13.805 14.5984 13.805 14.4192C13.805 13.6896 13.4274 13.3248 12.6658 13.3248C12.2178 13.3248 11.8338 13.4592 11.5138 13.7216C11.2002 13.984 10.9762 14.3872 10.8418 14.9376C10.6946 15.4752 10.5538 16.128 10.4066 16.9088C10.3746 17.0688 10.3554 17.2352 10.3554 17.4144C10.349 18.1568 10.7394 18.5216 11.5074 18.5216Z" fill="white"/>
<path d="M16.2866 20.1312C16.197 20.1312 16.133 20.1056 16.0818 20.048C16.0434 19.984 16.0306 19.9136 16.0434 19.8304L17.701 12.0224C17.7138 11.9328 17.7586 11.8624 17.8354 11.8048C17.9058 11.7472 17.9826 11.7216 18.0658 11.7216H21.2594C22.149 11.7216 22.8594 11.9072 23.397 12.272C23.941 12.6432 24.2162 13.1744 24.2162 13.872C24.2162 14.0704 24.1906 14.2816 24.1458 14.4992C23.9474 15.4208 23.5442 16.0992 22.9298 16.5408C22.3282 16.9824 21.5026 17.2 20.453 17.2H18.8338L18.2834 19.8304C18.2642 19.92 18.2258 19.9904 18.149 20.048C18.0786 20.1056 18.0018 20.1312 17.9186 20.1312H16.2866ZM20.5362 15.5424C20.8754 15.5424 21.1634 15.4528 21.413 15.2672C21.669 15.0816 21.8354 14.8192 21.9186 14.4736C21.9442 14.3392 21.957 14.2176 21.957 14.1152C21.957 13.8848 21.8866 13.7056 21.7522 13.584C21.6178 13.456 21.381 13.392 21.0546 13.392H19.6146L19.1602 15.5424H20.5362Z" fill="white"/>
</g>
<defs>
<clipPath id="clip0_301_805">
<rect width="32" height="32" fill="white"/>
</clipPath>
</defs>
</svg>
