<svg width="32" height="32" viewBox="0 0 32 32" fill="none" xmlns="http://www.w3.org/2000/svg">
<g clip-path="url(#clip0_301_1225)">
<circle cx="16" cy="16" r="16" fill="#8247E5"/>
<path d="M20.9703 12.6478C20.6171 12.4431 20.1629 12.4431 19.7592 12.6478L16.9332 14.3368L15.0156 15.4116L12.2402 17.1006C11.8869 17.3053 11.4327 17.3053 11.029 17.1006L8.85911 15.7699C8.50586 15.5651 8.25355 15.1557 8.25355 14.6951V12.136C8.25355 11.7266 8.4554 11.3171 8.85911 11.0612L11.029 9.78172C11.3823 9.57699 11.8364 9.57699 12.2402 9.78172L14.4101 11.1124C14.7633 11.3171 15.0156 11.7266 15.0156 12.1872V13.8762L16.9332 12.7502V11.0101C16.9332 10.6006 16.7314 10.1912 16.3277 9.93526L12.2906 7.52976C11.9374 7.32504 11.4832 7.32504 11.0795 7.52976L6.9415 9.98644C6.53779 10.1912 6.33594 10.6006 6.33594 11.0101V15.821C6.33594 16.2305 6.53779 16.6399 6.9415 16.8958L11.029 19.3013C11.3823 19.5061 11.8364 19.5061 12.2402 19.3013L15.0156 17.6635L16.9332 16.5376L19.7087 14.8998C20.062 14.6951 20.5161 14.6951 20.9199 14.8998L23.0898 16.1793C23.443 16.384 23.6953 16.7935 23.6953 17.2541V19.8131C23.6953 20.2226 23.4935 20.632 23.0898 20.8879L20.9703 22.1675C20.6171 22.3722 20.1629 22.3722 19.7592 22.1675L17.5893 20.8879C17.236 20.6832 16.9837 20.2738 16.9837 19.8131V18.1754L15.0661 19.3013V20.9903C15.0661 21.3997 15.268 21.8092 15.6717 22.0651L19.7592 24.4706C20.1124 24.6753 20.5666 24.6753 20.9703 24.4706L25.0579 22.0651C25.4111 21.8604 25.6634 21.4509 25.6634 20.9903V16.1281C25.6634 15.7187 25.4616 15.3092 25.0579 15.0533L20.9703 12.6478Z" fill="white"/>
</g>
<defs>
<clipPath id="clip0_301_1225">
<rect width="32" height="32" fill="white"/>
</clipPath>
</defs>
</svg>
