<svg width="500" height="500" viewBox="0 0 32 32" fill="none" xmlns="http://www.w3.org/2000/svg">
<g clip-path="url(#clip0_301_1221)">
<path d="M0.448242 8.96097V3.69807C0.448242 2.09942 1.77447 0.803467 3.41045 0.803467H8.79632C10.4323 0.803467 11.7585 2.09942 11.7585 3.69807V7.94806C11.7585 8.68086 12.0564 9.38364 12.5867 9.90181C13.691 10.9808 15.4813 10.9808 16.5856 9.90181L25.0288 1.65127C25.5844 1.10843 26.3378 0.803467 27.1234 0.803467H28.5893C30.2254 0.803467 31.5515 2.09942 31.5515 3.69807V5.13054C31.5515 5.89824 31.2395 6.63449 30.6839 7.17733L22.2407 15.4279C21.1364 16.5069 21.1364 18.2563 22.2407 19.3353C22.7709 19.8536 23.4902 20.1446 24.2401 20.1446H28.5893C30.2254 20.1446 31.5515 21.4406 31.5515 23.0393V28.3021C31.5515 29.9007 30.2254 31.1967 28.5893 31.1967H23.2034C21.5675 31.1967 20.2412 29.9007 20.2412 28.3021V24.0521C20.2412 23.3193 19.9433 22.6165 19.4131 22.0985C18.3088 21.0194 16.5185 21.0194 15.4142 22.0985L6.97101 30.3489C6.41548 30.8917 5.66203 31.1967 4.8764 31.1967H3.41047C1.77447 31.1967 0.448242 29.9007 0.448242 28.3021V26.8697C0.448242 26.102 0.760334 25.3657 1.31586 24.8228L9.75914 16.5723C10.8634 15.4933 10.8634 13.7439 9.75914 12.6648C9.22888 12.1467 8.50967 11.8556 7.75974 11.8556H3.41047C1.77447 11.8556 0.448242 10.5596 0.448242 8.96097Z" fill="#B16EFF"/>
</g>
<defs>
<clipPath id="clip0_301_1221">
<rect width="32" height="32" fill="white"/>
</clipPath>
</defs>
</svg>
