<svg width="32" height="32" viewBox="0 0 32 32" fill="none" xmlns="http://www.w3.org/2000/svg">
<g clip-path="url(#clip0_301_703)">
<path d="M16 32C24.8366 32 32 24.8366 32 16C32 7.16344 24.8366 0 16 0C7.16344 0 0 7.16344 0 16C0 24.8366 7.16344 32 16 32Z" fill="#DBEF88"/>
<path d="M8.93311 7.73831H9.59449L25.4564 22.2787V24.2616H8.93311V7.73831Z" fill="black"/>
<path d="M21.4415 17.3315C21.8958 16.4355 22.1518 15.4214 22.1518 14.3471C22.1518 10.6963 19.1925 7.73831 15.543 7.73831C14.2641 7.73831 13.0706 8.10226 12.0591 8.73102L21.4415 17.3315Z" fill="black"/>
</g>
<defs>
<clipPath id="clip0_301_703">
<rect width="32" height="32" fill="white"/>
</clipPath>
</defs>
</svg>
