<svg width="500" height="500" viewBox="0 0 32 32" fill="none" xmlns="http://www.w3.org/2000/svg">
<g clip-path="url(#clip0_301_682)">
<circle cx="16" cy="16" r="16" fill="#FF931E"/>
<path d="M16.0044 11.9473C17.3706 11.9473 18.4781 10.8398 18.4781 9.47367C18.4781 8.1075 17.3706 7 16.0044 7C14.6383 7 13.5308 8.1075 13.5308 9.47367C13.5308 10.8398 14.6383 11.9473 16.0044 11.9473Z" fill="black"/>
<path d="M22.8822 17.1205C21.6984 16.4381 20.186 16.8445 19.5036 18.0283C19.2687 18.4357 19.1631 18.8817 19.1731 19.3196C19.198 20.4099 18.2176 20.9772 17.2854 20.4142C17.2486 20.3917 17.2109 20.3697 17.1727 20.3492C16.2301 19.823 16.2305 18.7022 17.1737 18.1764C17.9459 17.7581 18.4707 16.94 18.4707 16.0002C18.4707 15.9811 18.4697 15.9625 18.4692 15.9439L18.4702 15.9453C18.4458 14.8536 19.4286 14.2868 20.3617 14.8541C21.1091 15.3078 22.0747 15.3503 22.8851 14.8818C24.068 14.1985 24.4729 12.6851 23.7895 11.5023C23.1062 10.3194 21.5929 9.91442 20.41 10.5978C19.6001 11.0658 19.1555 11.922 19.1741 12.7954C19.1985 13.8847 18.219 14.4516 17.2878 13.8895C16.912 13.6593 16.4707 13.5266 15.998 13.5266C15.5252 13.5266 15.0839 13.6593 14.7086 13.889C13.7793 14.4492 12.8027 13.8833 12.8276 12.7964C12.8467 11.9211 12.3997 11.0629 11.5874 10.5954C10.4031 9.91442 8.8907 10.3222 8.20972 11.5066C7.52875 12.6909 7.93657 14.2032 9.12088 14.8842C9.93031 15.3498 10.893 15.3064 11.639 14.8541C12.5697 14.2892 13.5501 14.8556 13.5252 15.9444L13.5262 15.9429C13.5262 15.962 13.5248 15.9811 13.5248 16.0007C13.5248 16.941 14.0491 17.7585 14.8218 18.1769C15.7654 18.7031 15.7649 19.8253 14.8208 20.3506C14.7826 20.3712 14.7454 20.3931 14.7086 20.4156C13.7793 20.9748 12.8032 20.4084 12.828 19.3215C12.8385 18.8817 12.7321 18.4333 12.4957 18.0245C11.8109 16.8421 10.2975 16.4391 9.11515 17.1234C7.93036 17.8077 7.52732 19.3211 8.21163 20.5035C8.89643 21.6858 10.4098 22.0889 11.5922 21.4046C11.6074 21.3955 11.6222 21.3859 11.6375 21.3769L11.6361 21.3788C12.5678 20.8134 13.5482 21.3802 13.5229 22.4695L13.5238 22.4681C13.5238 22.4881 13.5224 22.5087 13.5224 22.5287C13.5238 23.895 14.6322 25.0014 15.9984 25C17.3647 24.9986 18.4712 23.8902 18.4697 22.5239C18.4697 22.5058 18.4688 22.4876 18.4683 22.4695L18.4692 22.4709C18.4444 21.3788 19.4277 20.8115 20.3613 21.3788L20.3598 21.3764C20.377 21.3869 20.3933 21.3974 20.4105 21.4074C21.5943 22.0898 23.1067 21.6835 23.7891 20.4996C24.4715 19.3158 24.0651 17.8034 22.8813 17.121L22.8822 17.1205Z" fill="black"/>
</g>
<defs>
<clipPath id="clip0_301_682">
<rect width="32" height="32" fill="white"/>
</clipPath>
</defs>
</svg>
