<svg width="500" height="500" viewBox="0 0 32 32" fill="none" xmlns="http://www.w3.org/2000/svg">
<g clip-path="url(#clip0_301_1201)">
<circle cx="16" cy="16" r="16" fill="#FFEEDA"/>
<path d="M24.0287 18.883V7.97125C24.0143 7.05594 23.2864 6.3208 22.3711 6.3208H10.9837C8.52604 6.35684 6.55127 8.36765 6.55127 10.8325C6.55127 11.6613 6.77469 12.3749 7.11343 13.0019C7.40172 13.5208 7.85577 14.0109 8.30262 14.3785C8.43235 14.4794 8.36749 14.4361 8.75667 14.674C9.29001 14.9983 9.90262 15.164 9.90262 15.164L9.89541 21.6938C9.90983 22.0037 9.93866 22.2992 10.0251 22.5803C10.2774 23.5028 10.9188 24.2091 11.7837 24.5478C12.1441 24.692 12.5549 24.7857 12.9945 24.7929L22.09 24.8217C23.899 24.8217 25.3693 23.3514 25.3693 21.5352C25.3765 20.4541 24.836 19.4884 24.0287 18.883Z" fill="#FFEEDA"/>
<path d="M24.2524 21.6145C24.2163 22.7748 23.2578 23.7118 22.083 23.7118L15.8271 23.6902C16.3244 23.1136 16.6271 22.364 16.6271 21.5424C16.6271 20.2595 15.8632 19.373 15.8632 19.373H22.0902C23.2866 19.373 24.2596 20.346 24.2596 21.5424L24.2524 21.6145Z" fill="#EBC28E"/>
<path d="M8.90082 13.4558C8.1801 12.7711 7.67559 11.8918 7.67559 10.8396V10.7315C7.73325 8.9441 9.20352 7.50266 10.9909 7.45221H22.3783C22.6738 7.46662 22.9116 7.67563 22.9116 7.97833V17.6144C23.1711 17.6576 23.3008 17.6936 23.5531 17.7873C23.7549 17.8594 24.0287 18.018 24.0287 18.018V7.97833C24.0143 7.06302 23.2864 6.32788 22.3711 6.32788H10.9837C8.52604 6.36392 6.55127 8.37473 6.55127 10.8396C6.55127 12.2738 7.20713 13.4991 8.27379 14.3567C8.34586 14.4144 8.41794 14.4936 8.60532 14.4936C8.93686 14.4936 9.17469 14.227 9.16028 13.9387C9.16028 13.6936 9.05217 13.6072 8.90082 13.4558Z" fill="#101010"/>
<path d="M22.0829 18.2486H13.1531C12.5549 18.2558 12.0721 18.7387 12.0721 19.3369V20.6198C12.0865 21.2108 12.591 21.7153 13.1964 21.7153H13.8594V20.6198H13.1892V19.3658C13.1892 19.3658 13.3549 19.3658 13.5495 19.3658C14.6811 19.3658 15.5099 20.4108 15.5099 21.5351C15.5099 22.5297 14.6018 23.7982 13.0883 23.6973C11.7477 23.6108 11.0198 22.4144 11.0198 21.5351V10.6522C11.0198 10.1621 10.6162 9.75854 10.1261 9.75854H9.23242V10.8757H9.89548V21.5423C9.85945 23.7117 11.4378 24.8 13.0883 24.8L22.0901 24.8288C23.8991 24.8288 25.3694 23.3585 25.3694 21.5423C25.3766 19.7261 23.8991 18.2486 22.0829 18.2486ZM24.2522 21.6144C24.2162 22.7748 23.2576 23.7117 22.0829 23.7117L15.827 23.6901C16.3243 23.1135 16.627 22.364 16.627 21.5423C16.627 20.2594 15.8631 19.373 15.8631 19.373H22.0901C23.2865 19.373 24.2594 20.3459 24.2594 21.5423L24.2522 21.6144Z" fill="#101010"/>
<path d="M19.6759 11.0776H12.9443V9.96045H19.6759C19.9786 9.96045 20.2308 10.2055 20.2308 10.5154C20.238 10.8253 19.993 11.0776 19.6759 11.0776Z" fill="#101010"/>
<path d="M19.6759 16.3172H12.9443V15.2073H19.6759C19.9786 15.2073 20.2308 15.4523 20.2308 15.7622C20.238 16.0649 19.993 16.3172 19.6759 16.3172Z" fill="#101010"/>
<path d="M20.8651 13.6938H12.9443V12.5767H20.8578C21.1606 12.5767 21.4128 12.8217 21.4128 13.1316C21.4272 13.4415 21.175 13.6938 20.8651 13.6938Z" fill="#101010"/>
</g>
<defs>
<clipPath id="clip0_301_1201">
<rect width="32" height="32" fill="white"/>
</clipPath>
</defs>
</svg>
