<svg width="500" height="500" viewBox="0 0 32 32" fill="none" xmlns="http://www.w3.org/2000/svg">
<g clip-path="url(#clip0_301_712)">
<circle cx="16" cy="16" r="16" fill="#E81899"/>
<path d="M25.633 20.5404L22.1868 15.8584C21.8125 15.3496 21.2581 15.0448 20.6678 14.9776C20.5334 14.9621 20.4134 14.8841 20.3462 14.7665C20.2778 14.6489 20.2706 14.5061 20.3246 14.3813C20.561 13.8366 20.5754 13.2042 20.321 12.6258L17.9896 7.30069C17.644 6.50996 16.8629 6 16.0002 6C15.1375 6 14.3563 6.51116 14.0107 7.30069L11.6793 12.6258C11.4262 13.2042 11.4394 13.8366 11.6757 14.3813C11.7297 14.5061 11.7213 14.6489 11.6541 14.7665C11.5858 14.8841 11.467 14.9621 11.3326 14.9776C10.7422 15.0448 10.1879 15.3496 9.8135 15.8584L6.36739 20.5404C5.85623 21.2351 5.80464 22.1662 6.2354 22.9138C6.66737 23.6601 7.5001 24.0813 8.35682 23.9865L14.1343 23.3434C14.7619 23.2738 15.3031 22.9462 15.6558 22.4686C15.7362 22.3594 15.8646 22.2946 16.0002 22.2946C16.1358 22.2946 16.263 22.3594 16.3446 22.4686C16.6973 22.9462 17.2385 23.2738 17.866 23.3434L23.6435 23.9865C24.5003 24.0825 25.333 23.6613 25.765 22.9138C26.1957 22.1662 26.1441 21.2351 25.633 20.5404ZM13.1864 13.2942L15.5214 7.96303C15.6054 7.77225 15.7938 7.64866 16.0014 7.64866C16.209 7.64866 16.3973 7.77225 16.4813 7.96303L18.8163 13.2942C18.8895 13.4622 18.8739 13.6566 18.7731 13.8102C18.6723 13.9638 18.5019 14.0561 18.3171 14.0561H13.6843C13.5008 14.0561 13.3292 13.9638 13.2284 13.8102C13.1276 13.6566 13.112 13.4622 13.1852 13.2942H13.1864ZM14.3851 21.4103C14.3023 21.5747 14.1415 21.685 13.9591 21.7054L8.17564 22.3486C7.96926 22.3714 7.76767 22.2706 7.66328 22.0906C7.55889 21.9106 7.57209 21.6862 7.69568 21.5183L11.1454 16.8315C11.2546 16.6839 11.4298 16.5999 11.6134 16.6107C11.7969 16.6203 11.9625 16.7223 12.0549 16.8818L12.0585 16.8878L14.3683 20.8883L14.3719 20.8943C14.4643 21.0539 14.4691 21.2483 14.3863 21.4115L14.3851 21.4103ZM16.4753 19.6009C16.377 19.77 16.197 19.8756 16.0002 19.8756C15.8046 19.8756 15.6234 19.7712 15.525 19.6021L13.7503 16.5291C13.6519 16.3599 13.6519 16.1499 13.7503 15.9807C13.8487 15.8116 14.0287 15.706 14.2255 15.706H17.7736C17.9692 15.706 18.1504 15.8092 18.2488 15.9795C18.3471 16.1499 18.3471 16.3587 18.2488 16.5279L16.4753 19.6009ZM24.3383 22.0906C24.2339 22.2706 24.0335 22.3726 23.8259 22.3498L18.0424 21.7066C17.86 21.6862 17.6992 21.5759 17.6164 21.4115C17.5336 21.2471 17.5384 21.0527 17.6308 20.8943L17.6344 20.8883L19.9443 16.8878L19.9479 16.8818C20.0403 16.7223 20.2058 16.6203 20.3894 16.6107C20.573 16.6011 20.7482 16.6839 20.8574 16.8315L24.3071 21.5183C24.4307 21.6862 24.4427 21.9106 24.3395 22.0906H24.3383Z" fill="#FAFAFA"/>
</g>
<defs>
<clipPath id="clip0_301_712">
<rect width="32" height="32" fill="white"/>
</clipPath>
</defs>
</svg>
