<svg width="500" height="500" viewBox="0 0 32 32" fill="none" xmlns="http://www.w3.org/2000/svg">
<g clip-path="url(#clip0_301_1193)">
<mask id="mask0_301_1193" style="mask-type:luminance" maskUnits="userSpaceOnUse" x="0" y="0" width="32" height="32">
<path d="M32 0H0V32H32V0Z" fill="white"/>
</mask>
<g mask="url(#mask0_301_1193)">
<path d="M16 32C7.17817 32 0 24.8219 0 16C0 7.17817 7.17817 0 16 0C24.8219 0 32 7.17817 32 16C32 24.8219 24.8219 32 16 32ZM16 5.81819C10.3854 5.81819 5.81819 10.3854 5.81819 16C5.81819 21.6145 10.3854 26.1819 16 26.1819C21.6145 26.1819 26.1819 21.6145 26.1819 16C26.1819 10.3854 21.6145 5.81819 16 5.81819Z" fill="url(#paint0_linear_301_1193)"/>
</g>
</g>
<defs>
<linearGradient id="paint0_linear_301_1193" x1="4.28026" y1="4.71626" x2="25.6704" y2="32.3166" gradientUnits="userSpaceOnUse">
<stop stop-color="#00F2FE"/>
<stop offset="0.535" stop-color="#4FACFE"/>
<stop offset="0.975" stop-color="#C471F5"/>
</linearGradient>
<clipPath id="clip0_301_1193">
<rect width="32" height="32" fill="white"/>
</clipPath>
</defs>
</svg>
