<svg width="256" height="256" viewBox="0 0 256 256" fill="none" xmlns="http://www.w3.org/2000/svg">
<g clip-path="url(#clip0_5546_3948)">
<path d="M128 0C57.3067 0 0 57.3067 0 128C0 135.653 0.72 143.12 2 150.4H30.4C34.0267 150.4 36.2133 149.227 37.6267 146.933L47.6 130.4L60.3733 170.053C61.6267 174.053 64.5867 176.133 68.5867 176.133C72.6933 176.133 76.0533 173.653 76.8533 169.547L86.1333 125.867L96.2133 195.493C96.8267 200.08 99.0667 202.373 103.653 202.373H103.707C108.293 202.373 110.48 199.893 111.12 195.333L131.68 59.8133C132.267 55.6267 129.333 51.7333 125.12 51.1467C120.96 50.5867 117.04 53.4933 116.453 57.7067L103.787 144.587L95.2533 86.6133C94.6933 82.16 91.3067 79.3867 87.6267 79.3067C83.4667 79.2 80.3467 81.8133 79.4933 86.24L67.2533 142.96L57.4667 112.533C56.6933 109.227 53.76 106.773 50.5333 106.4C46.08 105.867 43.5467 108.16 41.68 111.2L26.56 135.013H17.52C17.36 132.693 17.2533 130.32 17.2533 127.973C17.28 66.8533 66.8533 17.28 128 17.28C177.307 17.28 219.093 49.5467 233.387 94.08H251.413C236.533 39.8667 186.96 0 128 0ZM254 105.6H225.52C221.893 105.6 219.707 106.773 218.293 109.067L208.32 125.6L195.547 85.9467C194.293 81.9467 191.333 79.8667 187.333 79.8667C183.227 79.8667 179.867 82.3467 179.067 86.4533L169.787 130.133L159.707 60.5067C159.093 55.92 156.853 53.6267 152.267 53.6267H152.213C147.627 53.6267 145.44 56.1067 144.8 60.6667L124.24 196.187C123.653 200.373 126.587 204.267 130.8 204.853C134.96 205.413 138.88 202.507 139.467 198.293L152.133 111.413L160.667 169.387C161.227 173.84 164.613 176.613 168.293 176.693C172.453 176.8 175.573 174.187 176.427 169.76L188.667 113.04L198.453 143.467C199.227 146.773 202.16 149.227 205.387 149.6C209.84 150.133 212.373 147.84 214.24 144.8L229.36 120.987H238.453C238.613 123.307 238.72 125.68 238.72 128.027C238.72 189.173 189.147 238.747 128 238.747C78.6933 238.747 36.9067 206.48 22.6133 161.947H4.58667C19.4667 216.16 69.0667 256.027 128 256.027C198.693 256.027 256 198.72 256 128.027C256 120.373 255.28 112.907 254 105.627V105.6Z" fill="url(#paint0_linear_5546_3948)"/>
</g>
<defs>
<linearGradient id="paint0_linear_5546_3948" x1="-12.6933" y1="-12.6933" x2="329.92" y2="329.92" gradientUnits="userSpaceOnUse">
<stop stop-color="#FC829F"/>
<stop offset="0.06" stop-color="#FD5E84"/>
<stop offset="0.12" stop-color="#FD416E"/>
<stop offset="0.18" stop-color="#FE2C5F"/>
<stop offset="0.24" stop-color="#FE2056"/>
<stop offset="0.3" stop-color="#FF1C53"/>
<stop offset="0.31" stop-color="#FB2471"/>
<stop offset="0.32" stop-color="#F531A0"/>
<stop offset="0.33" stop-color="#F03BC6"/>
<stop offset="0.34" stop-color="#EC42E1"/>
<stop offset="0.35" stop-color="#EA47F2"/>
<stop offset="0.36" stop-color="#EA49F8"/>
<stop offset="0.42" stop-color="#C44DFC"/>
<stop offset="0.45" stop-color="#B250FF"/>
<stop offset="0.5" stop-color="#5E5FF5"/>
<stop offset="1" stop-color="#323CFF"/>
</linearGradient>
<clipPath id="clip0_5546_3948">
<rect width="256" height="256" fill="white"/>
</clipPath>
</defs>
</svg>
