<svg width="32" height="32" viewBox="0 0 32 32" fill="none" xmlns="http://www.w3.org/2000/svg">
<g clip-path="url(#clip0_301_1187)">
<mask id="mask0_301_1187" style="mask-type:luminance" maskUnits="userSpaceOnUse" x="0" y="0" width="32" height="32">
<path d="M32 0H0V32H32V0Z" fill="white"/>
</mask>
<g mask="url(#mask0_301_1187)">
<path d="M16 0C7.16334 0 0 7.16334 0 16C0 16.9566 0.09 17.89 0.25 18.8H3.8C4.25334 18.8 4.52666 18.6534 4.70334 18.3666L5.95 16.3L7.54666 21.2566C7.70334 21.7566 8.07334 22.0166 8.57334 22.0166C9.08666 22.0166 9.50666 21.7066 9.60666 21.1934L10.7667 15.7334L12.0267 24.4366C12.1033 25.01 12.3833 25.2966 12.9566 25.2966H12.9634C13.5366 25.2966 13.81 24.9866 13.89 24.4166L16.46 7.47666C16.5334 6.95334 16.1666 6.46666 15.64 6.39334C15.12 6.32334 14.63 6.68666 14.5566 7.21334L12.9734 18.0734L11.9067 10.8267C11.8367 10.27 11.4133 9.92334 10.9533 9.91334C10.4333 9.9 10.0433 10.2267 9.93666 10.78L8.40666 17.87L7.18334 14.0666C7.08666 13.6534 6.72 13.3466 6.31666 13.3C5.76 13.2334 5.44334 13.52 5.21 13.9L3.32 16.8766H2.19C2.17 16.5866 2.15666 16.29 2.15666 15.9966C2.16 8.35666 8.35666 2.16 16 2.16C22.1634 2.16 27.3866 6.19334 29.1734 11.76H31.4266C29.5666 4.98334 23.37 0 16 0ZM31.75 13.2H28.19C27.7366 13.2 27.4634 13.3466 27.2866 13.6334L26.04 15.7L24.4434 10.7433C24.2866 10.2433 23.9166 9.98334 23.4166 9.98334C22.9034 9.98334 22.4834 10.2933 22.3834 10.8067L21.2234 16.2666L19.9634 7.56334C19.8866 6.99 19.6066 6.70334 19.0334 6.70334H19.0266C18.4534 6.70334 18.18 7.01334 18.1 7.58334L15.53 24.5234C15.4566 25.0466 15.8234 25.5334 16.35 25.6066C16.87 25.6766 17.36 25.3134 17.4334 24.7866L19.0166 13.9266L20.0834 21.1734C20.1534 21.73 20.5766 22.0766 21.0366 22.0866C21.5566 22.1 21.9466 21.7734 22.0534 21.22L23.5834 14.13L24.8066 17.9334C24.9034 18.3466 25.27 18.6534 25.6734 18.7C26.23 18.7666 26.5466 18.48 26.78 18.1L28.67 15.1234H29.8066C29.8266 15.4134 29.84 15.71 29.84 16.0034C29.84 23.6466 23.6434 29.8434 16 29.8434C9.83666 29.8434 4.61334 25.81 2.82666 20.2434H0.573334C2.43334 27.02 8.63334 32.0034 16 32.0034C24.8366 32.0034 32 24.84 32 16.0034C32 15.0466 31.91 14.1134 31.75 13.2034V13.2Z" fill="url(#paint0_linear_301_1187)"/>
</g>
</g>
<defs>
<linearGradient id="paint0_linear_301_1187" x1="-1.58666" y1="-1.58666" x2="41.24" y2="41.24" gradientUnits="userSpaceOnUse">
<stop stop-color="#FC829F"/>
<stop offset="0.06" stop-color="#FD5E84"/>
<stop offset="0.12" stop-color="#FD416E"/>
<stop offset="0.18" stop-color="#FE2C5F"/>
<stop offset="0.24" stop-color="#FE2056"/>
<stop offset="0.3" stop-color="#FF1C53"/>
<stop offset="0.31" stop-color="#FB2471"/>
<stop offset="0.32" stop-color="#F531A0"/>
<stop offset="0.33" stop-color="#F03BC6"/>
<stop offset="0.34" stop-color="#EC42E1"/>
<stop offset="0.35" stop-color="#EA47F2"/>
<stop offset="0.36" stop-color="#EA49F8"/>
<stop offset="0.42" stop-color="#C44DFC"/>
<stop offset="0.45" stop-color="#B250FF"/>
<stop offset="0.5" stop-color="#5E5FF5"/>
<stop offset="1" stop-color="#323CFF"/>
</linearGradient>
<clipPath id="clip0_301_1187">
<rect width="32" height="32" fill="white"/>
</clipPath>
</defs>
</svg>
