<svg width="32" height="32" viewBox="0 0 32 32" fill="none" xmlns="http://www.w3.org/2000/svg">
<circle cx="16" cy="16" r="16" fill="black"/>
<mask id="mask0_301_934" style="mask-type:alpha" maskUnits="userSpaceOnUse" x="22" y="9" width="3" height="5">
<path d="M22.2164 9.14563H24.8154V13.7394H22.2164V9.14563Z" fill="black"/>
</mask>
<g mask="url(#mask0_301_934)">
<path d="M24.5096 9.14563H20.5284C20.3593 9.14563 20.2222 9.28274 20.2222 9.45188V13.4331C20.2222 13.6023 20.3593 13.7394 20.5284 13.7394H24.5096C24.6787 13.7394 24.8158 13.6023 24.8158 13.4331V9.45188C24.8158 9.28274 24.6787 9.14563 24.5096 9.14563Z" fill="white" fill-opacity="0.5"/>
</g>
<mask id="mask1_301_934" style="mask-type:alpha" maskUnits="userSpaceOnUse" x="22" y="18" width="3" height="5">
<path d="M22.2164 18.3324H24.8154V22.9262H22.2164V18.3324Z" fill="black"/>
</mask>
<g mask="url(#mask1_301_934)">
<path d="M24.5096 18.3324H20.5284C20.3593 18.3324 20.2222 18.4695 20.2222 18.6387V22.6199C20.2222 22.7891 20.3593 22.9262 20.5284 22.9262H24.5096C24.6787 22.9262 24.8158 22.7891 24.8158 22.6199V18.6387C24.8158 18.4695 24.6787 18.3324 24.5096 18.3324Z" fill="white" fill-opacity="0.5"/>
</g>
<path d="M15.9956 13.7505H12.0333C11.865 13.7505 11.7285 13.886 11.7285 14.0531V17.9873C11.7285 18.1544 11.865 18.2899 12.0333 18.2899H15.9956C16.1639 18.2899 16.3004 18.1544 16.3004 17.9873V14.0531C16.3004 13.886 16.1639 13.7505 15.9956 13.7505Z" fill="white"/>
<path d="M11.4095 9.14508H7.42831C7.25918 9.14508 7.12207 9.28219 7.12207 9.45133V13.4326C7.12207 13.6017 7.25918 13.7388 7.42831 13.7388H11.4095C11.5786 13.7388 11.7157 13.6017 11.7157 13.4326V9.45133C11.7157 9.28219 11.5786 9.14508 11.4095 9.14508Z" fill="white"/>
<path d="M20.595 9.14508H16.6138C16.4447 9.14508 16.3076 9.28219 16.3076 9.45133V13.4326C16.3076 13.6017 16.4447 13.7388 16.6138 13.7388H20.595C20.7642 13.7388 20.9013 13.6017 20.9013 13.4326V9.45133C20.9013 9.28219 20.7642 9.14508 20.595 9.14508Z" fill="white"/>
<path d="M11.4095 18.3324H7.42831C7.25918 18.3324 7.12207 18.4695 7.12207 18.6387V22.6199C7.12207 22.7891 7.25918 22.9262 7.42831 22.9262H11.4095C11.5786 22.9262 11.7157 22.7891 11.7157 22.6199V18.6387C11.7157 18.4695 11.5786 18.3324 11.4095 18.3324Z" fill="white"/>
<path d="M20.595 18.3324H16.6138C16.4447 18.3324 16.3076 18.4695 16.3076 18.6387V22.6199C16.3076 22.7891 16.4447 22.9262 16.6138 22.9262H20.595C20.7642 22.9262 20.9013 22.7891 20.9013 22.6199V18.6387C20.9013 18.4695 20.7642 18.3324 20.595 18.3324Z" fill="white"/>
</svg>
