<svg width="32" height="32" viewBox="0 0 32 32" fill="none" xmlns="http://www.w3.org/2000/svg">
<g clip-path="url(#clip0_301_1184)">
<path d="M16 32C24.8366 32 32 24.8366 32 16C32 7.16344 24.8366 0 16 0C7.16344 0 0 7.16344 0 16C0 24.8366 7.16344 32 16 32Z" fill="#005741"/>
<path d="M20.1543 19.5367V21.6976H11.24C11.3629 20.2754 11.8219 19.2747 13.4089 17.8676L20.1543 12.113V17.1628H22.5826V7.87231H8.77523V12.5033H11.2034V10.3005H18.5389L11.8263 16.0293L11.8103 16.0445C8.9971 18.5351 8.77344 20.5454 8.77344 22.9139V24.1276H22.5835V19.5385H20.1552L20.1543 19.5367Z" fill="white"/>
</g>
<defs>
<clipPath id="clip0_301_1184">
<rect width="32" height="32" fill="white"/>
</clipPath>
</defs>
</svg>
