<svg width="32" height="32" viewBox="0 0 32 32" fill="none" xmlns="http://www.w3.org/2000/svg">
<g clip-path="url(#clip0_301_1171)">
<path fill-rule="evenodd" clip-rule="evenodd" d="M0.0473633 16.0008C0.0473633 7.16361 7.18993 0 15.9997 0C24.8109 0 31.9535 7.16361 31.9527 16C31.9527 19.13 31.0563 22.0497 29.5077 24.5153C29.0807 25.1946 28.6051 25.8394 28.0839 26.4455L16.0208 14.3469L5.6476 24.7499L3.93496 26.4676C3.41221 25.863 2.935 25.219 2.50801 24.5405C0.94921 22.0702 0.0473633 19.141 0.0473633 16.0008ZM27.6789 22.2355L27.8249 21.9427L27.8257 21.9435C28.7409 20.1124 29.2244 18.057 29.2244 16.0008C29.2244 8.68765 23.2921 2.73792 16.0004 2.73792C8.7087 2.73792 2.77723 8.68765 2.77723 16.0008C2.77723 18.068 3.26544 20.1321 4.18926 21.9702L4.33604 22.2615L16.0208 10.5423L27.6789 22.2355ZM16.0003 32C19.9719 32 23.6052 30.5445 26.3978 28.1356L16.0215 17.7279L5.62548 28.1537C8.41422 30.5523 12.0287 32 16.0003 32Z" fill="url(#paint0_linear_301_1171)"/>
</g>
<defs>
<linearGradient id="paint0_linear_301_1171" x1="16" y1="-1.49906e-09" x2="16.0474" y2="32" gradientUnits="userSpaceOnUse">
<stop stop-color="#169E00"/>
<stop offset="0.49" stop-color="#00C537"/>
<stop offset="1" stop-color="#00B1C9"/>
</linearGradient>
<clipPath id="clip0_301_1171">
<rect width="32" height="32" fill="white"/>
</clipPath>
</defs>
</svg>
