<svg width="32" height="32" viewBox="0 0 32 32" fill="none" xmlns="http://www.w3.org/2000/svg">
<mask id="mask0_312_325" style="mask-type:alpha" maskUnits="userSpaceOnUse" x="0" y="0" width="32" height="32">
<path d="M16 32C24.8366 32 32 24.8366 32 16C32 7.16345 24.8366 0 16 0C7.16345 0 0 7.16345 0 16C0 24.8366 7.16345 32 16 32Z" fill="#D9D9D9"/>
</mask>
<g mask="url(#mask0_312_325)">
<path d="M37.4229 -6.95605H-4.93701V35.4038H37.4229V-6.95605Z" fill="#A1723A"/>
<g filter="url(#filter0_f_312_325)">
<path d="M17.2225 31.3273C26.6521 31.3273 34.2961 23.6853 34.2961 14.2586C34.2961 4.83184 26.6521 -2.81006 17.2225 -2.81006C7.79304 -2.81006 0.148926 4.83184 0.148926 14.2586C0.148926 23.6853 7.79304 31.3273 17.2225 31.3273Z" fill="#531002"/>
</g>
<g filter="url(#filter1_f_312_325)">
<path d="M19.0627 25.9246C26.7106 25.9246 32.9106 19.7225 32.9106 12.0719C32.9106 4.4211 26.7106 -1.78101 19.0627 -1.78101C11.4148 -1.78101 5.21484 4.4211 5.21484 12.0719C5.21484 19.7225 11.4148 25.9246 19.0627 25.9246Z" fill="#2B5DF0"/>
</g>
<g filter="url(#filter2_f_312_325)">
<path d="M18.8106 26.7162C26.7838 26.7162 33.2473 20.2505 33.2473 12.2747C33.2473 4.29883 26.7838 -2.16687 18.8106 -2.16687C10.8375 -2.16687 4.37402 4.29883 4.37402 12.2747C4.37402 20.2505 10.8375 26.7162 18.8106 26.7162Z" fill="url(#paint0_radial_312_325)"/>
</g>
<g filter="url(#filter3_f_312_325)">
<path d="M21.2049 15.9111C25.2215 15.9111 28.4776 12.6551 28.4776 8.63845C28.4776 4.62184 25.2215 1.36572 21.2049 1.36572C17.1882 1.36572 13.9321 4.62184 13.9321 8.63845C13.9321 12.6551 17.1882 15.9111 21.2049 15.9111Z" fill="#FCB8D4"/>
</g>
<g filter="url(#filter4_f_312_325)">
<path d="M21.2001 11.5375C22.8041 11.5375 24.1042 10.2374 24.1042 8.63339C24.1042 7.02948 22.8041 5.72925 21.2001 5.72925C19.5961 5.72925 18.2959 7.02948 18.2959 8.63339C18.2959 10.2374 19.5961 11.5375 21.2001 11.5375Z" fill="white"/>
</g>
<g filter="url(#filter5_f_312_325)">
<path d="M19.2706 37.6303C33.684 37.6303 45.3683 25.9459 45.3683 11.5325C45.3683 -2.88081 33.684 -14.5652 19.2706 -14.5652C4.8572 -14.5652 -6.82715 -2.88081 -6.82715 11.5325C-6.82715 25.9459 4.8572 37.6303 19.2706 37.6303Z" fill="url(#paint1_radial_312_325)" fill-opacity="0.9"/>
</g>
</g>
<defs>
<filter id="filter0_f_312_325" x="-3.80901" y="-6.768" width="42.0633" height="42.0532" filterUnits="userSpaceOnUse" color-interpolation-filters="sRGB">
<feFlood flood-opacity="0" result="BackgroundImageFix"/>
<feBlend mode="normal" in="SourceGraphic" in2="BackgroundImageFix" result="shape"/>
<feGaussianBlur stdDeviation="1.97897" result="effect1_foregroundBlur_312_325"/>
</filter>
<filter id="filter1_f_312_325" x="-2.70105" y="-9.6969" width="43.5276" height="43.5375" filterUnits="userSpaceOnUse" color-interpolation-filters="sRGB">
<feFlood flood-opacity="0" result="BackgroundImageFix"/>
<feBlend mode="normal" in="SourceGraphic" in2="BackgroundImageFix" result="shape"/>
<feGaussianBlur stdDeviation="3.95795" result="effect1_foregroundBlur_312_325"/>
</filter>
<filter id="filter2_f_312_325" x="1.40555" y="-5.13534" width="34.81" height="34.82" filterUnits="userSpaceOnUse" color-interpolation-filters="sRGB">
<feFlood flood-opacity="0" result="BackgroundImageFix"/>
<feBlend mode="normal" in="SourceGraphic" in2="BackgroundImageFix" result="shape"/>
<feGaussianBlur stdDeviation="1.48423" result="effect1_foregroundBlur_312_325"/>
</filter>
<filter id="filter3_f_312_325" x="7.99521" y="-4.5712" width="26.4192" height="26.4192" filterUnits="userSpaceOnUse" color-interpolation-filters="sRGB">
<feFlood flood-opacity="0" result="BackgroundImageFix"/>
<feBlend mode="normal" in="SourceGraphic" in2="BackgroundImageFix" result="shape"/>
<feGaussianBlur stdDeviation="2.96846" result="effect1_foregroundBlur_312_325"/>
</filter>
<filter id="filter4_f_312_325" x="14.338" y="1.77131" width="13.724" height="13.7242" filterUnits="userSpaceOnUse" color-interpolation-filters="sRGB">
<feFlood flood-opacity="0" result="BackgroundImageFix"/>
<feBlend mode="normal" in="SourceGraphic" in2="BackgroundImageFix" result="shape"/>
<feGaussianBlur stdDeviation="1.97897" result="effect1_foregroundBlur_312_325"/>
</filter>
<filter id="filter5_f_312_325" x="-9.79562" y="-17.5337" width="58.1323" height="58.1324" filterUnits="userSpaceOnUse" color-interpolation-filters="sRGB">
<feFlood flood-opacity="0" result="BackgroundImageFix"/>
<feBlend mode="normal" in="SourceGraphic" in2="BackgroundImageFix" result="shape"/>
<feGaussianBlur stdDeviation="1.48423" result="effect1_foregroundBlur_312_325"/>
</filter>
<radialGradient id="paint0_radial_312_325" cx="0" cy="0" r="1" gradientUnits="userSpaceOnUse" gradientTransform="translate(21.2457 8.20045) rotate(128.228) scale(27.2652 27.263)">
<stop offset="0.286458" stop-color="#387AFA"/>
<stop offset="0.647782" stop-color="#387AFA" stop-opacity="0"/>
</radialGradient>
<radialGradient id="paint1_radial_312_325" cx="0" cy="0" r="1" gradientUnits="userSpaceOnUse" gradientTransform="translate(19.2706 11.5325) rotate(90) scale(26.0977)">
<stop offset="0.598958" stop-opacity="0"/>
<stop offset="0.671875"/>
<stop offset="0.734375" stop-opacity="0"/>
</radialGradient>
</defs>
</svg>
